NotoSans-CondensedLight.ufo
<glyph name="exclam" format="2">
  <advance width="194"/>
  <unicode hex="0021"/>
  <outline>
    <contour>
      <point x="109" y="170" type="line"/>
      <point x="114" y="714" type="line"/>
      <point x="82" y="714" type="line"/>
      <point x="85" y="170" type="line"/>
    </contour>
    <contour>
      <point x="72" y="30" type="curve" smooth="yes"/>
      <point x="72" y="9"/>
      <point x="77" y="-6"/>
      <point x="97" y="-6" type="curve" smooth="yes"/>
      <point x="115" y="-6"/>
      <point x="123" y="7"/>
      <point x="123" y="30" type="curve" smooth="yes"/>
      <point x="123" y="53"/>
      <point x="116" y="65"/>
      <point x="97" y="65" type="curve" smooth="yes"/>
      <point x="77" y="65"/>
      <point x="72" y="49"/>
    </contour>
  </outline>
</glyph>
<glyph name="numbersign" format="2">
  <advance width="424"/>
  <unicode hex="0023"/>
  <outline>
    <contour>
      <point x="314" y="479" type="line"/>
      <point x="405" y="479" type="line"/>
      <point x="405" y="503" type="line"/>
      <point x="316" y="503" type="line"/>
      <point x="338" y="714" type="line"/>
      <point x="315" y="714" type="line"/>
      <point x="292" y="503" type="line"/>
      <point x="162" y="503" type="line"/>
      <point x="185" y="714" type="line"/>
      <point x="161" y="714" type="line"/>
      <point x="137" y="503" type="line"/>
      <point x="41" y="503" type="line"/>
      <point x="41" y="479" type="line"/>
      <point x="134" y="479" type="line"/>
      <point x="109" y="259" type="line"/>
      <point x="18" y="259" type="line"/>
      <point x="18" y="234" type="line"/>
      <point x="107" y="234" type="line"/>
      <point x="80" y="0" type="line"/>
      <point x="104" y="0" type="line"/>
      <point x="132" y="234" type="line"/>
      <point x="263" y="234" type="line"/>
      <point x="235" y="0" type="line"/>
      <point x="260" y="0" type="line"/>
      <point x="288" y="234" type="line"/>
      <point x="379" y="234" type="line"/>
      <point x="379" y="259" type="line"/>
      <point x="290" y="259" type="line"/>
    </contour>
    <contour>
      <point x="134" y="259" type="line"/>
      <point x="159" y="479" type="line"/>
      <point x="290" y="479" type="line"/>
      <point x="266" y="259" type="line"/>
    </contour>
  </outline>
</glyph>
<glyph name="dollar" format="2">
  <advance width="394"/>
  <unicode hex="0024"/>
  <outline>
    <contour>
      <point x="177" y="21" type="curve"/>
      <point x="177" y="-58" type="line"/>
      <point x="201" y="-58" type="line"/>
      <point x="201" y="22" type="line"/>
      <point x="307" y="32"/>
      <point x="363" y="96"/>
      <point x="363" y="188" type="curve" smooth="yes"/>
      <point x="363" y="273"/>
      <point x="311" y="320"/>
      <point x="201" y="371" type="curve"/>
      <point x="201" y="681" type="line"/>
      <point x="245" y="681"/>
      <point x="284" y="668"/>
      <point x="320" y="647" type="curve"/>
      <point x="332" y="672" type="line"/>
      <point x="293" y="694"/>
      <point x="250" y="706"/>
      <point x="201" y="707" type="curve"/>
      <point x="201" y="760" type="line"/>
      <point x="177" y="760" type="line"/>
      <point x="177" y="706" type="line"/>
      <point x="93" y="700"/>
      <point x="31" y="636"/>
      <point x="31" y="538" type="curve" smooth="yes"/>
      <point x="31" y="444"/>
      <point x="88" y="398"/>
      <point x="177" y="354" type="curve"/>
      <point x="177" y="47" type="line"/>
      <point x="131" y="47"/>
      <point x="69" y="65"/>
      <point x="33" y="83" type="curve"/>
      <point x="33" y="54" type="line"/>
      <point x="67" y="38"/>
      <point x="124" y="23"/>
    </contour>
    <contour>
      <point x="201" y="48" type="curve"/>
      <point x="201" y="343" type="line"/>
      <point x="295" y="296"/>
      <point x="337" y="260"/>
      <point x="337" y="187" type="curve" smooth="yes"/>
      <point x="337" y="102"/>
      <point x="281" y="53"/>
    </contour>
    <contour>
      <point x="177" y="680" type="curve"/>
      <point x="177" y="383" type="line"/>
      <point x="103" y="421"/>
      <point x="58" y="457"/>
      <point x="58" y="537" type="curve" smooth="yes"/>
      <point x="58" y="623"/>
      <point x="110" y="674"/>
    </contour>
  </outline>
</glyph>
<glyph name="ampersand" format="2">
  <advance width="385"/>
  <unicode hex="0026"/>
  <outline>
    <contour>
      <point x="177" y="724" type="curve" smooth="yes"/>
      <point x="121" y="724"/>
      <point x="87" y="674"/>
      <point x="87" y="587" type="curve" smooth="yes"/>
      <point x="87" y="516"/>
      <point x="110" y="458"/>
      <point x="145" y="389" type="curve"/>
      <point x="64" y="329"/>
      <point x="32" y="262"/>
      <point x="32" y="173" type="curve" smooth="yes"/>
      <point x="32" y="63"/>
      <point x="83" y="-10"/>
      <point x="165" y="-10" type="curve" smooth="yes"/>
      <point x="231" y="-10"/>
      <point x="279" y="38"/>
      <point x="309" y="94" type="curve"/>
      <point x="360" y="0" type="line"/>
      <point x="386" y="0" type="line"/>
      <point x="322" y="117" type="line"/>
      <point x="348" y="166"/>
      <point x="367" y="245"/>
      <point x="366" y="305" type="curve"/>
      <point x="343" y="305" type="line"/>
      <point x="345" y="249"/>
      <point x="327" y="180"/>
      <point x="307" y="141" type="curve"/>
      <point x="175" y="379" type="line"/>
      <point x="234" y="422"/>
      <point x="267" y="489"/>
      <point x="267" y="581" type="curve" smooth="yes"/>
      <point x="267" y="679"/>
      <point x="230" y="724"/>
    </contour>
    <contour>
      <point x="156" y="367" type="curve"/>
      <point x="295" y="118" type="line"/>
      <point x="264" y="58"/>
      <point x="221" y="15"/>
      <point x="165" y="15" type="curve" smooth="yes"/>
      <point x="97" y="15"/>
      <point x="57" y="75"/>
      <point x="57" y="173" type="curve" smooth="yes"/>
      <point x="57" y="248"/>
      <point x="80" y="311"/>
    </contour>
    <contour>
      <point x="177" y="700" type="curve" smooth="yes"/>
      <point x="222" y="700"/>
      <point x="243" y="655"/>
      <point x="243" y="581" type="curve" smooth="yes"/>
      <point x="243" y="510"/>
      <point x="224" y="443"/>
      <point x="165" y="402" type="curve"/>
      <point x="136" y="455"/>
      <point x="110" y="517"/>
      <point x="110" y="587" type="curve" smooth="yes"/>
      <point x="110" y="656"/>
      <point x="133" y="700"/>
    </contour>
  </outline>
</glyph>
<glyph name="parenleft" format="2">
  <advance width="263"/>
  <unicode hex="0028"/>
  <outline>
    <contour>
      <point x="51" y="278" type="curve" smooth="yes"/>
      <point x="51" y="95"/>
      <point x="110" y="-55"/>
      <point x="194" y="-158" type="curve"/>
      <point x="223" y="-158" type="line"/>
      <point x="140" y="-53"/>
      <point x="78" y="99"/>
      <point x="78" y="278" type="curve" smooth="yes"/>
      <point x="78" y="449"/>
      <point x="134" y="600"/>
      <point x="223" y="714" type="curve"/>
      <point x="195" y="714" type="line"/>
      <point x="100" y="599"/>
      <point x="51" y="444"/>
    </contour>
  </outline>
</glyph>
<glyph name="parenright" format="2">
  <advance width="263"/>
  <unicode hex="0029"/>
  <outline>
    <contour>
      <point x="212" y="283" type="curve" smooth="yes"/>
      <point x="212" y="450"/>
      <point x="157" y="604"/>
      <point x="69" y="714" type="curve"/>
      <point x="40" y="714" type="line"/>
      <point x="122" y="606"/>
      <point x="185" y="450"/>
      <point x="185" y="282" type="curve" smooth="yes"/>
      <point x="185" y="120"/>
      <point x="126" y="-55"/>
      <point x="40" y="-158" type="curve"/>
      <point x="69" y="-158" type="line"/>
      <point x="159" y="-55"/>
      <point x="212" y="119"/>
    </contour>
  </outline>
</glyph>
<glyph name="asterisk" format="2">
  <advance width="339"/>
  <unicode hex="002A"/>
  <outline>
    <contour>
      <point x="182" y="760" type="line"/>
      <point x="161" y="760" type="line"/>
      <point x="164" y="634" type="line"/>
      <point x="52" y="677" type="line"/>
      <point x="45" y="660" type="line"/>
      <point x="158" y="618" type="line"/>
      <point x="73" y="516" type="line"/>
      <point x="89" y="504" type="line"/>
      <point x="171" y="608" type="line"/>
      <point x="250" y="504" type="line"/>
      <point x="265" y="517" type="line"/>
      <point x="184" y="618" type="line"/>
      <point x="293" y="660" type="line"/>
      <point x="287" y="678" type="line"/>
      <point x="178" y="634" type="line"/>
    </contour>
  </outline>
</glyph>
<glyph name="plus" format="2">
  <advance width="399"/>
  <unicode hex="002B"/>
  <outline>
    <contour>
      <point x="212" y="363" type="line"/>
      <point x="212" y="583" type="line"/>
      <point x="188" y="583" type="line"/>
      <point x="188" y="363" type="line"/>
      <point x="29" y="363" type="line"/>
      <point x="29" y="339" type="line"/>
      <point x="188" y="339" type="line"/>
      <point x="188" y="123" type="line"/>
      <point x="212" y="123" type="line"/>
      <point x="212" y="339" type="line"/>
      <point x="369" y="339" type="line"/>
      <point x="369" y="363" type="line"/>
    </contour>
  </outline>
</glyph>
<glyph name="comma" format="2">
  <advance width="176"/>
  <unicode hex="002C"/>
  <outline>
    <contour>
      <point x="120" y="88" type="curve"/>
      <point x="116" y="101" type="line"/>
      <point x="89" y="101" type="line"/>
      <point x="81" y="29"/>
      <point x="66" y="-38"/>
      <point x="38" y="-129" type="curve"/>
      <point x="60" y="-129" type="line"/>
      <point x="89" y="-58"/>
      <point x="109" y="26"/>
    </contour>
  </outline>
</glyph>
<glyph name="hyphen" format="2">
  <advance width="263"/>
  <unicode hex="002D"/>
  <outline>
    <contour>
      <point x="26" y="259" type="line"/>
      <point x="237" y="259" type="line"/>
      <point x="237" y="286" type="line"/>
      <point x="26" y="286" type="line"/>
    </contour>
  </outline>
</glyph>
<glyph name="period" format="2">
  <advance width="180"/>
  <unicode hex="002E"/>
  <outline>
    <contour>
      <point x="65" y="30" type="curve" smooth="yes"/>
      <point x="65" y="9"/>
      <point x="70" y="-6"/>
      <point x="90" y="-6" type="curve" smooth="yes"/>
      <point x="108" y="-6"/>
      <point x="116" y="7"/>
      <point x="116" y="30" type="curve" smooth="yes"/>
      <point x="116" y="53"/>
      <point x="109" y="65"/>
      <point x="90" y="65" type="curve" smooth="yes"/>
      <point x="70" y="65"/>
      <point x="65" y="49"/>
    </contour>
  </outline>
</glyph>
<glyph name="zero" format="2">
  <advance width="394"/>
  <unicode hex="0030"/>
  <outline>
    <contour>
      <point x="347" y="358" type="curve" smooth="yes"/>
      <point x="347" y="570"/>
      <point x="312" y="724"/>
      <point x="201" y="724" type="curve" smooth="yes"/>
      <point x="89" y="724"/>
      <point x="47" y="573"/>
      <point x="47" y="355" type="curve" smooth="yes"/>
      <point x="47" y="139"/>
      <point x="90" y="-6"/>
      <point x="201" y="-6" type="curve" smooth="yes"/>
      <point x="312" y="-6"/>
      <point x="347" y="142"/>
    </contour>
    <contour>
      <point x="74" y="358" type="curve" smooth="yes"/>
      <point x="74" y="559"/>
      <point x="109" y="699"/>
      <point x="201" y="699" type="curve" smooth="yes"/>
      <point x="291" y="699"/>
      <point x="320" y="554"/>
      <point x="320" y="357" type="curve" smooth="yes"/>
      <point x="320" y="160"/>
      <point x="292" y="19"/>
      <point x="202" y="19" type="curve" smooth="yes"/>
      <point x="111" y="19"/>
      <point x="74" y="157"/>
    </contour>
  </outline>
</glyph>
<glyph name="one" format="2">
  <advance width="394"/>
  <unicode hex="0031"/>
  <outline>
    <contour>
      <point x="239" y="0" type="line"/>
      <point x="239" y="714" type="line"/>
      <point x="217" y="714" type="line"/>
      <point x="77" y="588" type="line"/>
      <point x="94" y="569" type="line"/>
      <point x="173" y="640" type="line"/>
      <point x="189" y="654"/>
      <point x="200" y="664"/>
      <point x="213" y="681" type="curve"/>
      <point x="212" y="637"/>
      <point x="212" y="608"/>
      <point x="212" y="566" type="curve" smooth="yes"/>
      <point x="212" y="0" type="line"/>
    </contour>
  </outline>
</glyph>
<glyph name="two" format="2">
  <advance width="394"/>
  <unicode hex="0032"/>
  <outline>
    <contour>
      <point x="347" y="0" type="line"/>
      <point x="347" y="25" type="line"/>
      <point x="75" y="25" type="line"/>
      <point x="75" y="27" type="line"/>
      <point x="207" y="220" type="line" smooth="yes"/>
      <point x="276" y="320"/>
      <point x="330" y="416"/>
      <point x="330" y="539" type="curve" smooth="yes"/>
      <point x="330" y="661"/>
      <point x="274" y="724"/>
      <point x="183" y="724" type="curve" smooth="yes"/>
      <point x="133" y="724"/>
      <point x="87" y="705"/>
      <point x="55" y="681" type="curve"/>
      <point x="70" y="660" type="line"/>
      <point x="99" y="682"/>
      <point x="140" y="699"/>
      <point x="183" y="699" type="curve" smooth="yes"/>
      <point x="254" y="699"/>
      <point x="303" y="652"/>
      <point x="303" y="538" type="curve" smooth="yes"/>
      <point x="303" y="426"/>
      <point x="255" y="334"/>
      <point x="187" y="234" type="curve" smooth="yes"/>
      <point x="40" y="19" type="line"/>
      <point x="40" y="0" type="line"/>
    </contour>
  </outline>
</glyph>
<glyph name="three" format="2">
  <advance width="394"/>
  <unicode hex="0033"/>
  <outline>
    <contour>
      <point x="335" y="554" type="curve" smooth="yes"/>
      <point x="335" y="660"/>
      <point x="271" y="724"/>
      <point x="176" y="724" type="curve" smooth="yes"/>
      <point x="115" y="724"/>
      <point x="71" y="698"/>
      <point x="37" y="666" type="curve"/>
      <point x="53" y="647" type="line"/>
      <point x="86" y="677"/>
      <point x="125" y="699"/>
      <point x="176" y="699" type="curve" smooth="yes"/>
      <point x="255" y="699"/>
      <point x="308" y="646"/>
      <point x="308" y="554" type="curve" smooth="yes"/>
      <point x="308" y="447"/>
      <point x="239" y="383"/>
      <point x="157" y="383" type="curve" smooth="yes"/>
      <point x="113" y="383" type="line"/>
      <point x="113" y="358" type="line"/>
      <point x="155" y="358" type="line" smooth="yes"/>
      <point x="240" y="358"/>
      <point x="317" y="313"/>
      <point x="317" y="184" type="curve" smooth="yes"/>
      <point x="317" y="78"/>
      <point x="264" y="15"/>
      <point x="169" y="15" type="curve" smooth="yes"/>
      <point x="122" y="15"/>
      <point x="74" y="31"/>
      <point x="41" y="47" type="curve"/>
      <point x="41" y="19" type="line"/>
      <point x="79" y="1"/>
      <point x="124" y="-10"/>
      <point x="169" y="-10" type="curve" smooth="yes"/>
      <point x="288" y="-10"/>
      <point x="344" y="69"/>
      <point x="344" y="183" type="curve" smooth="yes"/>
      <point x="344" y="292"/>
      <point x="293" y="351"/>
      <point x="219" y="370" type="curve"/>
      <point x="219" y="373" type="line"/>
      <point x="276" y="394"/>
      <point x="335" y="453"/>
    </contour>
  </outline>
</glyph>
<glyph name="four" format="2">
  <advance width="394"/>
  <unicode hex="0034"/>
  <outline>
    <contour>
      <point x="384" y="176" type="line"/>
      <point x="384" y="201" type="line"/>
      <point x="294" y="201" type="line"/>
      <point x="294" y="718" type="line"/>
      <point x="266" y="718" type="line"/>
      <point x="14" y="201" type="line"/>
      <point x="14" y="176" type="line"/>
      <point x="268" y="176" type="line"/>
      <point x="268" y="0" type="line"/>
      <point x="294" y="0" type="line"/>
      <point x="294" y="176" type="line"/>
    </contour>
    <contour>
      <point x="268" y="617" type="curve" smooth="yes"/>
      <point x="268" y="201" type="line"/>
      <point x="42" y="201" type="line"/>
      <point x="224" y="576" type="line" smooth="yes"/>
      <point x="239" y="607"/>
      <point x="256" y="642"/>
      <point x="268" y="677" type="curve"/>
      <point x="269" y="677" type="line"/>
      <point x="268" y="655"/>
      <point x="268" y="642"/>
    </contour>
  </outline>
</glyph>
<glyph name="five" format="2">
  <advance width="394"/>
  <unicode hex="0035"/>
  <outline>
    <contour>
      <point x="182" y="425" type="curve" smooth="yes"/>
      <point x="141" y="425"/>
      <point x="104" y="416"/>
      <point x="82" y="408" type="curve"/>
      <point x="103" y="689" type="line"/>
      <point x="313" y="689" type="line"/>
      <point x="313" y="714" type="line"/>
      <point x="79" y="714" type="line"/>
      <point x="55" y="392" type="line"/>
      <point x="71" y="377" type="line"/>
      <point x="96" y="389"/>
      <point x="138" y="400"/>
      <point x="180" y="400" type="curve" smooth="yes"/>
      <point x="286" y="400"/>
      <point x="323" y="330"/>
      <point x="323" y="222" type="curve" smooth="yes"/>
      <point x="323" y="108"/>
      <point x="275" y="16"/>
      <point x="162" y="16" type="curve" smooth="yes"/>
      <point x="115" y="16"/>
      <point x="74" y="32"/>
      <point x="48" y="49" type="curve"/>
      <point x="48" y="19" type="line"/>
      <point x="75" y="3"/>
      <point x="117" y="-9"/>
      <point x="162" y="-9" type="curve" smooth="yes"/>
      <point x="292" y="-9"/>
      <point x="350" y="92"/>
      <point x="350" y="222" type="curve" smooth="yes"/>
      <point x="350" y="341"/>
      <point x="302" y="425"/>
    </contour>
  </outline>
</glyph>
<glyph name="six" format="2">
  <advance width="394"/>
  <unicode hex="0036"/>
  <outline>
    <contour>
      <point x="49" y="307" type="curve" smooth="yes"/>
      <point x="49" y="91"/>
      <point x="92" y="-14"/>
      <point x="204" y="-14" type="curve" smooth="yes"/>
      <point x="295" y="-14"/>
      <point x="350" y="71"/>
      <point x="350" y="217" type="curve" smooth="yes"/>
      <point x="350" y="347"/>
      <point x="306" y="436"/>
      <point x="207" y="436" type="curve" smooth="yes"/>
      <point x="120" y="436"/>
      <point x="85" y="369"/>
      <point x="77" y="334" type="curve"/>
      <point x="76" y="334" type="line"/>
      <point x="76" y="568"/>
      <point x="136" y="695"/>
      <point x="248" y="695" type="curve" smooth="yes"/>
      <point x="273" y="695"/>
      <point x="301" y="689"/>
      <point x="320" y="682" type="curve"/>
      <point x="320" y="707" type="line"/>
      <point x="303" y="715"/>
      <point x="274" y="720"/>
      <point x="248" y="720" type="curve" smooth="yes"/>
      <point x="137" y="720"/>
      <point x="49" y="626"/>
    </contour>
    <contour>
      <point x="202" y="11" type="curve" smooth="yes"/>
      <point x="94" y="11"/>
      <point x="78" y="162"/>
      <point x="78" y="237" type="curve" smooth="yes"/>
      <point x="78" y="345"/>
      <point x="125" y="411"/>
      <point x="206" y="411" type="curve" smooth="yes"/>
      <point x="294" y="411"/>
      <point x="323" y="333"/>
      <point x="323" y="219" type="curve" smooth="yes"/>
      <point x="323" y="82"/>
      <point x="282" y="11"/>
    </contour>
  </outline>
</glyph>
<glyph name="seven" format="2">
  <advance width="394"/>
  <unicode hex="0037"/>
  <outline>
    <contour>
      <point x="103" y="0" type="line"/>
      <point x="130" y="0" type="line"/>
      <point x="342" y="692" type="line"/>
      <point x="342" y="714" type="line"/>
      <point x="44" y="714" type="line"/>
      <point x="44" y="689" type="line"/>
      <point x="315" y="689" type="line"/>
    </contour>
  </outline>
</glyph>
<glyph name="eight" format="2">
  <advance width="394"/>
  <unicode hex="0038"/>
  <outline>
    <contour>
      <point x="199" y="723" type="curve" smooth="yes"/>
      <point x="109" y="723"/>
      <point x="53" y="656"/>
      <point x="53" y="567" type="curve" smooth="yes"/>
      <point x="53" y="482"/>
      <point x="102" y="426"/>
      <point x="173" y="379" type="curve"/>
      <point x="99" y="335"/>
      <point x="36" y="275"/>
      <point x="36" y="170" type="curve" smooth="yes"/>
      <point x="36" y="64"/>
      <point x="100" y="-10"/>
      <point x="196" y="-10" type="curve" smooth="yes"/>
      <point x="299" y="-10"/>
      <point x="357" y="70"/>
      <point x="357" y="172" type="curve" smooth="yes"/>
      <point x="357" y="268"/>
      <point x="295" y="329"/>
      <point x="217" y="378" type="curve"/>
      <point x="286" y="421"/>
      <point x="342" y="467"/>
      <point x="342" y="565" type="curve" smooth="yes"/>
      <point x="342" y="658"/>
      <point x="287" y="723"/>
    </contour>
    <contour>
      <point x="63" y="169" type="curve" smooth="yes"/>
      <point x="63" y="268"/>
      <point x="122" y="323"/>
      <point x="195" y="365" type="curve"/>
      <point x="209" y="356" type="line" smooth="yes"/>
      <point x="299" y="299"/>
      <point x="330" y="237"/>
      <point x="330" y="170" type="curve" smooth="yes"/>
      <point x="330" y="84"/>
      <point x="281" y="15"/>
      <point x="197" y="15" type="curve" smooth="yes"/>
      <point x="119" y="15"/>
      <point x="63" y="74"/>
    </contour>
    <contour>
      <point x="199" y="698" type="curve" smooth="yes"/>
      <point x="271" y="698"/>
      <point x="315" y="648"/>
      <point x="315" y="564" type="curve" smooth="yes"/>
      <point x="315" y="474"/>
      <point x="264" y="435"/>
      <point x="196" y="393" type="curve"/>
      <point x="123" y="438"/>
      <point x="80" y="490"/>
      <point x="80" y="566" type="curve" smooth="yes"/>
      <point x="80" y="646"/>
      <point x="124" y="698"/>
    </contour>
  </outline>
</glyph>
<glyph name="nine" format="2">
  <advance width="394"/>
  <unicode hex="0039"/>
  <outline>
    <contour>
      <point x="341" y="403" type="curve" smooth="yes"/>
      <point x="341" y="619"/>
      <point x="295" y="724"/>
      <point x="186" y="724" type="curve" smooth="yes"/>
      <point x="95" y="724"/>
      <point x="40" y="639"/>
      <point x="40" y="493" type="curve" smooth="yes"/>
      <point x="40" y="363"/>
      <point x="84" y="274"/>
      <point x="184" y="274" type="curve" smooth="yes"/>
      <point x="270" y="274"/>
      <point x="305" y="341"/>
      <point x="313" y="376" type="curve"/>
      <point x="314" y="376" type="line"/>
      <point x="314" y="142"/>
      <point x="254" y="15"/>
      <point x="142" y="15" type="curve" smooth="yes"/>
      <point x="117" y="15"/>
      <point x="89" y="21"/>
      <point x="70" y="28" type="curve"/>
      <point x="70" y="3" type="line"/>
      <point x="87" y="-5"/>
      <point x="116" y="-10"/>
      <point x="142" y="-10" type="curve" smooth="yes"/>
      <point x="253" y="-10"/>
      <point x="341" y="84"/>
    </contour>
    <contour>
      <point x="188" y="699" type="curve" smooth="yes"/>
      <point x="296" y="699"/>
      <point x="312" y="552"/>
      <point x="312" y="473" type="curve" smooth="yes"/>
      <point x="312" y="365"/>
      <point x="265" y="299"/>
      <point x="184" y="299" type="curve" smooth="yes"/>
      <point x="96" y="299"/>
      <point x="67" y="377"/>
      <point x="67" y="491" type="curve" smooth="yes"/>
      <point x="67" y="625"/>
      <point x="108" y="699"/>
    </contour>
  </outline>
</glyph>
<glyph name="semicolon" format="2">
  <advance width="177"/>
  <unicode hex="003B"/>
  <outline>
    <contour>
      <point x="121" y="88" type="curve"/>
      <point x="117" y="101" type="line"/>
      <point x="89" y="101" type="line"/>
      <point x="79" y="22"/>
      <point x="72" y="-13"/>
      <point x="38" y="-129" type="curve"/>
      <point x="59" y="-129" type="line"/>
      <point x="88" y="-58"/>
      <point x="110" y="26"/>
    </contour>
    <contour>
      <point x="70" y="497" type="curve" smooth="yes"/>
      <point x="70" y="476"/>
      <point x="75" y="461"/>
      <point x="95" y="461" type="curve" smooth="yes"/>
      <point x="113" y="461"/>
      <point x="121" y="474"/>
      <point x="121" y="497" type="curve" smooth="yes"/>
      <point x="121" y="520"/>
      <point x="114" y="532"/>
      <point x="95" y="532" type="curve" smooth="yes"/>
      <point x="75" y="532"/>
      <point x="70" y="516"/>
    </contour>
  </outline>
</glyph>
<glyph name="less" format="2">
  <advance width="399"/>
  <unicode hex="003C"/>
  <outline>
    <contour>
      <point x="369" y="148" type="line"/>
      <point x="369" y="176" type="line"/>
      <point x="58" y="366" type="line"/>
      <point x="369" y="530" type="line"/>
      <point x="369" y="558" type="line"/>
      <point x="29" y="377" type="line"/>
      <point x="29" y="355" type="line"/>
    </contour>
  </outline>
</glyph>
<glyph name="equal" format="2">
  <advance width="399"/>
  <unicode hex="003D"/>
  <outline>
    <contour>
      <point x="29" y="447" type="line"/>
      <point x="369" y="447" type="line"/>
      <point x="369" y="473" type="line"/>
      <point x="29" y="473" type="line"/>
    </contour>
    <contour>
      <point x="29" y="232" type="line"/>
      <point x="369" y="232" type="line"/>
      <point x="369" y="258" type="line"/>
      <point x="29" y="258" type="line"/>
    </contour>
  </outline>
</glyph>
<glyph name="greater" format="2">
  <advance width="399"/>
  <unicode hex="003E"/>
  <outline>
    <contour>
      <point x="29" y="176" type="line"/>
      <point x="29" y="148" type="line"/>
      <point x="369" y="355" type="line"/>
      <point x="369" y="377" type="line"/>
      <point x="29" y="558" type="line"/>
      <point x="29" y="530" type="line"/>
      <point x="342" y="365" type="line"/>
    </contour>
  </outline>
</glyph>
<glyph name="question" format="2">
  <advance width="263"/>
  <unicode hex="003F"/>
  <outline>
    <contour>
      <point x="85" y="193" type="curve" smooth="yes"/>
      <point x="85" y="170" type="line"/>
      <point x="109" y="170" type="line"/>
      <point x="109" y="192" type="line" smooth="yes"/>
      <point x="109" y="259"/>
      <point x="114" y="294"/>
      <point x="161" y="363" type="curve" smooth="yes"/>
      <point x="200" y="420"/>
      <point x="240" y="468"/>
      <point x="240" y="565" type="curve" smooth="yes"/>
      <point x="240" y="674"/>
      <point x="189" y="724"/>
      <point x="115" y="724" type="curve" smooth="yes"/>
      <point x="76" y="724"/>
      <point x="40" y="710"/>
      <point x="17" y="693" type="curve"/>
      <point x="30" y="672" type="line"/>
      <point x="54" y="689"/>
      <point x="83" y="699"/>
      <point x="114" y="699" type="curve" smooth="yes"/>
      <point x="177" y="699"/>
      <point x="213" y="657"/>
      <point x="213" y="567" type="curve" smooth="yes"/>
      <point x="213" y="483"/>
      <point x="182" y="437"/>
      <point x="138" y="373" type="curve" smooth="yes"/>
      <point x="96" y="312"/>
      <point x="85" y="274"/>
    </contour>
    <contour>
      <point x="72" y="29" type="curve" smooth="yes"/>
      <point x="72" y="9"/>
      <point x="77" y="-6"/>
      <point x="97" y="-6" type="curve" smooth="yes"/>
      <point x="115" y="-6"/>
      <point x="123" y="7"/>
      <point x="123" y="31" type="curve" smooth="yes"/>
      <point x="123" y="53"/>
      <point x="116" y="65"/>
      <point x="98" y="65" type="curve" smooth="yes"/>
      <point x="77" y="65"/>
      <point x="72" y="49"/>
    </contour>
  </outline>
</glyph>
<glyph name="at" format="2">
  <advance width="603"/>
  <unicode hex="0040"/>
  <outline>
    <contour>
      <point x="553" y="341" type="curve" smooth="yes"/>
      <point x="553" y="568"/>
      <point x="466" y="718"/>
      <point x="314" y="718" type="curve" smooth="yes"/>
      <point x="158" y="718"/>
      <point x="54" y="560"/>
      <point x="54" y="293" type="curve" smooth="yes"/>
      <point x="54" y="61"/>
      <point x="132" y="-92"/>
      <point x="292" y="-92" type="curve" smooth="yes"/>
      <point x="335" y="-92"/>
      <point x="377" y="-81"/>
      <point x="403" y="-63" type="curve"/>
      <point x="403" y="-36" type="line"/>
      <point x="379" y="-53"/>
      <point x="331" y="-66"/>
      <point x="290" y="-66" type="curve" smooth="yes"/>
      <point x="155" y="-66"/>
      <point x="81" y="69"/>
      <point x="81" y="292" type="curve" smooth="yes"/>
      <point x="81" y="537"/>
      <point x="170" y="693"/>
      <point x="313" y="693" type="curve" smooth="yes"/>
      <point x="445" y="693"/>
      <point x="526" y="562"/>
      <point x="526" y="341" type="curve" smooth="yes"/>
      <point x="526" y="196"/>
      <point x="491" y="138"/>
      <point x="443" y="138" type="curve" smooth="yes"/>
      <point x="404" y="138"/>
      <point x="384" y="177"/>
      <point x="384" y="239" type="curve" smooth="yes"/>
      <point x="384" y="258"/>
      <point x="386" y="293"/>
      <point x="387" y="313" type="curve" smooth="yes"/>
      <point x="395" y="499" type="line"/>
      <point x="382" y="504"/>
      <point x="353" y="513"/>
      <point x="327" y="513" type="curve" smooth="yes"/>
      <point x="251" y="513"/>
      <point x="197" y="435"/>
      <point x="197" y="288" type="curve" smooth="yes"/>
      <point x="197" y="169"/>
      <point x="232" y="112"/>
      <point x="285" y="112" type="curve" smooth="yes"/>
      <point x="322" y="112"/>
      <point x="352" y="140"/>
      <point x="366" y="219" type="curve"/>
      <point x="368" y="219" type="line"/>
      <point x="368" y="155"/>
      <point x="390" y="112"/>
      <point x="443" y="112" type="curve" smooth="yes"/>
      <point x="515" y="112"/>
      <point x="553" y="191"/>
    </contour>
    <contour>
      <point x="223" y="288" type="curve" smooth="yes"/>
      <point x="223" y="418"/>
      <point x="268" y="489"/>
      <point x="327" y="489" type="curve" smooth="yes"/>
      <point x="341" y="489"/>
      <point x="356" y="485"/>
      <point x="368" y="481" type="curve"/>
      <point x="360" y="325" type="line" smooth="yes"/>
      <point x="353" y="189"/>
      <point x="323" y="138"/>
      <point x="286" y="138" type="curve" smooth="yes"/>
      <point x="246" y="138"/>
      <point x="223" y="194"/>
    </contour>
  </outline>
</glyph>
<glyph name="A" format="2">
  <advance width="377"/>
  <unicode hex="0041"/>
  <anchor x="189" y="0" name="bottom"/>
  <anchor x="189" y="714" name="top"/>
  <anchor x="357" y="714" name="topright"/>
  <outline>
    <contour>
      <point x="351" y="0" type="line"/>
      <point x="377" y="0" type="line"/>
      <point x="208" y="714" type="line"/>
      <point x="170" y="714" type="line"/>
      <point x="0" y="0" type="line"/>
      <point x="26" y="0" type="line"/>
      <point x="94" y="281" type="line"/>
      <point x="284" y="281" type="line"/>
    </contour>
    <contour>
      <point x="208" y="612" type="curve" smooth="yes"/>
      <point x="278" y="306" type="line"/>
      <point x="100" y="306" type="line"/>
      <point x="170" y="612" type="line" smooth="yes"/>
      <point x="178" y="646"/>
      <point x="183" y="666"/>
      <point x="189" y="695" type="curve"/>
      <point x="195" y="666"/>
      <point x="200" y="645"/>
    </contour>
  </outline>
</glyph>
<glyph name="C" format="2">
  <advance width="415"/>
  <unicode hex="0043"/>
  <anchor x="258" y="0" name="bottom"/>
  <anchor x="268" y="714" name="top"/>
  <anchor x="395" y="714" name="topright"/>
  <outline>
    <contour>
      <point x="285" y="699" type="curve" smooth="yes"/>
      <point x="312" y="699"/>
      <point x="346" y="693"/>
      <point x="378" y="673" type="curve"/>
      <point x="391" y="696" type="line"/>
      <point x="357" y="715"/>
      <point x="323" y="724"/>
      <point x="285" y="724" type="curve" smooth="yes"/>
      <point x="117" y="724"/>
      <point x="54" y="548"/>
      <point x="54" y="358" type="curve" smooth="yes"/>
      <point x="54" y="131"/>
      <point x="147" y="-10"/>
      <point x="289" y="-10" type="curve" smooth="yes"/>
      <point x="327" y="-10"/>
      <point x="365" y="1"/>
      <point x="390" y="16" type="curve"/>
      <point x="390" y="43" type="line"/>
      <point x="370" y="31"/>
      <point x="334" y="15"/>
      <point x="289" y="15" type="curve" smooth="yes"/>
      <point x="161" y="15"/>
      <point x="81" y="154"/>
      <point x="81" y="357" type="curve" smooth="yes"/>
      <point x="81" y="529"/>
      <point x="136" y="699"/>
    </contour>
  </outline>
</glyph>
<glyph name="D" format="2">
  <advance width="472"/>
  <unicode hex="0044"/>
  <anchor x="236" y="0" name="bottom"/>
  <anchor x="236" y="357" name="center"/>
  <anchor x="236" y="714" name="top"/>
  <anchor x="452" y="714" name="topright"/>
  <outline>
    <contour>
      <point x="418" y="364" type="curve" smooth="yes"/>
      <point x="418" y="596"/>
      <point x="349" y="714"/>
      <point x="190" y="714" type="curve" smooth="yes"/>
      <point x="78" y="714" type="line"/>
      <point x="78" y="0" type="line"/>
      <point x="189" y="0" type="line" smooth="yes"/>
      <point x="349" y="0"/>
      <point x="418" y="124"/>
    </contour>
    <contour>
      <point x="391" y="362" type="curve" smooth="yes"/>
      <point x="391" y="141"/>
      <point x="331" y="25"/>
      <point x="187" y="25" type="curve" smooth="yes"/>
      <point x="104" y="25" type="line"/>
      <point x="104" y="689" type="line"/>
      <point x="188" y="689" type="line" smooth="yes"/>
      <point x="339" y="689"/>
      <point x="391" y="570"/>
    </contour>
  </outline>
</glyph>
<glyph name="E" format="2">
  <advance width="381"/>
  <unicode hex="0045"/>
  <anchor x="201" y="0" name="bottom"/>
  <anchor x="216" y="714" name="top"/>
  <anchor x="361" y="714" name="topright"/>
  <outline>
    <contour>
      <point x="333" y="0" type="line"/>
      <point x="333" y="25" type="line"/>
      <point x="104" y="25" type="line"/>
      <point x="104" y="363" type="line"/>
      <point x="320" y="363" type="line"/>
      <point x="320" y="388" type="line"/>
      <point x="104" y="388" type="line"/>
      <point x="104" y="689" type="line"/>
      <point x="333" y="689" type="line"/>
      <point x="333" y="714" type="line"/>
      <point x="78" y="714" type="line"/>
      <point x="78" y="0" type="line"/>
    </contour>
  </outline>
</glyph>
<glyph name="H" format="2">
  <advance width="486"/>
  <unicode hex="0048"/>
  <anchor x="243" y="0" name="bottom"/>
  <anchor x="243" y="357" name="center"/>
  <anchor x="243" y="714" name="top"/>
  <anchor x="466" y="714" name="topright"/>
  <outline>
    <contour>
      <point x="408" y="0" type="line"/>
      <point x="408" y="714" type="line"/>
      <point x="382" y="714" type="line"/>
      <point x="382" y="388" type="line"/>
      <point x="104" y="388" type="line"/>
      <point x="104" y="714" type="line"/>
      <point x="78" y="714" type="line"/>
      <point x="78" y="0" type="line"/>
      <point x="104" y="0" type="line"/>
      <point x="104" y="363" type="line"/>
      <point x="382" y="363" type="line"/>
      <point x="382" y="0" type="line"/>
    </contour>
  </outline>
</glyph>
<glyph name="I" format="2">
  <advance width="219"/>
  <unicode hex="0049"/>
  <anchor x="110" y="0" name="bottom"/>
  <anchor x="110" y="714" name="top"/>
  <anchor x="199" y="714" name="topright"/>
  <outline>
    <contour>
      <point x="181" y="0" type="line"/>
      <point x="181" y="19" type="line"/>
      <point x="123" y="22" type="line"/>
      <point x="123" y="691" type="line"/>
      <point x="181" y="695" type="line"/>
      <point x="181" y="714" type="line"/>
      <point x="38" y="714" type="line"/>
      <point x="38" y="695" type="line"/>
      <point x="98" y="691" type="line"/>
      <point x="98" y="22" type="line"/>
      <point x="38" y="19" type="line"/>
      <point x="38" y="0" type="line"/>
    </contour>
  </outline>
</glyph>
<glyph name="J" format="2">
  <advance width="186"/>
  <unicode hex="004A"/>
  <anchor x="13" y="-164" name="bottom"/>
  <anchor x="97" y="714" name="top"/>
  <anchor x="166" y="714" name="topright"/>
  <outline>
    <contour>
      <point x="13" y="-175" type="curve" smooth="yes"/>
      <point x="84" y="-175"/>
      <point x="110" y="-129"/>
      <point x="110" y="-30" type="curve" smooth="yes"/>
      <point x="110" y="714" type="line"/>
      <point x="84" y="714" type="line"/>
      <point x="84" y="-23" type="line" smooth="yes"/>
      <point x="84" y="-102"/>
      <point x="71" y="-149"/>
      <point x="13" y="-149" type="curve" smooth="yes"/>
      <point x="-7" y="-149"/>
      <point x="-26" y="-144"/>
      <point x="-45" y="-138" type="curve"/>
      <point x="-45" y="-163" type="line"/>
      <point x="-28" y="-171"/>
      <point x="-8" y="-175"/>
    </contour>
  </outline>
</glyph>
<glyph name="K" format="2">
  <advance width="379"/>
  <unicode hex="004B"/>
  <anchor x="200" y="0" name="bottom"/>
  <anchor x="200" y="714" name="top"/>
  <anchor x="359" y="714" name="topright"/>
  <outline>
    <contour>
      <point x="380" y="0" type="line"/>
      <point x="182" y="401" type="line"/>
      <point x="369" y="714" type="line"/>
      <point x="340" y="714" type="line"/>
      <point x="160" y="414" type="line" smooth="yes"/>
      <point x="132" y="368"/>
      <point x="112" y="336"/>
      <point x="104" y="318" type="curve"/>
      <point x="104" y="714" type="line"/>
      <point x="78" y="714" type="line"/>
      <point x="78" y="0" type="line"/>
      <point x="104" y="0" type="line"/>
      <point x="104" y="282" type="line"/>
      <point x="165" y="376" type="line"/>
      <point x="352" y="0" type="line"/>
    </contour>
  </outline>
</glyph>
<glyph name="L" format="2">
  <advance width="341"/>
  <unicode hex="004C"/>
  <anchor x="191" y="0" name="bottom"/>
  <anchor x="171" y="357" name="center"/>
  <anchor x="90" y="714" name="top"/>
  <anchor x="251" y="714" name="topright"/>
  <outline>
    <contour>
      <point x="78" y="0" type="line"/>
      <point x="322" y="0" type="line"/>
      <point x="322" y="25" type="line"/>
      <point x="104" y="25" type="line"/>
      <point x="104" y="714" type="line"/>
      <point x="78" y="714" type="line"/>
    </contour>
  </outline>
</glyph>
<glyph name="M" format="2">
  <advance width="652"/>
  <unicode hex="004D"/>
  <anchor x="326" y="0" name="bottom"/>
  <anchor x="326" y="714" name="top"/>
  <anchor x="632" y="714" name="topright"/>
  <outline>
    <contour>
      <point x="306" y="0" type="line"/>
      <point x="345" y="0" type="line"/>
      <point x="547" y="667" type="line"/>
      <point x="549" y="667" type="line"/>
      <point x="549" y="606"/>
      <point x="549" y="584"/>
      <point x="549" y="575" type="curve" smooth="yes"/>
      <point x="549" y="0" type="line"/>
      <point x="575" y="0" type="line"/>
      <point x="575" y="714" type="line"/>
      <point x="535" y="714" type="line"/>
      <point x="327" y="32" type="line"/>
      <point x="324" y="32" type="line"/>
      <point x="116" y="714" type="line"/>
      <point x="78" y="714" type="line"/>
      <point x="78" y="0" type="line"/>
      <point x="104" y="0" type="line"/>
      <point x="104" y="579" type="line" smooth="yes"/>
      <point x="104" y="588"/>
      <point x="104" y="607"/>
      <point x="102" y="668" type="curve"/>
      <point x="104" y="668" type="line"/>
    </contour>
  </outline>
</glyph>
<glyph name="N" format="2">
  <advance width="504"/>
  <unicode hex="004E"/>
  <anchor x="252" y="0" name="bottom"/>
  <anchor x="252" y="714" name="top"/>
  <anchor x="484" y="714" name="topright"/>
  <outline>
    <contour>
      <point x="427" y="0" type="line"/>
      <point x="427" y="714" type="line"/>
      <point x="401" y="714" type="line"/>
      <point x="401" y="181" type="line" smooth="yes"/>
      <point x="401" y="152"/>
      <point x="402" y="99"/>
      <point x="402" y="54" type="curve"/>
      <point x="400" y="54" type="line"/>
      <point x="109" y="714" type="line"/>
      <point x="78" y="714" type="line"/>
      <point x="78" y="0" type="line"/>
      <point x="104" y="0" type="line"/>
      <point x="104" y="548" type="line" smooth="yes"/>
      <point x="104" y="604"/>
      <point x="104" y="637"/>
      <point x="103" y="664" type="curve"/>
      <point x="105" y="664" type="line"/>
      <point x="397" y="0" type="line"/>
    </contour>
  </outline>
</glyph>
<glyph name="P" format="2">
  <advance width="395"/>
  <unicode hex="0050"/>
  <anchor x="198" y="0" name="bottom"/>
  <anchor x="198" y="714" name="top"/>
  <anchor x="375" y="714" name="topright"/>
  <outline>
    <contour>
      <point x="172" y="714" type="curve" smooth="yes"/>
      <point x="78" y="714" type="line"/>
      <point x="78" y="0" type="line"/>
      <point x="104" y="0" type="line"/>
      <point x="104" y="306" type="line"/>
      <point x="172" y="306" type="line" smooth="yes"/>
      <point x="303" y="306"/>
      <point x="362" y="366"/>
      <point x="362" y="519" type="curve" smooth="yes"/>
      <point x="362" y="663"/>
      <point x="300" y="714"/>
    </contour>
    <contour>
      <point x="171" y="689" type="line"/>
      <point x="282" y="689"/>
      <point x="335" y="645"/>
      <point x="335" y="520" type="curve" smooth="yes"/>
      <point x="335" y="385"/>
      <point x="285" y="331"/>
      <point x="178" y="331" type="curve" smooth="yes"/>
      <point x="104" y="331" type="line"/>
      <point x="104" y="689" type="line"/>
    </contour>
  </outline>
</glyph>
<glyph name="Q" format="2">
  <advance width="511"/>
  <unicode hex="0051"/>
  <anchor x="256" y="0" name="bottom"/>
  <anchor x="256" y="714" name="top"/>
  <anchor x="491" y="714" name="topright"/>
  <outline>
    <contour>
      <point x="457" y="358" type="curve" smooth="yes"/>
      <point x="457" y="614"/>
      <point x="379" y="724"/>
      <point x="261" y="724" type="curve" smooth="yes"/>
      <point x="125" y="724"/>
      <point x="54" y="602"/>
      <point x="54" y="359" type="curve" smooth="yes"/>
      <point x="54" y="153"/>
      <point x="109" y="-10"/>
      <point x="255" y="-10" type="curve" smooth="yes"/>
      <point x="264" y="-10"/>
      <point x="274" y="-10"/>
      <point x="287" y="-8" type="curve"/>
      <point x="366" y="-170" type="line"/>
      <point x="395" y="-170" type="line"/>
      <point x="312" y="-1" type="line"/>
      <point x="406" y="31"/>
      <point x="457" y="143"/>
    </contour>
    <contour>
      <point x="80" y="359" type="curve" smooth="yes"/>
      <point x="80" y="573"/>
      <point x="135" y="699"/>
      <point x="261" y="699" type="curve" smooth="yes"/>
      <point x="372" y="699"/>
      <point x="431" y="580"/>
      <point x="431" y="358" type="curve" smooth="yes"/>
      <point x="431" y="137"/>
      <point x="375" y="15"/>
      <point x="256" y="15" type="curve" smooth="yes"/>
      <point x="142" y="15"/>
      <point x="80" y="140"/>
    </contour>
  </outline>
</glyph>
<glyph name="R" format="2">
  <advance width="404"/>
  <unicode hex="0052"/>
  <anchor x="212" y="0" name="bottom"/>
  <anchor x="202" y="714" name="top"/>
  <anchor x="384" y="714" name="topright"/>
  <outline>
    <contour>
      <point x="169" y="714" type="curve" smooth="yes"/>
      <point x="78" y="714" type="line"/>
      <point x="78" y="0" type="line"/>
      <point x="104" y="0" type="line"/>
      <point x="104" y="322" type="line"/>
      <point x="208" y="322" type="line"/>
      <point x="354" y="0" type="line"/>
      <point x="384" y="0" type="line"/>
      <point x="234" y="328" type="line"/>
      <point x="320" y="349"/>
      <point x="363" y="413"/>
      <point x="363" y="525" type="curve" smooth="yes"/>
      <point x="363" y="668"/>
      <point x="292" y="714"/>
    </contour>
    <contour>
      <point x="166" y="689" type="line"/>
      <point x="290" y="689"/>
      <point x="337" y="642"/>
      <point x="337" y="527" type="curve" smooth="yes"/>
      <point x="337" y="398"/>
      <point x="278" y="348"/>
      <point x="190" y="348" type="curve" smooth="yes"/>
      <point x="104" y="348" type="line"/>
      <point x="104" y="689" type="line"/>
    </contour>
  </outline>
</glyph>
<glyph name="S" format="2">
  <advance width="389"/>
  <unicode hex="0053"/>
  <anchor x="195" y="0" name="bottom"/>
  <anchor x="195" y="714" name="top"/>
  <anchor x="369" y="714" name="topright"/>
  <outline>
    <contour>
      <point x="346" y="185" type="curve" smooth="yes"/>
      <point x="346" y="299"/>
      <point x="292" y="327"/>
      <point x="201" y="376" type="curve" smooth="yes"/>
      <point x="132" y="413"/>
      <point x="74" y="447"/>
      <point x="74" y="545" type="curve" smooth="yes"/>
      <point x="74" y="640"/>
      <point x="125" y="699"/>
      <point x="219" y="699" type="curve" smooth="yes"/>
      <point x="246" y="699"/>
      <point x="287" y="694"/>
      <point x="326" y="674" type="curve"/>
      <point x="337" y="696" type="line"/>
      <point x="310" y="711"/>
      <point x="264" y="724"/>
      <point x="219" y="724" type="curve" smooth="yes"/>
      <point x="117" y="724"/>
      <point x="47" y="663"/>
      <point x="47" y="545" type="curve" smooth="yes"/>
      <point x="47" y="431"/>
      <point x="113" y="395"/>
      <point x="189" y="354" type="curve" smooth="yes"/>
      <point x="277" y="307"/>
      <point x="319" y="280"/>
      <point x="319" y="185" type="curve" smooth="yes"/>
      <point x="319" y="82"/>
      <point x="272" y="16"/>
      <point x="172" y="16" type="curve" smooth="yes"/>
      <point x="129" y="16"/>
      <point x="77" y="28"/>
      <point x="42" y="44" type="curve"/>
      <point x="42" y="15" type="line"/>
      <point x="81" y="-2"/>
      <point x="134" y="-10"/>
      <point x="172" y="-10" type="curve" smooth="yes"/>
      <point x="284" y="-10"/>
      <point x="346" y="59"/>
    </contour>
  </outline>
</glyph>
<glyph name="U" format="2">
  <advance width="486"/>
  <unicode hex="0055"/>
  <anchor x="243" y="0" name="bottom"/>
  <anchor x="243" y="714" name="top"/>
  <anchor x="466" y="714" name="topright"/>
  <outline>
    <contour>
      <point x="414" y="217" type="curve" smooth="yes"/>
      <point x="414" y="714" type="line"/>
      <point x="388" y="714" type="line"/>
      <point x="388" y="221" type="line" smooth="yes"/>
      <point x="388" y="63"/>
      <point x="328" y="15"/>
      <point x="243" y="15" type="curve" smooth="yes"/>
      <point x="152" y="15"/>
      <point x="98" y="71"/>
      <point x="98" y="221" type="curve" smooth="yes"/>
      <point x="98" y="714" type="line"/>
      <point x="72" y="714" type="line"/>
      <point x="72" y="217" type="line" smooth="yes"/>
      <point x="72" y="59"/>
      <point x="133" y="-10"/>
      <point x="243" y="-10" type="curve" smooth="yes"/>
      <point x="338" y="-10"/>
      <point x="414" y="42"/>
    </contour>
  </outline>
</glyph>
<glyph name="V" format="2">
  <advance width="366"/>
  <unicode hex="0056"/>
  <anchor x="183" y="0" name="bottom"/>
  <anchor x="183" y="714" name="top"/>
  <anchor x="346" y="714" name="topright"/>
  <outline>
    <contour>
      <point x="366" y="714" type="line"/>
      <point x="340" y="714" type="line"/>
      <point x="205" y="136" type="line" smooth="yes"/>
      <point x="196" y="99"/>
      <point x="190" y="69"/>
      <point x="182" y="31" type="curve"/>
      <point x="175" y="69"/>
      <point x="168" y="98"/>
      <point x="159" y="136" type="curve" smooth="yes"/>
      <point x="25" y="714" type="line"/>
      <point x="0" y="714" type="line"/>
      <point x="165" y="0" type="line"/>
      <point x="198" y="0" type="line"/>
    </contour>
  </outline>
</glyph>
<glyph name="W" format="2">
  <advance width="647"/>
  <unicode hex="0057"/>
  <anchor x="324" y="0" name="bottom"/>
  <anchor x="324" y="714" name="top"/>
  <anchor x="627" y="714" name="topright"/>
  <outline>
    <contour>
      <point x="642" y="714" type="line"/>
      <point x="614" y="714" type="line"/>
      <point x="492" y="151" type="line" smooth="yes"/>
      <point x="483" y="111"/>
      <point x="475" y="72"/>
      <point x="467" y="26" type="curve"/>
      <point x="459" y="77"/>
      <point x="455" y="103"/>
      <point x="446" y="151" type="curve" smooth="yes"/>
      <point x="335" y="714" type="line"/>
      <point x="309" y="714" type="line"/>
      <point x="198" y="151" type="line" smooth="yes"/>
      <point x="195" y="134"/>
      <point x="184" y="75"/>
      <point x="176" y="29" type="curve"/>
      <point x="173" y="48"/>
      <point x="166" y="89"/>
      <point x="153" y="151" type="curve" smooth="yes"/>
      <point x="32" y="714" type="line"/>
      <point x="5" y="714" type="line"/>
      <point x="157" y="0" type="line"/>
      <point x="195" y="0" type="line"/>
      <point x="306" y="561" type="line" smooth="yes"/>
      <point x="313" y="597"/>
      <point x="317" y="616"/>
      <point x="322" y="661" type="curve"/>
      <point x="328" y="616"/>
      <point x="331" y="597"/>
      <point x="338" y="561" type="curve" smooth="yes"/>
      <point x="449" y="0" type="line"/>
      <point x="485" y="0" type="line"/>
    </contour>
  </outline>
</glyph>
<glyph name="Z" format="2">
  <advance width="323"/>
  <unicode hex="005A"/>
  <anchor x="162" y="0" name="bottom"/>
  <anchor x="162" y="714" name="top"/>
  <anchor x="303" y="714" name="topright"/>
  <outline>
    <contour>
      <point x="303" y="0" type="line"/>
      <point x="303" y="25" type="line"/>
      <point x="57" y="25" type="line"/>
      <point x="296" y="689" type="line"/>
      <point x="296" y="714" type="line"/>
      <point x="40" y="714" type="line"/>
      <point x="40" y="689" type="line"/>
      <point x="269" y="689" type="line"/>
      <point x="28" y="24" type="line"/>
      <point x="28" y="0" type="line"/>
    </contour>
  </outline>
</glyph>
<glyph name="bracketright" format="2">
  <advance width="306"/>
  <unicode hex="005D"/>
  <outline>
    <contour>
      <point x="36" y="-134" type="line"/>
      <point x="36" y="-158" type="line"/>
      <point x="222" y="-158" type="line"/>
      <point x="222" y="714" type="line"/>
      <point x="36" y="714" type="line"/>
      <point x="36" y="690" type="line"/>
      <point x="197" y="690" type="line"/>
      <point x="197" y="-134" type="line"/>
    </contour>
  </outline>
</glyph>
<glyph name="asciicircum" format="2">
  <advance width="395"/>
  <unicode hex="005E"/>
  <outline>
    <contour>
      <point x="18" y="372" type="line"/>
      <point x="49" y="372" type="line"/>
      <point x="204" y="681" type="line"/>
      <point x="346" y="372" type="line"/>
      <point x="378" y="372" type="line"/>
      <point x="217" y="713" type="line"/>
      <point x="193" y="713" type="line"/>
    </contour>
  </outline>
</glyph>
<glyph name="grave" format="2">
  <advance width="225"/>
  <unicode hex="0060"/>
  <outline>
    <contour>
      <point x="71" y="763" type="curve"/>
      <point x="40" y="763" type="line"/>
      <point x="40" y="756" type="line"/>
      <point x="73" y="705"/>
      <point x="131" y="644"/>
      <point x="169" y="606" type="curve"/>
      <point x="185" y="606" type="line"/>
      <point x="185" y="617" type="line"/>
      <point x="146" y="663"/>
      <point x="106" y="708"/>
    </contour>
  </outline>
</glyph>
<glyph name="c" format="2">
  <advance width="313"/>
  <unicode hex="0063"/>
  <anchor x="197" y="0" name="bottom"/>
  <anchor x="207" y="527" name="top"/>
  <anchor x="293" y="527" name="topright"/>
  <outline>
    <contour>
      <point x="212" y="-10" type="curve" smooth="yes"/>
      <point x="239" y="-10"/>
      <point x="270" y="-4"/>
      <point x="292" y="6" type="curve"/>
      <point x="292" y="32" type="line"/>
      <point x="267" y="21"/>
      <point x="240" y="15"/>
      <point x="215" y="15" type="curve" smooth="yes"/>
      <point x="114" y="15"/>
      <point x="73" y="114"/>
      <point x="73" y="257" type="curve" smooth="yes"/>
      <point x="73" y="427"/>
      <point x="130" y="512"/>
      <point x="222" y="512" type="curve" smooth="yes"/>
      <point x="244" y="512"/>
      <point x="265" y="507"/>
      <point x="283" y="496" type="curve"/>
      <point x="293" y="519" type="line"/>
      <point x="272" y="531"/>
      <point x="248" y="537"/>
      <point x="221" y="537" type="curve" smooth="yes"/>
      <point x="113" y="537"/>
      <point x="47" y="440"/>
      <point x="47" y="256" type="curve" smooth="yes"/>
      <point x="47" y="93"/>
      <point x="99" y="-10"/>
    </contour>
  </outline>
</glyph>
<glyph name="f" format="2">
  <advance width="211"/>
  <unicode hex="0066"/>
  <anchor x="93" y="0" name="bottom"/>
  <anchor x="156" y="765" name="top"/>
  <anchor x="258" y="752" name="topright"/>
  <outline>
    <contour>
      <point x="183" y="502" type="line"/>
      <point x="183" y="527" type="line"/>
      <point x="106" y="527" type="line"/>
      <point x="106" y="598" type="line" smooth="yes"/>
      <point x="106" y="701"/>
      <point x="123" y="741"/>
      <point x="177" y="741" type="curve" smooth="yes"/>
      <point x="193" y="741"/>
      <point x="211" y="738"/>
      <point x="226" y="730" type="curve"/>
      <point x="236" y="752" type="line"/>
      <point x="222" y="759"/>
      <point x="202" y="765"/>
      <point x="178" y="765" type="curve" smooth="yes"/>
      <point x="105" y="765"/>
      <point x="80" y="715"/>
      <point x="80" y="605" type="curve" smooth="yes"/>
      <point x="80" y="528" type="line"/>
      <point x="10" y="523" type="line"/>
      <point x="10" y="502" type="line"/>
      <point x="80" y="502" type="line"/>
      <point x="80" y="0" type="line"/>
      <point x="106" y="0" type="line"/>
      <point x="106" y="502" type="line"/>
    </contour>
  </outline>
</glyph>
<glyph name="g" format="2">
  <advance width="422"/>
  <unicode hex="0067"/>
  <anchor x="192" y="-242" name="bottom"/>
  <anchor x="201" y="527" name="top"/>
  <anchor x="402" y="527" name="topright"/>
  <outline>
    <contour>
      <point x="202" y="537" type="curve" smooth="yes"/>
      <point x="92" y="537"/>
      <point x="46" y="433"/>
      <point x="46" y="262" type="curve" smooth="yes"/>
      <point x="46" y="76"/>
      <point x="100" y="-10"/>
      <point x="195" y="-10" type="curve" smooth="yes"/>
      <point x="266" y="-10"/>
      <point x="311" y="43"/>
      <point x="326" y="111" type="curve"/>
      <point x="329" y="111" type="line"/>
      <point x="326" y="70"/>
      <point x="326" y="43"/>
      <point x="326" y="12" type="curve" smooth="yes"/>
      <point x="326" y="-35" type="line" smooth="yes"/>
      <point x="326" y="-163"/>
      <point x="275" y="-217"/>
      <point x="175" y="-217" type="curve" smooth="yes"/>
      <point x="130" y="-217"/>
      <point x="98" y="-205"/>
      <point x="62" y="-184" type="curve"/>
      <point x="62" y="-212" type="line"/>
      <point x="95" y="-232"/>
      <point x="132" y="-242"/>
      <point x="175" y="-242" type="curve" smooth="yes"/>
      <point x="297" y="-242"/>
      <point x="352" y="-173"/>
      <point x="352" y="-35" type="curve" smooth="yes"/>
      <point x="352" y="527" type="line"/>
      <point x="332" y="527" type="line"/>
      <point x="329" y="440" type="line"/>
      <point x="326" y="440" type="line"/>
      <point x="311" y="489"/>
      <point x="276" y="537"/>
    </contour>
    <contour>
      <point x="202" y="512" type="curve" smooth="yes"/>
      <point x="291" y="512"/>
      <point x="326" y="426"/>
      <point x="326" y="329" type="curve" smooth="yes"/>
      <point x="326" y="221" type="line" smooth="yes"/>
      <point x="326" y="126"/>
      <point x="291" y="15"/>
      <point x="195" y="15" type="curve" smooth="yes"/>
      <point x="114" y="15"/>
      <point x="72" y="93"/>
      <point x="72" y="262" type="curve" smooth="yes"/>
      <point x="72" y="411"/>
      <point x="107" y="512"/>
    </contour>
  </outline>
</glyph>
<glyph name="h" format="2">
  <advance width="408"/>
  <unicode hex="0068"/>
  <anchor x="204" y="0" name="bottom"/>
  <anchor x="204" y="264" name="center"/>
  <anchor x="84" y="760" name="top"/>
  <anchor x="326" y="759" name="topright"/>
  <outline>
    <contour>
      <point x="97" y="492" type="curve" smooth="yes"/>
      <point x="97" y="760" type="line"/>
      <point x="71" y="760" type="line"/>
      <point x="71" y="0" type="line"/>
      <point x="97" y="0" type="line"/>
      <point x="97" y="298" type="line" smooth="yes"/>
      <point x="97" y="447"/>
      <point x="158" y="512"/>
      <point x="223" y="512" type="curve" smooth="yes"/>
      <point x="275" y="512"/>
      <point x="313" y="472"/>
      <point x="313" y="360" type="curve" smooth="yes"/>
      <point x="313" y="0" type="line"/>
      <point x="339" y="0" type="line"/>
      <point x="339" y="366" type="line" smooth="yes"/>
      <point x="339" y="481"/>
      <point x="298" y="537"/>
      <point x="224" y="537" type="curve" smooth="yes"/>
      <point x="147" y="537"/>
      <point x="113" y="475"/>
      <point x="97" y="424" type="curve"/>
      <point x="95" y="424" type="line"/>
      <point x="97" y="446"/>
      <point x="97" y="461"/>
    </contour>
  </outline>
</glyph>
<glyph name="i" format="2">
  <advance width="177"/>
  <unicode hex="0069"/>
  <anchor x="89" y="0" name="bottom"/>
  <anchor x="89" y="724" name="top"/>
  <anchor x="157" y="724" name="topright"/>
  <outline>
    <contour>
      <point x="103" y="527" type="line"/>
      <point x="77" y="527" type="line"/>
      <point x="77" y="0" type="line"/>
      <point x="103" y="0" type="line"/>
    </contour>
    <contour>
      <point x="91" y="724" type="curve" smooth="yes"/>
      <point x="71" y="724"/>
      <point x="65" y="706"/>
      <point x="65" y="690" type="curve" smooth="yes"/>
      <point x="65" y="672"/>
      <point x="73" y="656"/>
      <point x="90" y="656" type="curve" smooth="yes"/>
      <point x="106" y="656"/>
      <point x="116" y="670"/>
      <point x="116" y="691" type="curve" smooth="yes"/>
      <point x="116" y="707"/>
      <point x="110" y="724"/>
    </contour>
  </outline>
</glyph>
<glyph name="j" format="2">
  <advance width="177"/>
  <unicode hex="006A"/>
  <anchor x="28" y="-242" name="bottom"/>
  <anchor x="89" y="724" name="top"/>
  <anchor x="157" y="724" name="topright"/>
  <outline>
    <contour>
      <point x="27" y="-242" type="curve" smooth="yes"/>
      <point x="69" y="-242"/>
      <point x="100" y="-216"/>
      <point x="100" y="-125" type="curve" smooth="yes"/>
      <point x="100" y="527" type="line"/>
      <point x="74" y="527" type="line"/>
      <point x="74" y="-117" type="line" smooth="yes"/>
      <point x="74" y="-184"/>
      <point x="62" y="-216"/>
      <point x="26" y="-216" type="curve" smooth="yes"/>
      <point x="16" y="-216"/>
      <point x="5" y="-213"/>
      <point x="-2" y="-209" type="curve"/>
      <point x="-2" y="-236" type="line"/>
      <point x="4" y="-239"/>
      <point x="13" y="-242"/>
    </contour>
    <contour>
      <point x="64" y="690" type="curve" smooth="yes"/>
      <point x="64" y="672"/>
      <point x="72" y="656"/>
      <point x="89" y="656" type="curve" smooth="yes"/>
      <point x="105" y="656"/>
      <point x="115" y="670"/>
      <point x="115" y="691" type="curve" smooth="yes"/>
      <point x="115" y="707"/>
      <point x="109" y="724"/>
      <point x="90" y="724" type="curve" smooth="yes"/>
      <point x="70" y="724"/>
      <point x="64" y="706"/>
    </contour>
  </outline>
</glyph>
<glyph name="k" format="2">
  <advance width="324"/>
  <unicode hex="006B"/>
  <anchor x="162" y="0" name="bottom"/>
  <anchor x="84" y="760" name="top"/>
  <anchor x="244" y="800" name="topright"/>
  <outline>
    <contour>
      <point x="97" y="361" type="curve" smooth="yes"/>
      <point x="97" y="760" type="line"/>
      <point x="71" y="760" type="line"/>
      <point x="71" y="0" type="line"/>
      <point x="97" y="0" type="line"/>
      <point x="97" y="197" type="line"/>
      <point x="167" y="304" type="line"/>
      <point x="291" y="0" type="line"/>
      <point x="317" y="0" type="line"/>
      <point x="184" y="329" type="line"/>
      <point x="304" y="527" type="line"/>
      <point x="276" y="527" type="line"/>
      <point x="128" y="285" type="line" smooth="yes"/>
      <point x="116" y="266"/>
      <point x="110" y="255"/>
      <point x="97" y="233" type="curve"/>
      <point x="96" y="233" type="line"/>
      <point x="97" y="278"/>
      <point x="97" y="314"/>
    </contour>
  </outline>
</glyph>
<glyph name="l" format="2">
  <advance width="167"/>
  <unicode hex="006C"/>
  <anchor x="84" y="0" name="bottom"/>
  <anchor x="84" y="264" name="center"/>
  <anchor x="84" y="760" name="top"/>
  <anchor x="118" y="760" name="topright"/>
  <outline>
    <contour>
      <point x="97" y="0" type="line"/>
      <point x="97" y="760" type="line"/>
      <point x="71" y="760" type="line"/>
      <point x="71" y="0" type="line"/>
    </contour>
  </outline>
</glyph>
<glyph name="m" format="2">
  <advance width="608"/>
  <unicode hex="006D"/>
  <anchor x="306" y="0" name="bottom"/>
  <anchor x="304" y="527" name="top"/>
  <anchor x="588" y="527" name="topright"/>
  <outline>
    <contour>
      <point x="429" y="537" type="curve" smooth="yes"/>
      <point x="363" y="537"/>
      <point x="333" y="491"/>
      <point x="313" y="431" type="curve"/>
      <point x="310" y="431" type="line"/>
      <point x="303" y="486"/>
      <point x="277" y="537"/>
      <point x="209" y="537" type="curve" smooth="yes"/>
      <point x="134" y="537"/>
      <point x="110" y="474"/>
      <point x="95" y="428" type="curve"/>
      <point x="93" y="428" type="line"/>
      <point x="90" y="527" type="line"/>
      <point x="71" y="527" type="line"/>
      <point x="71" y="0" type="line"/>
      <point x="97" y="0" type="line"/>
      <point x="97" y="337" type="line" smooth="yes"/>
      <point x="97" y="422"/>
      <point x="132" y="513"/>
      <point x="209" y="513" type="curve" smooth="yes"/>
      <point x="256" y="513"/>
      <point x="293" y="479"/>
      <point x="293" y="355" type="curve" smooth="yes"/>
      <point x="293" y="0" type="line"/>
      <point x="319" y="0" type="line"/>
      <point x="319" y="341" type="line" smooth="yes"/>
      <point x="319" y="444"/>
      <point x="363" y="513"/>
      <point x="428" y="513" type="curve" smooth="yes"/>
      <point x="476" y="513"/>
      <point x="513" y="475"/>
      <point x="513" y="372" type="curve" smooth="yes"/>
      <point x="513" y="0" type="line"/>
      <point x="539" y="0" type="line"/>
      <point x="539" y="374" type="line" smooth="yes"/>
      <point x="539" y="487"/>
      <point x="497" y="537"/>
    </contour>
  </outline>
</glyph>
<glyph name="p" format="2">
  <advance width="423"/>
  <unicode hex="0070"/>
  <anchor x="84" y="-232" name="bottom"/>
  <anchor x="212" y="527" name="top"/>
  <anchor x="403" y="527" name="topright"/>
  <outline>
    <contour>
      <point x="228" y="537" type="curve" smooth="yes"/>
      <point x="143" y="537"/>
      <point x="110" y="472"/>
      <point x="93" y="404" type="curve"/>
      <point x="91" y="404" type="line"/>
      <point x="90" y="527" type="line"/>
      <point x="71" y="527" type="line"/>
      <point x="71" y="-232" type="line"/>
      <point x="97" y="-232" type="line"/>
      <point x="97" y="37" type="line"/>
      <point x="97" y="69"/>
      <point x="96" y="95"/>
      <point x="95" y="107" type="curve"/>
      <point x="98" y="107" type="line"/>
      <point x="111" y="53"/>
      <point x="146" y="-10"/>
      <point x="225" y="-10" type="curve" smooth="yes"/>
      <point x="317" y="-10"/>
      <point x="378" y="75"/>
      <point x="378" y="270" type="curve" smooth="yes"/>
      <point x="378" y="450"/>
      <point x="326" y="537"/>
    </contour>
    <contour>
      <point x="227" y="512" type="curve" smooth="yes"/>
      <point x="313" y="512"/>
      <point x="353" y="424"/>
      <point x="353" y="270" type="curve" smooth="yes"/>
      <point x="353" y="79"/>
      <point x="294" y="15"/>
      <point x="226" y="15" type="curve" smooth="yes"/>
      <point x="152" y="15"/>
      <point x="97" y="98"/>
      <point x="97" y="219" type="curve" smooth="yes"/>
      <point x="97" y="292" type="line" smooth="yes"/>
      <point x="97" y="416"/>
      <point x="145" y="512"/>
    </contour>
  </outline>
</glyph>
<glyph name="q" format="2">
  <advance width="422"/>
  <unicode hex="0071"/>
  <anchor x="339" y="-232" name="bottom"/>
  <anchor x="211" y="527" name="top"/>
  <anchor x="402" y="527" name="topright"/>
  <outline>
    <contour>
      <point x="326" y="30" type="curve" smooth="yes"/>
      <point x="326" y="-232" type="line"/>
      <point x="352" y="-232" type="line"/>
      <point x="352" y="527" type="line"/>
      <point x="332" y="527" type="line"/>
      <point x="329" y="427" type="line"/>
      <point x="327" y="427" type="line"/>
      <point x="315" y="488"/>
      <point x="274" y="537"/>
      <point x="203" y="537" type="curve" smooth="yes"/>
      <point x="100" y="537"/>
      <point x="46" y="435"/>
      <point x="46" y="259" type="curve" smooth="yes"/>
      <point x="46" y="82"/>
      <point x="100" y="-10"/>
      <point x="198" y="-10" type="curve" smooth="yes"/>
      <point x="268" y="-10"/>
      <point x="307" y="40"/>
      <point x="326" y="110" type="curve"/>
      <point x="329" y="110" type="line"/>
      <point x="327" y="81"/>
      <point x="326" y="45"/>
    </contour>
    <contour>
      <point x="198" y="15" type="curve" smooth="yes"/>
      <point x="126" y="15"/>
      <point x="72" y="91"/>
      <point x="72" y="259" type="curve" smooth="yes"/>
      <point x="72" y="417"/>
      <point x="117" y="511"/>
      <point x="203" y="511" type="curve" smooth="yes"/>
      <point x="278" y="511"/>
      <point x="326" y="437"/>
      <point x="326" y="323" type="curve" smooth="yes"/>
      <point x="326" y="213" type="line" smooth="yes"/>
      <point x="326" y="99"/>
      <point x="274" y="15"/>
    </contour>
  </outline>
</glyph>
<glyph name="r" format="2">
  <advance width="262"/>
  <unicode hex="0072"/>
  <anchor x="84" y="0" name="bottom"/>
  <anchor x="131" y="527" name="top"/>
  <anchor x="242" y="527" name="topright"/>
  <outline>
    <contour>
      <point x="208" y="535" type="curve" smooth="yes"/>
      <point x="141" y="535"/>
      <point x="113" y="462"/>
      <point x="98" y="409" type="curve"/>
      <point x="96" y="409" type="line"/>
      <point x="91" y="527" type="line"/>
      <point x="71" y="527" type="line"/>
      <point x="71" y="0" type="line"/>
      <point x="97" y="0" type="line"/>
      <point x="97" y="277" type="line" smooth="yes"/>
      <point x="97" y="380"/>
      <point x="135" y="509"/>
      <point x="208" y="509" type="curve" smooth="yes"/>
      <point x="222" y="509"/>
      <point x="237" y="504"/>
      <point x="245" y="500" type="curve"/>
      <point x="253" y="524" type="line"/>
      <point x="239" y="532"/>
      <point x="221" y="535"/>
    </contour>
  </outline>
</glyph>
<glyph name="u" format="2">
  <advance width="408"/>
  <unicode hex="0075"/>
  <anchor x="204" y="0" name="bottom"/>
  <anchor x="204" y="527" name="top"/>
  <anchor x="388" y="527" name="topright"/>
  <outline>
    <contour>
      <point x="337" y="527" type="line"/>
      <point x="311" y="527" type="line"/>
      <point x="311" y="228" type="line"/>
      <point x="311" y="82"/>
      <point x="261" y="15"/>
      <point x="185" y="15" type="curve" smooth="yes"/>
      <point x="127" y="15"/>
      <point x="95" y="60"/>
      <point x="95" y="167" type="curve" smooth="yes"/>
      <point x="95" y="527" type="line"/>
      <point x="69" y="527" type="line"/>
      <point x="69" y="159" type="line" smooth="yes"/>
      <point x="69" y="45"/>
      <point x="105" y="-10"/>
      <point x="183" y="-10" type="curve" smooth="yes"/>
      <point x="268" y="-10"/>
      <point x="300" y="54"/>
      <point x="314" y="112" type="curve"/>
      <point x="316" y="112" type="line"/>
      <point x="317" y="0" type="line"/>
      <point x="337" y="0" type="line"/>
    </contour>
  </outline>
</glyph>
<glyph name="v" format="2">
  <advance width="293"/>
  <unicode hex="0076"/>
  <anchor x="147" y="0" name="bottom"/>
  <anchor x="147" y="527" name="top"/>
  <anchor x="273" y="527" name="topright"/>
  <outline>
    <contour>
      <point x="130" y="0" type="line"/>
      <point x="161" y="0" type="line"/>
      <point x="288" y="527" type="line"/>
      <point x="261" y="527" type="line"/>
      <point x="172" y="152" type="line" smooth="yes"/>
      <point x="163" y="114"/>
      <point x="155" y="76"/>
      <point x="147" y="35" type="curve"/>
      <point x="144" y="35" type="line"/>
      <point x="137" y="77"/>
      <point x="128" y="115"/>
      <point x="119" y="152" type="curve" smooth="yes"/>
      <point x="32" y="527" type="line"/>
      <point x="5" y="527" type="line"/>
    </contour>
  </outline>
</glyph>
<glyph name="w" format="2">
  <advance width="512"/>
  <unicode hex="0077"/>
  <anchor x="256" y="0" name="bottom"/>
  <anchor x="256" y="527" name="top"/>
  <anchor x="492" y="527" name="topright"/>
  <outline>
    <contour>
      <point x="278" y="390" type="curve" smooth="yes"/>
      <point x="360" y="0" type="line"/>
      <point x="386" y="0" type="line"/>
      <point x="502" y="527" type="line"/>
      <point x="477" y="527" type="line"/>
      <point x="395" y="151" type="line" smooth="yes"/>
      <point x="387" y="115"/>
      <point x="385" y="105"/>
      <point x="375" y="47" type="curve"/>
      <point x="373" y="47" type="line"/>
      <point x="368" y="82"/>
      <point x="361" y="120"/>
      <point x="353" y="156" type="curve" smooth="yes"/>
      <point x="274" y="527" type="line"/>
      <point x="245" y="527" type="line"/>
      <point x="166" y="163" type="line" smooth="yes"/>
      <point x="158" y="126"/>
      <point x="147" y="73"/>
      <point x="144" y="48" type="curve"/>
      <point x="142" y="48" type="line"/>
      <point x="134" y="83"/>
      <point x="127" y="118"/>
      <point x="118" y="157" type="curve" smooth="yes"/>
      <point x="35" y="527" type="line"/>
      <point x="10" y="527" type="line"/>
      <point x="128" y="0" type="line"/>
      <point x="157" y="0" type="line"/>
      <point x="241" y="390" type="line" smooth="yes"/>
      <point x="248" y="421"/>
      <point x="254" y="453"/>
      <point x="259" y="482" type="curve"/>
      <point x="260" y="482" type="line"/>
      <point x="265" y="453"/>
      <point x="271" y="422"/>
    </contour>
  </outline>
</glyph>
<glyph name="x" format="2">
  <advance width="314"/>
  <unicode hex="0078"/>
  <anchor x="157" y="0" name="bottom"/>
  <anchor x="157" y="527" name="top"/>
  <anchor x="294" y="527" name="topright"/>
  <outline>
    <contour>
      <point x="143" y="272" type="line"/>
      <point x="17" y="0" type="line"/>
      <point x="46" y="0" type="line"/>
      <point x="159" y="247" type="line"/>
      <point x="268" y="0" type="line"/>
      <point x="297" y="0" type="line"/>
      <point x="175" y="270" type="line"/>
      <point x="293" y="527" type="line"/>
      <point x="264" y="527" type="line"/>
      <point x="159" y="294" type="line"/>
      <point x="56" y="527" type="line"/>
      <point x="27" y="527" type="line"/>
    </contour>
  </outline>
</glyph>
<glyph name="y" format="2">
  <advance width="316"/>
  <unicode hex="0079"/>
  <anchor x="44" y="-242" name="bottom"/>
  <anchor x="158" y="527" name="top"/>
  <anchor x="296" y="527" name="topright"/>
  <outline>
    <contour>
      <point x="23" y="527" type="line"/>
      <point x="150" y="13" type="line"/>
      <point x="116" y="-122" type="line" smooth="yes"/>
      <point x="97" y="-198"/>
      <point x="70" y="-216"/>
      <point x="45" y="-216" type="curve" smooth="yes"/>
      <point x="34" y="-216"/>
      <point x="20" y="-212"/>
      <point x="10" y="-206" type="curve"/>
      <point x="10" y="-234" type="line"/>
      <point x="22" y="-239"/>
      <point x="32" y="-242"/>
      <point x="45" y="-242" type="curve" smooth="yes"/>
      <point x="87" y="-242"/>
      <point x="120" y="-213"/>
      <point x="142" y="-125" type="curve" smooth="yes"/>
      <point x="306" y="527" type="line"/>
      <point x="280" y="527" type="line"/>
      <point x="183" y="142" type="line" smooth="yes"/>
      <point x="177" y="120"/>
      <point x="172" y="99"/>
      <point x="164" y="59" type="curve"/>
      <point x="162" y="59" type="line"/>
      <point x="159" y="73"/>
      <point x="161" y="76"/>
      <point x="145" y="140" type="curve" smooth="yes"/>
      <point x="49" y="527" type="line"/>
    </contour>
  </outline>
</glyph>
<glyph name="z" format="2">
  <advance width="258"/>
  <unicode hex="007A"/>
  <anchor x="129" y="0" name="bottom"/>
  <anchor x="129" y="527" name="top"/>
  <anchor x="238" y="527" name="topright"/>
  <outline>
    <contour>
      <point x="235" y="0" type="line"/>
      <point x="235" y="25" type="line"/>
      <point x="56" y="25" type="line"/>
      <point x="232" y="504" type="line"/>
      <point x="232" y="527" type="line"/>
      <point x="43" y="527" type="line"/>
      <point x="43" y="502" type="line"/>
      <point x="205" y="502" type="line"/>
      <point x="29" y="24" type="line"/>
      <point x="29" y="0" type="line"/>
    </contour>
  </outline>
</glyph>
<glyph name="braceleft" format="2">
  <advance width="346"/>
  <unicode hex="007B"/>
  <outline>
    <contour>
      <point x="295" y="-158" type="curve"/>
      <point x="295" y="-133" type="line"/>
      <point x="208" y="-133"/>
      <point x="178" y="-105"/>
      <point x="178" y="-11" type="curve" smooth="yes"/>
      <point x="178" y="160" type="line" smooth="yes"/>
      <point x="178" y="236"/>
      <point x="158" y="267"/>
      <point x="111" y="277" type="curve"/>
      <point x="111" y="278" type="line"/>
      <point x="157" y="289"/>
      <point x="178" y="320"/>
      <point x="178" y="393" type="curve" smooth="yes"/>
      <point x="178" y="568" type="line" smooth="yes"/>
      <point x="178" y="661"/>
      <point x="208" y="689"/>
      <point x="295" y="689" type="curve"/>
      <point x="295" y="714" type="line"/>
      <point x="196" y="712"/>
      <point x="151" y="681"/>
      <point x="151" y="577" type="curve" smooth="yes"/>
      <point x="151" y="405" type="line" smooth="yes"/>
      <point x="151" y="309"/>
      <point x="122" y="291"/>
      <point x="52" y="290" type="curve"/>
      <point x="52" y="266" type="line"/>
      <point x="122" y="265"/>
      <point x="151" y="247"/>
      <point x="151" y="148" type="curve" smooth="yes"/>
      <point x="151" y="-19" type="line" smooth="yes"/>
      <point x="151" y="-125"/>
      <point x="196" y="-156"/>
    </contour>
  </outline>
</glyph>
<glyph name="bar" format="2">
  <advance width="378"/>
  <unicode hex="007C"/>
  <outline>
    <contour>
      <point x="176" y="761" type="line"/>
      <point x="176" y="-242" type="line"/>
      <point x="202" y="-242" type="line"/>
      <point x="202" y="761" type="line"/>
    </contour>
  </outline>
</glyph>
<glyph name="braceright" format="2">
  <advance width="346"/>
  <unicode hex="007D"/>
  <outline>
    <contour>
      <point x="50" y="-133" type="curve"/>
      <point x="50" y="-158" type="line"/>
      <point x="149" y="-156"/>
      <point x="194" y="-125"/>
      <point x="194" y="-19" type="curve" smooth="yes"/>
      <point x="194" y="148" type="line" smooth="yes"/>
      <point x="194" y="247"/>
      <point x="223" y="265"/>
      <point x="293" y="266" type="curve"/>
      <point x="293" y="290" type="line"/>
      <point x="223" y="291"/>
      <point x="194" y="309"/>
      <point x="194" y="405" type="curve" smooth="yes"/>
      <point x="194" y="577" type="line" smooth="yes"/>
      <point x="194" y="681"/>
      <point x="149" y="712"/>
      <point x="50" y="714" type="curve"/>
      <point x="50" y="689" type="line"/>
      <point x="137" y="689"/>
      <point x="167" y="661"/>
      <point x="167" y="568" type="curve" smooth="yes"/>
      <point x="167" y="393" type="line" smooth="yes"/>
      <point x="167" y="320"/>
      <point x="187" y="289"/>
      <point x="234" y="278" type="curve"/>
      <point x="234" y="277" type="line"/>
      <point x="187" y="267"/>
      <point x="167" y="236"/>
      <point x="167" y="160" type="curve" smooth="yes"/>
      <point x="167" y="-11" type="line" smooth="yes"/>
      <point x="167" y="-105"/>
      <point x="137" y="-133"/>
    </contour>
  </outline>
</glyph>
<glyph name="asciitilde" format="2">
  <advance width="399"/>
  <unicode hex="007E"/>
  <outline>
    <contour>
      <point x="202" y="340" type="curve" smooth="yes"/>
      <point x="224" y="326"/>
      <point x="247" y="313"/>
      <point x="279" y="313" type="curve" smooth="yes"/>
      <point x="317" y="313"/>
      <point x="349" y="331"/>
      <point x="369" y="354" type="curve"/>
      <point x="369" y="387" type="line"/>
      <point x="345" y="354"/>
      <point x="310" y="338"/>
      <point x="278" y="338" type="curve" smooth="yes"/>
      <point x="251" y="338"/>
      <point x="234" y="349"/>
      <point x="208" y="365" type="curve" smooth="yes"/>
      <point x="181" y="382"/>
      <point x="157" y="395"/>
      <point x="124" y="395" type="curve" smooth="yes"/>
      <point x="83" y="395"/>
      <point x="53" y="375"/>
      <point x="30" y="350" type="curve"/>
      <point x="30" y="317" type="line"/>
      <point x="59" y="354"/>
      <point x="89" y="370"/>
      <point x="123" y="370" type="curve" smooth="yes"/>
      <point x="154" y="370"/>
      <point x="177" y="356"/>
    </contour>
  </outline>
</glyph>
<glyph name="exclamdown" format="2">
  <advance width="194"/>
  <unicode hex="00A1"/>
  <outline>
    <contour>
      <point x="84" y="350" type="line"/>
      <point x="81" y="-194" type="line"/>
      <point x="112" y="-194" type="line"/>
      <point x="107" y="350" type="line"/>
    </contour>
    <contour>
      <point x="123" y="493" type="curve" smooth="yes"/>
      <point x="123" y="515"/>
      <point x="118" y="527"/>
      <point x="98" y="527" type="curve" smooth="yes"/>
      <point x="75" y="527"/>
      <point x="72" y="511"/>
      <point x="72" y="493" type="curve" smooth="yes"/>
      <point x="72" y="467"/>
      <point x="78" y="455"/>
      <point x="97" y="455" type="curve" smooth="yes"/>
      <point x="117" y="455"/>
      <point x="123" y="469"/>
    </contour>
  </outline>
</glyph>
<glyph name="cent" format="2">
  <advance width="411"/>
  <unicode hex="00A2"/>
  <outline>
    <contour>
      <point x="271" y="637" type="curve"/>
      <point x="271" y="724" type="line"/>
      <point x="246" y="724" type="line"/>
      <point x="246" y="637" type="line"/>
      <point x="139" y="626"/>
      <point x="82" y="530"/>
      <point x="82" y="358" type="curve" smooth="yes"/>
      <point x="82" y="193"/>
      <point x="137" y="101"/>
      <point x="252" y="91" type="curve"/>
      <point x="252" y="-10" type="line"/>
      <point x="277" y="-10" type="line"/>
      <point x="277" y="92" type="line"/>
      <point x="302" y="95"/>
      <point x="323" y="101"/>
      <point x="336" y="106" type="curve"/>
      <point x="336" y="133" type="line"/>
      <point x="314" y="125"/>
      <point x="292" y="118"/>
      <point x="264" y="118" type="curve" smooth="yes"/>
      <point x="161" y="118"/>
      <point x="108" y="201"/>
      <point x="108" y="358" type="curve" smooth="yes"/>
      <point x="108" y="510"/>
      <point x="153" y="612"/>
      <point x="262" y="612" type="curve" smooth="yes"/>
      <point x="282" y="612"/>
      <point x="305" y="607"/>
      <point x="324" y="597" type="curve"/>
      <point x="334" y="620" type="line"/>
      <point x="317" y="629"/>
      <point x="295" y="636"/>
    </contour>
  </outline>
</glyph>
<glyph name="sterling" format="2">
  <advance width="386"/>
  <unicode hex="00A3"/>
  <outline>
    <contour>
      <point x="247" y="724" type="curve" smooth="yes"/>
      <point x="148" y="724"/>
      <point x="120" y="647"/>
      <point x="120" y="548" type="curve" smooth="yes"/>
      <point x="120" y="366" type="line"/>
      <point x="39" y="366" type="line"/>
      <point x="39" y="341" type="line"/>
      <point x="120" y="341" type="line"/>
      <point x="120" y="182" type="line" smooth="yes"/>
      <point x="120" y="88"/>
      <point x="93" y="42"/>
      <point x="40" y="23" type="curve"/>
      <point x="40" y="0" type="line"/>
      <point x="347" y="0" type="line"/>
      <point x="347" y="25" type="line"/>
      <point x="80" y="25" type="line"/>
      <point x="120" y="45"/>
      <point x="146" y="97"/>
      <point x="146" y="177" type="curve" smooth="yes"/>
      <point x="146" y="341" type="line"/>
      <point x="267" y="341" type="line"/>
      <point x="267" y="366" type="line"/>
      <point x="146" y="366" type="line"/>
      <point x="146" y="541" type="line" smooth="yes"/>
      <point x="146" y="651"/>
      <point x="177" y="699"/>
      <point x="247" y="699" type="curve" smooth="yes"/>
      <point x="269" y="699"/>
      <point x="292" y="694"/>
      <point x="321" y="669" type="curve"/>
      <point x="337" y="688" type="line"/>
      <point x="312" y="712"/>
      <point x="285" y="724"/>
    </contour>
  </outline>
</glyph>
<glyph name="currency" format="2">
  <advance width="563"/>
  <unicode hex="00A4"/>
  <outline>
    <contour>
      <point x="90" y="353" type="curve" smooth="yes"/>
      <point x="90" y="308"/>
      <point x="104" y="263"/>
      <point x="136" y="224" type="curve"/>
      <point x="62" y="150" type="line"/>
      <point x="77" y="134" type="line"/>
      <point x="152" y="208" type="line"/>
      <point x="189" y="175"/>
      <point x="236" y="161"/>
      <point x="281" y="161" type="curve" smooth="yes"/>
      <point x="325" y="161"/>
      <point x="374" y="174"/>
      <point x="411" y="206" type="curve"/>
      <point x="486" y="133" type="line"/>
      <point x="502" y="148" type="line"/>
      <point x="427" y="222" type="line"/>
      <point x="463" y="261"/>
      <point x="475" y="313"/>
      <point x="475" y="354" type="curve" smooth="yes"/>
      <point x="475" y="402"/>
      <point x="459" y="446"/>
      <point x="426" y="483" type="curve"/>
      <point x="501" y="557" type="line"/>
      <point x="485" y="572" type="line"/>
      <point x="409" y="500" type="line"/>
      <point x="370" y="533"/>
      <point x="324" y="547"/>
      <point x="280" y="547" type="curve" smooth="yes"/>
      <point x="232" y="547"/>
      <point x="190" y="531"/>
      <point x="151" y="498" type="curve"/>
      <point x="76" y="573" type="line"/>
      <point x="61" y="558" type="line"/>
      <point x="136" y="482" type="line"/>
      <point x="106" y="449"/>
      <point x="90" y="402"/>
    </contour>
    <contour>
      <point x="113" y="353" type="curve" smooth="yes"/>
      <point x="113" y="462"/>
      <point x="193" y="526"/>
      <point x="281" y="526" type="curve" smooth="yes"/>
      <point x="373" y="526"/>
      <point x="452" y="456"/>
      <point x="452" y="351" type="curve" smooth="yes"/>
      <point x="452" y="250"/>
      <point x="378" y="182"/>
      <point x="283" y="182" type="curve" smooth="yes"/>
      <point x="189" y="182"/>
      <point x="113" y="247"/>
    </contour>
  </outline>
</glyph>
<glyph name="yen" format="2">
  <advance width="394"/>
  <unicode hex="00A5"/>
  <outline>
    <contour>
      <point x="196" y="340" type="line"/>
      <point x="77" y="714" type="line"/>
      <point x="51" y="714" type="line"/>
      <point x="181" y="315" type="line"/>
      <point x="66" y="315" type="line"/>
      <point x="66" y="291" type="line"/>
      <point x="183" y="291" type="line"/>
      <point x="183" y="179" type="line"/>
      <point x="66" y="179" type="line"/>
      <point x="66" y="155" type="line"/>
      <point x="183" y="155" type="line"/>
      <point x="183" y="0" type="line"/>
      <point x="209" y="0" type="line"/>
      <point x="209" y="155" type="line"/>
      <point x="327" y="155" type="line"/>
      <point x="327" y="179" type="line"/>
      <point x="209" y="179" type="line"/>
      <point x="209" y="291" type="line"/>
      <point x="327" y="291" type="line"/>
      <point x="327" y="315" type="line"/>
      <point x="211" y="315" type="line"/>
      <point x="341" y="714" type="line"/>
      <point x="316" y="714" type="line"/>
    </contour>
  </outline>
</glyph>
<glyph name="brokenbar" format="2">
  <advance width="378"/>
  <unicode hex="00A6"/>
  <outline>
    <contour>
      <point x="176" y="761" type="line"/>
      <point x="176" y="376" type="line"/>
      <point x="202" y="376" type="line"/>
      <point x="202" y="761" type="line"/>
    </contour>
    <contour>
      <point x="176" y="142" type="line"/>
      <point x="176" y="-244" type="line"/>
      <point x="202" y="-244" type="line"/>
      <point x="202" y="142" type="line"/>
    </contour>
  </outline>
</glyph>
<glyph name="section" format="2">
  <advance width="330"/>
  <unicode hex="00A7"/>
  <outline>
    <contour>
      <point x="49" y="415" type="curve" smooth="yes"/>
      <point x="49" y="358"/>
      <point x="85" y="331"/>
      <point x="130" y="306" type="curve" smooth="yes"/>
      <point x="194" y="271"/>
      <point x="256" y="249"/>
      <point x="256" y="173" type="curve" smooth="yes"/>
      <point x="256" y="112"/>
      <point x="216" y="71"/>
      <point x="146" y="71" type="curve" smooth="yes"/>
      <point x="106" y="71"/>
      <point x="64" y="85"/>
      <point x="40" y="101" type="curve"/>
      <point x="40" y="73" type="line"/>
      <point x="63" y="59"/>
      <point x="106" y="48"/>
      <point x="146" y="48" type="curve" smooth="yes"/>
      <point x="233" y="48"/>
      <point x="282" y="100"/>
      <point x="282" y="173" type="curve" smooth="yes"/>
      <point x="282" y="222"/>
      <point x="260" y="252"/>
      <point x="221" y="282" type="curve"/>
      <point x="253" y="306"/>
      <point x="280" y="338"/>
      <point x="280" y="394" type="curve" smooth="yes"/>
      <point x="280" y="463"/>
      <point x="239" y="491"/>
      <point x="175" y="532" type="curve" smooth="yes"/>
      <point x="118" y="569"/>
      <point x="78" y="600"/>
      <point x="78" y="656" type="curve" smooth="yes"/>
      <point x="78" y="711"/>
      <point x="117" y="738"/>
      <point x="172" y="738" type="curve" smooth="yes"/>
      <point x="210" y="738"/>
      <point x="241" y="724"/>
      <point x="257" y="714" type="curve"/>
      <point x="270" y="734" type="line"/>
      <point x="246" y="749"/>
      <point x="210" y="760"/>
      <point x="172" y="760" type="curve" smooth="yes"/>
      <point x="92" y="760"/>
      <point x="53" y="714"/>
      <point x="53" y="656" type="curve" smooth="yes"/>
      <point x="53" y="597"/>
      <point x="93" y="563"/>
      <point x="140" y="529" type="curve"/>
      <point x="94" y="512"/>
      <point x="49" y="476"/>
    </contour>
    <contour>
      <point x="73" y="416" type="curve" smooth="yes"/>
      <point x="73" y="475"/>
      <point x="118" y="501"/>
      <point x="159" y="515" type="curve"/>
      <point x="228" y="474"/>
      <point x="256" y="441"/>
      <point x="256" y="390" type="curve" smooth="yes"/>
      <point x="256" y="337"/>
      <point x="226" y="307"/>
      <point x="202" y="294" type="curve"/>
      <point x="146" y="324" type="line" smooth="yes"/>
      <point x="99" y="349"/>
      <point x="73" y="371"/>
    </contour>
  </outline>
</glyph>
<glyph name="dieresis" format="2">
  <advance width="528"/>
  <unicode hex="00A8"/>
  <outline>
    <contour>
      <point x="168" y="663" type="curve" smooth="yes"/>
      <point x="168" y="646"/>
      <point x="177" y="631"/>
      <point x="193" y="631" type="curve" smooth="yes"/>
      <point x="207" y="631"/>
      <point x="217" y="644"/>
      <point x="217" y="663" type="curve" smooth="yes"/>
      <point x="217" y="682"/>
      <point x="207" y="696"/>
      <point x="193" y="696" type="curve" smooth="yes"/>
      <point x="177" y="696"/>
      <point x="168" y="680"/>
    </contour>
    <contour>
      <point x="309" y="664" type="curve" smooth="yes"/>
      <point x="309" y="646"/>
      <point x="319" y="631"/>
      <point x="334" y="631" type="curve" smooth="yes"/>
      <point x="349" y="631"/>
      <point x="359" y="645"/>
      <point x="359" y="664" type="curve" smooth="yes"/>
      <point x="359" y="683"/>
      <point x="348" y="696"/>
      <point x="334" y="696" type="curve" smooth="yes"/>
      <point x="319" y="696"/>
      <point x="309" y="681"/>
    </contour>
  </outline>
</glyph>
<glyph name="copyright" format="2">
  <advance width="830"/>
  <unicode hex="00A9"/>
  <outline>
    <contour>
      <point x="412" y="-8" type="curve" smooth="yes"/>
      <point x="633" y="-8"/>
      <point x="781" y="146"/>
      <point x="781" y="355" type="curve" smooth="yes"/>
      <point x="781" y="562"/>
      <point x="637" y="722"/>
      <point x="416" y="722" type="curve" smooth="yes"/>
      <point x="206" y="722"/>
      <point x="49" y="577"/>
      <point x="49" y="357" type="curve" smooth="yes"/>
      <point x="49" y="147"/>
      <point x="191" y="-8"/>
    </contour>
    <contour>
      <point x="438" y="143" type="curve" smooth="yes"/>
      <point x="478" y="143"/>
      <point x="516" y="150"/>
      <point x="550" y="164" type="curve"/>
      <point x="550" y="187" type="line"/>
      <point x="510" y="172"/>
      <point x="476" y="167"/>
      <point x="443" y="167" type="curve" smooth="yes"/>
      <point x="324" y="167"/>
      <point x="256" y="230"/>
      <point x="256" y="357" type="curve" smooth="yes"/>
      <point x="256" y="476"/>
      <point x="316" y="547"/>
      <point x="431" y="547" type="curve" smooth="yes"/>
      <point x="472" y="547"/>
      <point x="512" y="538"/>
      <point x="543" y="524" type="curve"/>
      <point x="554" y="546" type="line"/>
      <point x="520" y="562"/>
      <point x="478" y="572"/>
      <point x="432" y="572" type="curve" smooth="yes"/>
      <point x="301" y="572"/>
      <point x="229" y="490"/>
      <point x="229" y="357" type="curve" smooth="yes"/>
      <point x="229" y="216"/>
      <point x="310" y="143"/>
    </contour>
    <contour>
      <point x="412" y="17" type="curve" smooth="yes"/>
      <point x="206" y="17"/>
      <point x="75" y="164"/>
      <point x="75" y="357" type="curve" smooth="yes"/>
      <point x="75" y="555"/>
      <point x="214" y="697"/>
      <point x="414" y="697" type="curve" smooth="yes"/>
      <point x="620" y="697"/>
      <point x="755" y="547"/>
      <point x="755" y="357" type="curve" smooth="yes"/>
      <point x="755" y="166"/>
      <point x="619" y="17"/>
    </contour>
  </outline>
</glyph>
<glyph name="ordfeminine" format="2">
  <advance width="263"/>
  <unicode hex="00AA"/>
  <anchor x="122" y="399" name="bottom"/>
  <anchor x="132" y="725" name="top"/>
  <outline>
    <contour>
      <point x="133" y="722" type="curve" smooth="yes"/>
      <point x="103" y="722"/>
      <point x="78" y="712"/>
      <point x="58" y="700" type="curve"/>
      <point x="66" y="679" type="line"/>
      <point x="83" y="690"/>
      <point x="106" y="700"/>
      <point x="131" y="700" type="curve" smooth="yes"/>
      <point x="169" y="700"/>
      <point x="185" y="681"/>
      <point x="185" y="624" type="curve" smooth="yes"/>
      <point x="185" y="583" type="line"/>
      <point x="141" y="579" type="line" smooth="yes"/>
      <point x="69" y="572"/>
      <point x="28" y="550"/>
      <point x="28" y="485" type="curve" smooth="yes"/>
      <point x="28" y="429"/>
      <point x="59" y="399"/>
      <point x="108" y="399" type="curve" smooth="yes"/>
      <point x="142" y="399"/>
      <point x="174" y="419"/>
      <point x="188" y="459" type="curve"/>
      <point x="191" y="403" type="line"/>
      <point x="208" y="403" type="line"/>
      <point x="208" y="632" type="line" smooth="yes"/>
      <point x="208" y="687"/>
      <point x="190" y="722"/>
    </contour>
    <contour>
      <point x="151" y="559" type="curve" smooth="yes"/>
      <point x="185" y="562" type="line"/>
      <point x="185" y="527" type="line"/>
      <point x="185" y="463"/>
      <point x="157" y="420"/>
      <point x="108" y="420" type="curve" smooth="yes"/>
      <point x="72" y="420"/>
      <point x="50" y="442"/>
      <point x="50" y="485" type="curve" smooth="yes"/>
      <point x="50" y="539"/>
      <point x="84" y="553"/>
    </contour>
  </outline>
</glyph>
<glyph name="guillemotleft" format="2">
  <advance width="408"/>
  <unicode hex="00AB"/>
  <outline>
    <contour>
      <point x="40" y="284" type="line"/>
      <point x="40" y="271" type="line"/>
      <point x="181" y="98" type="line"/>
      <point x="199" y="108" type="line"/>
      <point x="75" y="278" type="line"/>
      <point x="198" y="449" type="line"/>
      <point x="181" y="459" type="line"/>
    </contour>
    <contour>
      <point x="210" y="284" type="line"/>
      <point x="210" y="271" type="line"/>
      <point x="351" y="98" type="line"/>
      <point x="369" y="108" type="line"/>
      <point x="245" y="278" type="line"/>
      <point x="368" y="449" type="line"/>
      <point x="351" y="459" type="line"/>
    </contour>
  </outline>
</glyph>
<glyph name="logicalnot" format="2">
  <advance width="399"/>
  <unicode hex="00AC"/>
  <outline>
    <contour>
      <point x="358" y="363" type="line"/>
      <point x="34" y="363" type="line"/>
      <point x="34" y="338" type="line"/>
      <point x="332" y="338" type="line"/>
      <point x="332" y="120" type="line"/>
      <point x="358" y="120" type="line"/>
    </contour>
  </outline>
</glyph>
<glyph name="registered" format="2">
  <advance width="830"/>
  <unicode hex="00AE"/>
  <outline>
    <contour>
      <point x="296" y="143" type="line"/>
      <point x="322" y="143" type="line"/>
      <point x="322" y="324" type="line"/>
      <point x="436" y="324" type="line"/>
      <point x="528" y="143" type="line"/>
      <point x="558" y="143" type="line"/>
      <point x="462" y="330" type="line"/>
      <point x="513" y="344"/>
      <point x="555" y="376"/>
      <point x="555" y="448" type="curve" smooth="yes"/>
      <point x="555" y="533"/>
      <point x="497" y="569"/>
      <point x="415" y="569" type="curve" smooth="yes"/>
      <point x="296" y="569" type="line"/>
    </contour>
    <contour>
      <point x="410" y="348" type="curve" smooth="yes"/>
      <point x="321" y="348" type="line"/>
      <point x="321" y="545" type="line"/>
      <point x="412" y="545" type="line" smooth="yes"/>
      <point x="481" y="545"/>
      <point x="529" y="517"/>
      <point x="529" y="449" type="curve" smooth="yes"/>
      <point x="529" y="377"/>
      <point x="477" y="348"/>
    </contour>
    <contour>
      <point x="412" y="-8" type="curve" smooth="yes"/>
      <point x="633" y="-8"/>
      <point x="781" y="146"/>
      <point x="781" y="355" type="curve" smooth="yes"/>
      <point x="781" y="562"/>
      <point x="637" y="722"/>
      <point x="416" y="722" type="curve" smooth="yes"/>
      <point x="206" y="722"/>
      <point x="49" y="577"/>
      <point x="49" y="357" type="curve" smooth="yes"/>
      <point x="49" y="147"/>
      <point x="191" y="-8"/>
    </contour>
    <contour>
      <point x="412" y="17" type="curve" smooth="yes"/>
      <point x="206" y="17"/>
      <point x="75" y="164"/>
      <point x="75" y="357" type="curve" smooth="yes"/>
      <point x="75" y="555"/>
      <point x="214" y="697"/>
      <point x="414" y="697" type="curve" smooth="yes"/>
      <point x="620" y="697"/>
      <point x="755" y="547"/>
      <point x="755" y="357" type="curve" smooth="yes"/>
      <point x="755" y="166"/>
      <point x="619" y="17"/>
    </contour>
  </outline>
</glyph>
<glyph name="overscore" format="2">
  <advance width="388"/>
  <unicode hex="00AF"/>
  <outline>
    <contour>
      <point x="392" y="760" type="line"/>
      <point x="392" y="786" type="line"/>
      <point x="-4" y="786" type="line"/>
      <point x="-4" y="760" type="line"/>
    </contour>
  </outline>
</glyph>
<glyph name="degree" format="2">
  <advance width="358"/>
  <unicode hex="00B0"/>
  <outline>
    <contour>
      <point x="179" y="479" type="curve" smooth="yes"/>
      <point x="247" y="479"/>
      <point x="300" y="527"/>
      <point x="300" y="601" type="curve" smooth="yes"/>
      <point x="300" y="678"/>
      <point x="243" y="723"/>
      <point x="178" y="723" type="curve" smooth="yes"/>
      <point x="112" y="723"/>
      <point x="57" y="678"/>
      <point x="57" y="602" type="curve" smooth="yes"/>
      <point x="57" y="526"/>
      <point x="111" y="479"/>
    </contour>
    <contour>
      <point x="178" y="501" type="curve" smooth="yes"/>
      <point x="124" y="501"/>
      <point x="81" y="540"/>
      <point x="81" y="602" type="curve" smooth="yes"/>
      <point x="81" y="659"/>
      <point x="119" y="701"/>
      <point x="177" y="701" type="curve" smooth="yes"/>
      <point x="235" y="701"/>
      <point x="276" y="661"/>
      <point x="276" y="602" type="curve" smooth="yes"/>
      <point x="276" y="543"/>
      <point x="234" y="501"/>
    </contour>
  </outline>
</glyph>
<glyph name="plusminus" format="2">
  <advance width="399"/>
  <unicode hex="00B1"/>
  <outline>
    <contour>
      <point x="36" y="1" type="line"/>
      <point x="363" y="1" type="line"/>
      <point x="363" y="27" type="line"/>
      <point x="36" y="27" type="line"/>
    </contour>
    <component base="plus"/>
  </outline>
</glyph>
<glyph name="twosuperior" format="2">
  <advance width="286"/>
  <unicode hex="00B2"/>
  <outline>
    <contour>
      <point x="254" y="414" type="line"/>
      <point x="254" y="437" type="line"/>
      <point x="55" y="437" type="line"/>
      <point x="136" y="542" type="line" smooth="yes"/>
      <point x="204" y="631"/>
      <point x="242" y="680"/>
      <point x="242" y="743" type="curve" smooth="yes"/>
      <point x="242" y="806"/>
      <point x="203" y="853"/>
      <point x="132" y="853" type="curve" smooth="yes"/>
      <point x="90" y="853"/>
      <point x="57" y="835"/>
      <point x="29" y="808" type="curve"/>
      <point x="44" y="791" type="line"/>
      <point x="70" y="815"/>
      <point x="98" y="830"/>
      <point x="132" y="830" type="curve" smooth="yes"/>
      <point x="189" y="830"/>
      <point x="217" y="791"/>
      <point x="217" y="742" type="curve" smooth="yes"/>
      <point x="217" y="679"/>
      <point x="169" y="623"/>
      <point x="115" y="553" type="curve" smooth="yes"/>
      <point x="26" y="436" type="line"/>
      <point x="26" y="414" type="line"/>
    </contour>
  </outline>
</glyph>
<glyph name="threesuperior" format="2">
  <advance width="286"/>
  <unicode hex="00B3"/>
  <outline>
    <contour>
      <point x="135" y="850" type="curve" smooth="yes"/>
      <point x="93" y="850"/>
      <point x="61" y="834"/>
      <point x="34" y="811" type="curve"/>
      <point x="48" y="792" type="line"/>
      <point x="72" y="813"/>
      <point x="99" y="827"/>
      <point x="135" y="827" type="curve" smooth="yes"/>
      <point x="187" y="827"/>
      <point x="215" y="799"/>
      <point x="215" y="748" type="curve" smooth="yes"/>
      <point x="215" y="690"/>
      <point x="178" y="650"/>
      <point x="120" y="650" type="curve" smooth="yes"/>
      <point x="87" y="650" type="line"/>
      <point x="87" y="627" type="line"/>
      <point x="120" y="627" type="line" smooth="yes"/>
      <point x="190" y="627"/>
      <point x="226" y="587"/>
      <point x="226" y="530" type="curve" smooth="yes"/>
      <point x="226" y="472"/>
      <point x="189" y="433"/>
      <point x="117" y="433" type="curve" smooth="yes"/>
      <point x="87" y="433"/>
      <point x="60" y="440"/>
      <point x="33" y="454" type="curve"/>
      <point x="33" y="427" type="line"/>
      <point x="56" y="416"/>
      <point x="86" y="410"/>
      <point x="117" y="410" type="curve" smooth="yes"/>
      <point x="200" y="410"/>
      <point x="251" y="452"/>
      <point x="251" y="530" type="curve" smooth="yes"/>
      <point x="251" y="590"/>
      <point x="220" y="626"/>
      <point x="167" y="641" type="curve"/>
      <point x="167" y="642" type="line"/>
      <point x="207" y="656"/>
      <point x="240" y="691"/>
      <point x="240" y="748" type="curve" smooth="yes"/>
      <point x="240" y="814"/>
      <point x="198" y="850"/>
    </contour>
  </outline>
</glyph>
<glyph name="acute" format="2">
  <advance width="221"/>
  <unicode hex="00B4"/>
  <outline>
    <contour>
      <point x="181" y="756" type="curve"/>
      <point x="181" y="763" type="line"/>
      <point x="151" y="763" type="line"/>
      <point x="117" y="711"/>
      <point x="85" y="671"/>
      <point x="40" y="618" type="curve"/>
      <point x="40" y="606" type="line"/>
      <point x="54" y="606" type="line"/>
      <point x="93" y="643"/>
      <point x="148" y="707"/>
    </contour>
  </outline>
</glyph>
<glyph name="micro" format="2">
  <advance width="410"/>
  <unicode hex="00B5"/>
  <outline>
    <contour>
      <point x="339" y="527" type="line"/>
      <point x="313" y="527" type="line"/>
      <point x="313" y="228" type="line" smooth="yes"/>
      <point x="313" y="82"/>
      <point x="263" y="15"/>
      <point x="187" y="15" type="curve" smooth="yes"/>
      <point x="129" y="15"/>
      <point x="97" y="60"/>
      <point x="97" y="167" type="curve" smooth="yes"/>
      <point x="97" y="527" type="line"/>
      <point x="71" y="527" type="line"/>
      <point x="71" y="-232" type="line"/>
      <point x="96" y="-232" type="line"/>
      <point x="96" y="-54" type="line" smooth="yes"/>
      <point x="96" y="-26"/>
      <point x="96" y="4"/>
      <point x="92" y="45" type="curve"/>
      <point x="94" y="45" type="line"/>
      <point x="112" y="6"/>
      <point x="141" y="-10"/>
      <point x="185" y="-10" type="curve" smooth="yes"/>
      <point x="270" y="-10"/>
      <point x="301" y="58"/>
      <point x="315" y="112" type="curve"/>
      <point x="317" y="112" type="line"/>
      <point x="320" y="0" type="line"/>
      <point x="339" y="0" type="line"/>
    </contour>
  </outline>
</glyph>
<glyph name="paragraph" format="2">
  <advance width="420"/>
  <unicode hex="00B6"/>
  <outline>
    <contour>
      <point x="323" y="-127" type="line"/>
      <point x="323" y="760" type="line"/>
      <point x="177" y="760" type="line" smooth="yes"/>
      <point x="102" y="760"/>
      <point x="72" y="683"/>
      <point x="72" y="554" type="curve" smooth="yes"/>
      <point x="72" y="436"/>
      <point x="97" y="346"/>
      <point x="151" y="346" type="curve" smooth="yes"/>
      <point x="164" y="346"/>
      <point x="171" y="349"/>
      <point x="182" y="355" type="curve"/>
      <point x="182" y="-127" type="line"/>
      <point x="206" y="-127" type="line"/>
      <point x="206" y="733" type="line"/>
      <point x="299" y="733" type="line"/>
      <point x="299" y="-127" type="line"/>
    </contour>
  </outline>
</glyph>
<glyph name="cedilla" format="2">
  <advance width="225"/>
  <unicode hex="00B8"/>
  <outline>
    <contour>
      <point x="184" y="-145" type="curve" smooth="yes"/>
      <point x="184" y="-100"/>
      <point x="155" y="-69"/>
      <point x="100" y="-62" type="curve"/>
      <point x="126" y="0" type="line"/>
      <point x="100" y="0" type="line"/>
      <point x="66" y="-81" type="line"/>
      <point x="120" y="-83"/>
      <point x="159" y="-98"/>
      <point x="159" y="-145" type="curve" smooth="yes"/>
      <point x="159" y="-192"/>
      <point x="121" y="-217"/>
      <point x="74" y="-217" type="curve" smooth="yes"/>
      <point x="61" y="-217"/>
      <point x="42" y="-214"/>
      <point x="28" y="-210" type="curve"/>
      <point x="28" y="-234" type="line"/>
      <point x="43" y="-238"/>
      <point x="62" y="-240"/>
      <point x="74" y="-240" type="curve" smooth="yes"/>
      <point x="142" y="-240"/>
      <point x="184" y="-203"/>
    </contour>
  </outline>
</glyph>
<glyph name="onesuperior" format="2">
  <advance width="286"/>
  <unicode hex="00B9"/>
  <outline>
    <contour>
      <point x="174" y="842" type="line"/>
      <point x="156" y="842" type="line"/>
      <point x="40" y="764" type="line"/>
      <point x="52" y="746" type="line"/>
      <point x="123" y="792" type="line" smooth="yes"/>
      <point x="130" y="797"/>
      <point x="140" y="803"/>
      <point x="152" y="813" type="curve"/>
      <point x="150" y="789"/>
      <point x="149" y="749"/>
      <point x="149" y="720" type="curve" smooth="yes"/>
      <point x="149" y="414" type="line"/>
      <point x="174" y="414" type="line"/>
    </contour>
  </outline>
</glyph>
<glyph name="ordmasculine" format="2">
  <advance width="291"/>
  <unicode hex="00BA"/>
  <anchor x="144" y="400" name="bottom"/>
  <anchor x="150" y="725" name="top"/>
  <outline>
    <contour>
      <point x="257" y="561" type="curve" smooth="yes"/>
      <point x="257" y="656"/>
      <point x="224" y="724"/>
      <point x="149" y="724" type="curve" smooth="yes"/>
      <point x="75" y="724"/>
      <point x="34" y="660"/>
      <point x="34" y="560" type="curve" smooth="yes"/>
      <point x="34" y="461"/>
      <point x="71" y="396"/>
      <point x="145" y="396" type="curve" smooth="yes"/>
      <point x="222" y="396"/>
      <point x="257" y="466"/>
    </contour>
    <contour>
      <point x="58" y="558" type="curve" smooth="yes"/>
      <point x="58" y="653"/>
      <point x="93" y="702"/>
      <point x="148" y="702" type="curve" smooth="yes"/>
      <point x="208" y="702"/>
      <point x="233" y="644"/>
      <point x="233" y="558" type="curve" smooth="yes"/>
      <point x="233" y="474"/>
      <point x="206" y="417"/>
      <point x="145" y="417" type="curve" smooth="yes"/>
      <point x="85" y="417"/>
      <point x="58" y="470"/>
    </contour>
  </outline>
</glyph>
<glyph name="guillemotright" format="2">
  <advance width="397"/>
  <unicode hex="00BB"/>
  <outline>
    <contour>
      <point x="358" y="271" type="line"/>
      <point x="358" y="284" type="line"/>
      <point x="217" y="459" type="line"/>
      <point x="199" y="449" type="line"/>
      <point x="323" y="278" type="line"/>
      <point x="199" y="108" type="line"/>
      <point x="217" y="98" type="line"/>
    </contour>
    <contour>
      <point x="199" y="271" type="line"/>
      <point x="199" y="284" type="line"/>
      <point x="58" y="459" type="line"/>
      <point x="40" y="449" type="line"/>
      <point x="164" y="278" type="line"/>
      <point x="40" y="108" type="line"/>
      <point x="58" y="98" type="line"/>
    </contour>
  </outline>
</glyph>
<glyph name="onequarter" format="2">
  <advance width="629"/>
  <unicode hex="00BC"/>
  <outline>
    <contour>
      <point x="130" y="0" type="line"/>
      <point x="158" y="0" type="line"/>
      <point x="509" y="714" type="line"/>
      <point x="481" y="714" type="line"/>
    </contour>
    <contour>
      <point x="134" y="592" type="curve" smooth="yes"/>
      <point x="134" y="286" type="line"/>
      <point x="159" y="286" type="line"/>
      <point x="159" y="714" type="line"/>
      <point x="141" y="714" type="line"/>
      <point x="25" y="636" type="line"/>
      <point x="37" y="618" type="line"/>
      <point x="108" y="664" type="line" smooth="yes"/>
      <point x="115" y="669"/>
      <point x="125" y="675"/>
      <point x="137" y="685" type="curve"/>
      <point x="135" y="661"/>
      <point x="134" y="621"/>
    </contour>
    <contour>
      <point x="532" y="0" type="line"/>
      <point x="556" y="0" type="line"/>
      <point x="556" y="118" type="line"/>
      <point x="616" y="118" type="line"/>
      <point x="616" y="141" type="line"/>
      <point x="556" y="141" type="line"/>
      <point x="556" y="431" type="line"/>
      <point x="537" y="431" type="line"/>
      <point x="369" y="136" type="line"/>
      <point x="369" y="118" type="line"/>
      <point x="532" y="118" type="line"/>
    </contour>
    <contour>
      <point x="397" y="141" type="line"/>
      <point x="513" y="346" type="line" smooth="yes"/>
      <point x="522" y="362"/>
      <point x="527" y="372"/>
      <point x="532" y="384" type="curve"/>
      <point x="532" y="370"/>
      <point x="532" y="362"/>
      <point x="532" y="334" type="curve" smooth="yes"/>
      <point x="532" y="141" type="line"/>
    </contour>
  </outline>
</glyph>
<glyph name="onehalf" format="2">
  <advance width="708"/>
  <unicode hex="00BD"/>
  <outline>
    <contour>
      <point x="124" y="0" type="line"/>
      <point x="152" y="0" type="line"/>
      <point x="503" y="714" type="line"/>
      <point x="475" y="714" type="line"/>
    </contour>
    <contour>
      <point x="134" y="592" type="curve" smooth="yes"/>
      <point x="134" y="286" type="line"/>
      <point x="159" y="286" type="line"/>
      <point x="159" y="714" type="line"/>
      <point x="141" y="714" type="line"/>
      <point x="25" y="636" type="line"/>
      <point x="37" y="618" type="line"/>
      <point x="108" y="664" type="line" smooth="yes"/>
      <point x="115" y="669"/>
      <point x="125" y="675"/>
      <point x="137" y="685" type="curve"/>
      <point x="135" y="661"/>
      <point x="134" y="621"/>
    </contour>
    <contour>
      <point x="448" y="0" type="line"/>
      <point x="676" y="0" type="line"/>
      <point x="676" y="23" type="line"/>
      <point x="477" y="23" type="line"/>
      <point x="558" y="128" type="line" smooth="yes"/>
      <point x="626" y="217"/>
      <point x="664" y="266"/>
      <point x="664" y="329" type="curve" smooth="yes"/>
      <point x="664" y="392"/>
      <point x="625" y="439"/>
      <point x="554" y="439" type="curve" smooth="yes"/>
      <point x="512" y="439"/>
      <point x="479" y="421"/>
      <point x="451" y="394" type="curve"/>
      <point x="466" y="377" type="line"/>
      <point x="492" y="401"/>
      <point x="520" y="416"/>
      <point x="554" y="416" type="curve" smooth="yes"/>
      <point x="611" y="416"/>
      <point x="639" y="377"/>
      <point x="639" y="328" type="curve" smooth="yes"/>
      <point x="639" y="265"/>
      <point x="591" y="209"/>
      <point x="537" y="139" type="curve" smooth="yes"/>
      <point x="448" y="22" type="line"/>
    </contour>
  </outline>
</glyph>
<glyph name="threequarters" format="2">
  <advance width="637"/>
  <unicode hex="00BE"/>
  <outline>
    <contour>
      <point x="152" y="0" type="line"/>
      <point x="180" y="0" type="line"/>
      <point x="531" y="714" type="line"/>
      <point x="503" y="714" type="line"/>
    </contour>
    <contour>
      <point x="107" y="283" type="curve" smooth="yes"/>
      <point x="190" y="283"/>
      <point x="241" y="325"/>
      <point x="241" y="403" type="curve" smooth="yes"/>
      <point x="241" y="463"/>
      <point x="210" y="499"/>
      <point x="157" y="514" type="curve"/>
      <point x="157" y="515" type="line"/>
      <point x="197" y="529"/>
      <point x="230" y="564"/>
      <point x="230" y="621" type="curve" smooth="yes"/>
      <point x="230" y="687"/>
      <point x="188" y="723"/>
      <point x="125" y="723" type="curve" smooth="yes"/>
      <point x="83" y="723"/>
      <point x="51" y="707"/>
      <point x="24" y="684" type="curve"/>
      <point x="38" y="665" type="line"/>
      <point x="62" y="686"/>
      <point x="89" y="700"/>
      <point x="125" y="700" type="curve" smooth="yes"/>
      <point x="177" y="700"/>
      <point x="205" y="672"/>
      <point x="205" y="621" type="curve" smooth="yes"/>
      <point x="205" y="563"/>
      <point x="168" y="523"/>
      <point x="110" y="523" type="curve" smooth="yes"/>
      <point x="77" y="523" type="line"/>
      <point x="77" y="500" type="line"/>
      <point x="110" y="500" type="line" smooth="yes"/>
      <point x="180" y="500"/>
      <point x="216" y="460"/>
      <point x="216" y="403" type="curve" smooth="yes"/>
      <point x="216" y="345"/>
      <point x="179" y="306"/>
      <point x="107" y="306" type="curve" smooth="yes"/>
      <point x="77" y="306"/>
      <point x="50" y="313"/>
      <point x="23" y="327" type="curve"/>
      <point x="23" y="300" type="line"/>
      <point x="46" y="289"/>
      <point x="76" y="283"/>
    </contour>
    <contour>
      <point x="540" y="0" type="line"/>
      <point x="564" y="0" type="line"/>
      <point x="564" y="118" type="line"/>
      <point x="624" y="118" type="line"/>
      <point x="624" y="141" type="line"/>
      <point x="564" y="141" type="line"/>
      <point x="564" y="431" type="line"/>
      <point x="545" y="431" type="line"/>
      <point x="377" y="136" type="line"/>
      <point x="377" y="118" type="line"/>
      <point x="540" y="118" type="line"/>
    </contour>
    <contour>
      <point x="405" y="141" type="line"/>
      <point x="521" y="346" type="line" smooth="yes"/>
      <point x="530" y="362"/>
      <point x="535" y="372"/>
      <point x="540" y="384" type="curve"/>
      <point x="540" y="370"/>
      <point x="540" y="362"/>
      <point x="540" y="334" type="curve" smooth="yes"/>
      <point x="540" y="141" type="line"/>
    </contour>
  </outline>
</glyph>
<glyph name="AE" format="2">
  <advance width="570"/>
  <unicode hex="00C6"/>
  <anchor x="285" y="0" name="bottom"/>
  <anchor x="285" y="714" name="top"/>
  <outline>
    <contour>
      <point x="522" y="0" type="line"/>
      <point x="522" y="25" type="line"/>
      <point x="253" y="25" type="line"/>
      <point x="253" y="363" type="line"/>
      <point x="509" y="363" type="line"/>
      <point x="509" y="388" type="line"/>
      <point x="253" y="388" type="line"/>
      <point x="253" y="689" type="line"/>
      <point x="522" y="689" type="line"/>
      <point x="522" y="714" type="line"/>
      <point x="202" y="714" type="line"/>
      <point x="0" y="0" type="line"/>
      <point x="29" y="0" type="line"/>
      <point x="107" y="280" type="line"/>
      <point x="227" y="280" type="line"/>
      <point x="227" y="0" type="line"/>
    </contour>
    <contour>
      <point x="112" y="305" type="line"/>
      <point x="220" y="688" type="line"/>
      <point x="227" y="688" type="line"/>
      <point x="227" y="305" type="line"/>
    </contour>
  </outline>
</glyph>
<glyph name="Eth" format="2">
  <advance width="479"/>
  <unicode hex="00D0"/>
  <anchor x="240" y="0" name="bottom"/>
  <anchor x="240" y="714" name="top"/>
  <outline>
    <contour>
      <point x="197" y="714" type="curve" smooth="yes"/>
      <point x="85" y="714" type="line"/>
      <point x="85" y="388" type="line"/>
      <point x="30" y="388" type="line"/>
      <point x="30" y="363" type="line"/>
      <point x="85" y="363" type="line"/>
      <point x="85" y="0" type="line"/>
      <point x="196" y="0" type="line" smooth="yes"/>
      <point x="356" y="0"/>
      <point x="425" y="124"/>
      <point x="425" y="364" type="curve" smooth="yes"/>
      <point x="425" y="596"/>
      <point x="356" y="714"/>
    </contour>
    <contour>
      <point x="195" y="689" type="line"/>
      <point x="346" y="689"/>
      <point x="398" y="570"/>
      <point x="398" y="362" type="curve" smooth="yes"/>
      <point x="398" y="141"/>
      <point x="338" y="25"/>
      <point x="194" y="25" type="curve" smooth="yes"/>
      <point x="111" y="25" type="line"/>
      <point x="111" y="363" type="line"/>
      <point x="249" y="363" type="line"/>
      <point x="249" y="388" type="line"/>
      <point x="111" y="388" type="line"/>
      <point x="111" y="689" type="line"/>
    </contour>
  </outline>
</glyph>
<glyph name="multiply" format="2">
  <advance width="399"/>
  <unicode hex="00D7"/>
  <outline>
    <contour>
      <point x="343" y="514" type="line"/>
      <point x="200" y="370" type="line"/>
      <point x="58" y="514" type="line"/>
      <point x="42" y="498" type="line"/>
      <point x="184" y="354" type="line"/>
      <point x="40" y="209" type="line"/>
      <point x="55" y="193" type="line"/>
      <point x="199" y="338" type="line"/>
      <point x="341" y="194" type="line"/>
      <point x="357" y="210" type="line"/>
      <point x="215" y="354" type="line"/>
      <point x="359" y="499" type="line"/>
    </contour>
  </outline>
</glyph>
<glyph name="Oslash" format="2">
  <advance width="538"/>
  <unicode hex="00D8"/>
  <anchor x="269" y="0" name="bottom"/>
  <anchor x="269" y="714" name="top"/>
  <outline>
    <contour>
      <point x="480" y="358" type="curve" smooth="yes"/>
      <point x="480" y="465"/>
      <point x="466" y="558"/>
      <point x="434" y="623" type="curve"/>
      <point x="497" y="741" type="line"/>
      <point x="474" y="752" type="line"/>
      <point x="419" y="649" type="line"/>
      <point x="387" y="696"/>
      <point x="342" y="724"/>
      <point x="280" y="724" type="curve" smooth="yes"/>
      <point x="149" y="724"/>
      <point x="77" y="602"/>
      <point x="77" y="358" type="curve" smooth="yes"/>
      <point x="77" y="260"/>
      <point x="89" y="163"/>
      <point x="124" y="93" type="curve"/>
      <point x="48" y="-50" type="line"/>
      <point x="70" y="-62" type="line"/>
      <point x="139" y="67" type="line"/>
      <point x="170" y="20"/>
      <point x="216" y="-10"/>
      <point x="280" y="-10" type="curve" smooth="yes"/>
      <point x="439" y="-10"/>
      <point x="480" y="165"/>
    </contour>
    <contour>
      <point x="454" y="358" type="curve" smooth="yes"/>
      <point x="454" y="135"/>
      <point x="397" y="15"/>
      <point x="280" y="15" type="curve" smooth="yes"/>
      <point x="226" y="15"/>
      <point x="184" y="43"/>
      <point x="154" y="96" type="curve"/>
      <point x="419" y="594" type="line"/>
      <point x="442" y="537"/>
      <point x="454" y="457"/>
    </contour>
    <contour>
      <point x="103" y="358" type="curve" smooth="yes"/>
      <point x="103" y="574"/>
      <point x="160" y="699"/>
      <point x="280" y="699" type="curve" smooth="yes"/>
      <point x="335" y="699"/>
      <point x="376" y="672"/>
      <point x="405" y="622" type="curve"/>
      <point x="140" y="124" type="line"/>
      <point x="116" y="181"/>
      <point x="103" y="260"/>
    </contour>
  </outline>
</glyph>
<glyph name="Thorn" format="2">
  <advance width="397"/>
  <unicode hex="00DE"/>
  <anchor x="199" y="0" name="bottom"/>
  <anchor x="199" y="714" name="top"/>
  <outline>
    <contour>
      <point x="365" y="385" type="curve" smooth="yes"/>
      <point x="365" y="527"/>
      <point x="308" y="579"/>
      <point x="187" y="579" type="curve" smooth="yes"/>
      <point x="104" y="579" type="line"/>
      <point x="104" y="714" type="line"/>
      <point x="78" y="714" type="line"/>
      <point x="78" y="0" type="line"/>
      <point x="104" y="0" type="line"/>
      <point x="104" y="170" type="line"/>
      <point x="178" y="170" type="line" smooth="yes"/>
      <point x="309" y="170"/>
      <point x="365" y="242"/>
    </contour>
    <contour>
      <point x="173" y="195" type="curve" smooth="yes"/>
      <point x="104" y="195" type="line"/>
      <point x="104" y="554" type="line"/>
      <point x="182" y="554" type="line" smooth="yes"/>
      <point x="295" y="554"/>
      <point x="338" y="507"/>
      <point x="338" y="385" type="curve" smooth="yes"/>
      <point x="338" y="260"/>
      <point x="292" y="195"/>
    </contour>
  </outline>
</glyph>
<glyph name="germandbls" format="2">
  <advance width="375"/>
  <unicode hex="00DF"/>
  <anchor x="188" y="0" name="bottom"/>
  <anchor x="188" y="765" name="top"/>
  <outline>
    <contour>
      <point x="296" y="649" type="curve" smooth="yes"/>
      <point x="296" y="713"/>
      <point x="261" y="765"/>
      <point x="192" y="765" type="curve" smooth="yes"/>
      <point x="110" y="765"/>
      <point x="71" y="698"/>
      <point x="71" y="581" type="curve" smooth="yes"/>
      <point x="71" y="0" type="line"/>
      <point x="97" y="0" type="line"/>
      <point x="97" y="578" type="line" smooth="yes"/>
      <point x="97" y="676"/>
      <point x="124" y="740"/>
      <point x="192" y="740" type="curve" smooth="yes"/>
      <point x="244" y="740"/>
      <point x="269" y="700"/>
      <point x="269" y="649" type="curve" smooth="yes"/>
      <point x="269" y="546"/>
      <point x="179" y="523"/>
      <point x="179" y="427" type="curve" smooth="yes"/>
      <point x="179" y="368"/>
      <point x="211" y="327"/>
      <point x="248" y="280" type="curve" smooth="yes"/>
      <point x="285" y="234"/>
      <point x="314" y="197"/>
      <point x="314" y="135" type="curve" smooth="yes"/>
      <point x="314" y="67"/>
      <point x="280" y="15"/>
      <point x="216" y="15" type="curve" smooth="yes"/>
      <point x="190" y="15"/>
      <point x="163" y="23"/>
      <point x="137" y="40" type="curve"/>
      <point x="137" y="13" type="line"/>
      <point x="158" y="-3"/>
      <point x="188" y="-10"/>
      <point x="216" y="-10" type="curve" smooth="yes"/>
      <point x="303" y="-10"/>
      <point x="341" y="58"/>
      <point x="341" y="135" type="curve" smooth="yes"/>
      <point x="341" y="198"/>
      <point x="314" y="238"/>
      <point x="272" y="293" type="curve" smooth="yes"/>
      <point x="237" y="339"/>
      <point x="206" y="369"/>
      <point x="206" y="427" type="curve" smooth="yes"/>
      <point x="206" y="514"/>
      <point x="296" y="534"/>
    </contour>
  </outline>
</glyph>
<glyph name="ae" format="2">
  <advance width="608"/>
  <unicode hex="00E6"/>
  <anchor x="304" y="0" name="bottom"/>
  <anchor x="304" y="527" name="top"/>
  <outline>
    <contour>
      <point x="424" y="537" type="curve" smooth="yes"/>
      <point x="351" y="537"/>
      <point x="308" y="477"/>
      <point x="293" y="405" type="curve"/>
      <point x="288" y="494"/>
      <point x="250" y="537"/>
      <point x="182" y="537" type="curve" smooth="yes"/>
      <point x="144" y="537"/>
      <point x="103" y="524"/>
      <point x="75" y="506" type="curve"/>
      <point x="86" y="483" type="line"/>
      <point x="123" y="505"/>
      <point x="161" y="512"/>
      <point x="183" y="512" type="curve" smooth="yes"/>
      <point x="239" y="512"/>
      <point x="272" y="468"/>
      <point x="272" y="380" type="curve" smooth="yes"/>
      <point x="272" y="299" type="line"/>
      <point x="214" y="295" type="line" smooth="yes"/>
      <point x="106" y="288"/>
      <point x="38" y="237"/>
      <point x="38" y="130" type="curve" smooth="yes"/>
      <point x="38" y="50"/>
      <point x="76" y="-10"/>
      <point x="156" y="-10" type="curve" smooth="yes"/>
      <point x="233" y="-10"/>
      <point x="280" y="46"/>
      <point x="290" y="136" type="curve"/>
      <point x="305" y="60"/>
      <point x="349" y="-10"/>
      <point x="439" y="-10" type="curve" smooth="yes"/>
      <point x="476" y="-10"/>
      <point x="518" y="2"/>
      <point x="545" y="21" type="curve"/>
      <point x="545" y="49" type="line"/>
      <point x="512" y="25"/>
      <point x="469" y="15"/>
      <point x="439" y="15" type="curve" smooth="yes"/>
      <point x="351" y="15"/>
      <point x="299" y="105"/>
      <point x="298" y="274" type="curve"/>
      <point x="561" y="274" type="line"/>
      <point x="561" y="303" type="line" smooth="yes"/>
      <point x="561" y="426"/>
      <point x="524" y="537"/>
    </contour>
    <contour>
      <point x="214" y="271" type="curve" smooth="yes"/>
      <point x="272" y="275" type="line"/>
      <point x="272" y="179" type="line" smooth="yes"/>
      <point x="272" y="91"/>
      <point x="235" y="15"/>
      <point x="156" y="15" type="curve" smooth="yes"/>
      <point x="93" y="15"/>
      <point x="65" y="63"/>
      <point x="65" y="130" type="curve" smooth="yes"/>
      <point x="65" y="213"/>
      <point x="108" y="264"/>
    </contour>
    <contour>
      <point x="423" y="512" type="curve" smooth="yes"/>
      <point x="502" y="512"/>
      <point x="537" y="420"/>
      <point x="536" y="299" type="curve"/>
      <point x="298" y="299" type="line"/>
      <point x="302" y="438"/>
      <point x="353" y="512"/>
    </contour>
  </outline>
</glyph>
<glyph name="eth" format="2">
  <advance width="399"/>
  <unicode hex="00F0"/>
  <anchor x="200" y="0" name="bottom"/>
  <anchor x="200" y="758" name="top"/>
  <outline>
    <contour>
      <point x="135" y="757" type="curve"/>
      <point x="116" y="743" type="line"/>
      <point x="136" y="731"/>
      <point x="160" y="713"/>
      <point x="179" y="692" type="curve"/>
      <point x="102" y="645" type="line"/>
      <point x="114" y="625" type="line"/>
      <point x="195" y="675" type="line"/>
      <point x="263" y="599"/>
      <point x="303" y="492"/>
      <point x="318" y="389" type="curve"/>
      <point x="315" y="389" type="line"/>
      <point x="302" y="420"/>
      <point x="265" y="463"/>
      <point x="203" y="463" type="curve" smooth="yes"/>
      <point x="115" y="463"/>
      <point x="46" y="375"/>
      <point x="46" y="225" type="curve" smooth="yes"/>
      <point x="46" y="107"/>
      <point x="89" y="-10"/>
      <point x="202" y="-10" type="curve" smooth="yes"/>
      <point x="295" y="-10"/>
      <point x="353" y="69"/>
      <point x="353" y="259" type="curve" smooth="yes"/>
      <point x="353" y="423"/>
      <point x="310" y="578"/>
      <point x="217" y="687" type="curve"/>
      <point x="301" y="737" type="line"/>
      <point x="289" y="758" type="line"/>
      <point x="201" y="704" type="line"/>
      <point x="182" y="724"/>
      <point x="160" y="742"/>
    </contour>
    <contour>
      <point x="206" y="438" type="curve" smooth="yes"/>
      <point x="279" y="438"/>
      <point x="326" y="370"/>
      <point x="326" y="232" type="curve" smooth="yes"/>
      <point x="326" y="102"/>
      <point x="285" y="15"/>
      <point x="202" y="15" type="curve" smooth="yes"/>
      <point x="118" y="15"/>
      <point x="72" y="105"/>
      <point x="72" y="225" type="curve" smooth="yes"/>
      <point x="72" y="353"/>
      <point x="124" y="438"/>
    </contour>
  </outline>
</glyph>
<glyph name="divide" format="2">
  <advance width="399"/>
  <unicode hex="00F7"/>
  <outline>
    <contour>
      <point x="29" y="340" type="line"/>
      <point x="369" y="340" type="line"/>
      <point x="369" y="365" type="line"/>
      <point x="29" y="365" type="line"/>
    </contour>
    <contour>
      <point x="199" y="140" type="curve" smooth="yes"/>
      <point x="219" y="140"/>
      <point x="224" y="156"/>
      <point x="224" y="176" type="curve" smooth="yes"/>
      <point x="224" y="195"/>
      <point x="219" y="211"/>
      <point x="199" y="211" type="curve" smooth="yes"/>
      <point x="181" y="211"/>
      <point x="174" y="196"/>
      <point x="174" y="174" type="curve" smooth="yes"/>
      <point x="174" y="157"/>
      <point x="178" y="140"/>
    </contour>
    <contour>
      <point x="199" y="494" type="curve" smooth="yes"/>
      <point x="219" y="494"/>
      <point x="224" y="509"/>
      <point x="224" y="529" type="curve" smooth="yes"/>
      <point x="224" y="549"/>
      <point x="219" y="565"/>
      <point x="199" y="565" type="curve" smooth="yes"/>
      <point x="179" y="565"/>
      <point x="174" y="549"/>
      <point x="174" y="530" type="curve" smooth="yes"/>
      <point x="174" y="510"/>
      <point x="179" y="494"/>
    </contour>
  </outline>
</glyph>
<glyph name="oslash" format="2">
  <advance width="438"/>
  <unicode hex="00F8"/>
  <anchor x="219" y="0" name="bottom"/>
  <anchor x="219" y="527" name="top"/>
  <outline>
    <contour>
      <point x="384" y="264" type="curve" smooth="yes"/>
      <point x="384" y="351"/>
      <point x="373" y="420"/>
      <point x="347" y="468" type="curve"/>
      <point x="404" y="574" type="line"/>
      <point x="383" y="585" type="line"/>
      <point x="332" y="490" type="line"/>
      <point x="308" y="521"/>
      <point x="274" y="537"/>
      <point x="229" y="537" type="curve" smooth="yes"/>
      <point x="123" y="537"/>
      <point x="73" y="444"/>
      <point x="73" y="266" type="curve" smooth="yes"/>
      <point x="73" y="180"/>
      <point x="84" y="115"/>
      <point x="107" y="70" type="curve"/>
      <point x="33" y="-68" type="line"/>
      <point x="53" y="-80" type="line"/>
      <point x="121" y="46" type="line"/>
      <point x="147" y="9"/>
      <point x="184" y="-10"/>
      <point x="231" y="-10" type="curve" smooth="yes"/>
      <point x="333" y="-10"/>
      <point x="384" y="77"/>
    </contour>
    <contour>
      <point x="99" y="266" type="curve" smooth="yes"/>
      <point x="99" y="424"/>
      <point x="137" y="512"/>
      <point x="229" y="512" type="curve" smooth="yes"/>
      <point x="269" y="512"/>
      <point x="298" y="495"/>
      <point x="319" y="465" type="curve"/>
      <point x="122" y="98" type="line"/>
      <point x="107" y="140"/>
      <point x="99" y="196"/>
    </contour>
    <contour>
      <point x="358" y="265" type="curve" smooth="yes"/>
      <point x="358" y="94"/>
      <point x="318" y="15"/>
      <point x="230" y="15" type="curve" smooth="yes"/>
      <point x="188" y="15"/>
      <point x="156" y="34"/>
      <point x="135" y="72" type="curve"/>
      <point x="332" y="440" type="line"/>
      <point x="350" y="398"/>
      <point x="358" y="338"/>
    </contour>
  </outline>
</glyph>
<glyph name="thorn" format="2">
  <advance width="423"/>
  <unicode hex="00FE"/>
  <anchor x="212" y="-232" name="bottom"/>
  <anchor x="212" y="760" name="top"/>
  <outline>
    <contour>
      <point x="378" y="270" type="curve" smooth="yes"/>
      <point x="378" y="450"/>
      <point x="326" y="537"/>
      <point x="228" y="537" type="curve" smooth="yes"/>
      <point x="143" y="537"/>
      <point x="110" y="472"/>
      <point x="93" y="404" type="curve"/>
      <point x="91" y="404" type="line"/>
      <point x="95" y="444"/>
      <point x="97" y="488"/>
      <point x="97" y="520" type="curve" smooth="yes"/>
      <point x="97" y="760" type="line"/>
      <point x="71" y="760" type="line"/>
      <point x="71" y="-232" type="line"/>
      <point x="97" y="-232" type="line"/>
      <point x="97" y="37" type="line" smooth="yes"/>
      <point x="97" y="69"/>
      <point x="96" y="95"/>
      <point x="95" y="107" type="curve"/>
      <point x="98" y="107" type="line"/>
      <point x="111" y="53"/>
      <point x="146" y="-10"/>
      <point x="225" y="-10" type="curve" smooth="yes"/>
      <point x="317" y="-10"/>
      <point x="378" y="75"/>
    </contour>
    <contour>
      <point x="353" y="270" type="curve" smooth="yes"/>
      <point x="353" y="79"/>
      <point x="294" y="15"/>
      <point x="226" y="15" type="curve" smooth="yes"/>
      <point x="152" y="15"/>
      <point x="97" y="88"/>
      <point x="97" y="219" type="curve" smooth="yes"/>
      <point x="97" y="292" type="line" smooth="yes"/>
      <point x="97" y="428"/>
      <point x="145" y="512"/>
      <point x="227" y="512" type="curve" smooth="yes"/>
      <point x="313" y="512"/>
      <point x="353" y="424"/>
    </contour>
  </outline>
</glyph>
<glyph name="dcroat" format="2">
  <advance width="434"/>
  <unicode hex="0111"/>
  <anchor x="217" y="0" name="bottom"/>
  <anchor x="217" y="760" name="top"/>
  <outline>
    <contour>
      <point x="195" y="-10" type="curve" smooth="yes"/>
      <point x="276" y="-10"/>
      <point x="316" y="52"/>
      <point x="328" y="106" type="curve"/>
      <point x="330" y="106" type="line"/>
      <point x="333" y="0" type="line"/>
      <point x="354" y="0" type="line"/>
      <point x="354" y="633" type="line"/>
      <point x="422" y="633" type="line"/>
      <point x="422" y="658" type="line"/>
      <point x="354" y="658" type="line"/>
      <point x="354" y="760" type="line"/>
      <point x="328" y="760" type="line"/>
      <point x="328" y="658" type="line"/>
      <point x="203" y="658" type="line"/>
      <point x="203" y="633" type="line"/>
      <point x="328" y="633" type="line"/>
      <point x="328" y="497" type="line" smooth="yes"/>
      <point x="328" y="475"/>
      <point x="329" y="454"/>
      <point x="330" y="429" type="curve"/>
      <point x="328" y="429" type="line"/>
      <point x="317" y="479"/>
      <point x="274" y="537"/>
      <point x="199" y="537" type="curve" smooth="yes"/>
      <point x="102" y="537"/>
      <point x="46" y="440"/>
      <point x="46" y="256" type="curve" smooth="yes"/>
      <point x="46" y="82"/>
      <point x="96" y="-10"/>
    </contour>
    <contour>
      <point x="197" y="15" type="curve" smooth="yes"/>
      <point x="109" y="15"/>
      <point x="73" y="104"/>
      <point x="73" y="256" type="curve" smooth="yes"/>
      <point x="73" y="424"/>
      <point x="117" y="512"/>
      <point x="200" y="512" type="curve" smooth="yes"/>
      <point x="280" y="512"/>
      <point x="328" y="432"/>
      <point x="328" y="315" type="curve" smooth="yes"/>
      <point x="328" y="221" type="line" smooth="yes"/>
      <point x="328" y="97"/>
      <point x="281" y="15"/>
    </contour>
  </outline>
</glyph>
<glyph name="eogonek" format="2">
  <advance width="380"/>
  <unicode hex="0119"/>
  <anchor x="200" y="-217" name="bottom"/>
  <anchor x="190" y="527" name="top"/>
  <outline>
    <contour>
      <point x="216" y="-139" type="curve" smooth="yes"/>
      <point x="216" y="-90"/>
      <point x="268" y="-23"/>
      <point x="318" y="22" type="curve"/>
      <point x="286" y="11" type="line"/>
      <point x="228" y="-34"/>
      <point x="190" y="-88"/>
      <point x="190" y="-140" type="curve" smooth="yes"/>
      <point x="190" y="-192"/>
      <point x="223" y="-217"/>
      <point x="269" y="-217" type="curve" smooth="yes"/>
      <point x="284" y="-217"/>
      <point x="297" y="-214"/>
      <point x="305" y="-211" type="curve"/>
      <point x="305" y="-188" type="line"/>
      <point x="299" y="-190"/>
      <point x="284" y="-193"/>
      <point x="270" y="-193" type="curve" smooth="yes"/>
      <point x="234" y="-193"/>
      <point x="216" y="-174"/>
    </contour>
    <component base="e"/>
  </outline>
</glyph>
<glyph name="Hbar" format="2">
  <advance width="490"/>
  <unicode hex="0126"/>
  <anchor x="245" y="0" name="bottom"/>
  <anchor x="245" y="714" name="top"/>
  <outline>
    <contour>
      <point x="78" y="0" type="line"/>
      <point x="104" y="0" type="line"/>
      <point x="104" y="363" type="line"/>
      <point x="382" y="363" type="line"/>
      <point x="382" y="0" type="line"/>
      <point x="408" y="0" type="line"/>
      <point x="408" y="546" type="line"/>
      <point x="490" y="546" type="line"/>
      <point x="490" y="571" type="line"/>
      <point x="408" y="571" type="line"/>
      <point x="408" y="714" type="line"/>
      <point x="382" y="714" type="line"/>
      <point x="382" y="571" type="line"/>
      <point x="104" y="571" type="line"/>
      <point x="104" y="714" type="line"/>
      <point x="78" y="714" type="line"/>
      <point x="78" y="571" type="line"/>
      <point x="0" y="571" type="line"/>
      <point x="0" y="546" type="line"/>
      <point x="78" y="546" type="line"/>
    </contour>
    <contour>
      <point x="104" y="388" type="line"/>
      <point x="104" y="546" type="line"/>
      <point x="382" y="546" type="line"/>
      <point x="382" y="388" type="line"/>
    </contour>
  </outline>
</glyph>
<glyph name="hbar" format="2">
  <advance width="416"/>
  <unicode hex="0127"/>
  <anchor x="208" y="0" name="bottom"/>
  <anchor x="208" y="760" name="top"/>
  <outline>
    <contour>
      <point x="105" y="760" type="line"/>
      <point x="79" y="760" type="line"/>
      <point x="79" y="658" type="line"/>
      <point x="13" y="658" type="line"/>
      <point x="13" y="633" type="line"/>
      <point x="79" y="633" type="line"/>
      <point x="79" y="0" type="line"/>
      <point x="105" y="0" type="line"/>
      <point x="105" y="298" type="line" smooth="yes"/>
      <point x="105" y="447"/>
      <point x="166" y="512"/>
      <point x="231" y="512" type="curve" smooth="yes"/>
      <point x="283" y="512"/>
      <point x="321" y="472"/>
      <point x="321" y="360" type="curve" smooth="yes"/>
      <point x="321" y="0" type="line"/>
      <point x="347" y="0" type="line"/>
      <point x="347" y="366" type="line" smooth="yes"/>
      <point x="347" y="481"/>
      <point x="306" y="537"/>
      <point x="232" y="537" type="curve" smooth="yes"/>
      <point x="155" y="537"/>
      <point x="121" y="475"/>
      <point x="105" y="424" type="curve"/>
      <point x="103" y="424" type="line"/>
      <point x="105" y="446"/>
      <point x="105" y="461"/>
      <point x="105" y="492" type="curve" smooth="yes"/>
      <point x="105" y="633" type="line"/>
      <point x="232" y="633" type="line"/>
      <point x="232" y="658" type="line"/>
      <point x="105" y="658" type="line"/>
    </contour>
  </outline>
</glyph>
<glyph name="idotless" format="2">
  <advance width="166"/>
  <unicode hex="0131"/>
  <anchor x="83" y="0" name="bottom"/>
  <anchor x="83" y="527" name="top"/>
  <outline>
    <contour>
      <point x="96" y="0" type="line"/>
      <point x="96" y="527" type="line"/>
      <point x="71" y="527" type="line"/>
      <point x="71" y="0" type="line"/>
    </contour>
  </outline>
</glyph>
<glyph name="kgreenlandic" format="2">
  <advance width="324"/>
  <unicode hex="0138"/>
  <anchor x="162" y="0" name="bottom"/>
  <anchor x="162" y="527" name="top"/>
  <outline>
    <contour>
      <point x="306" y="527" type="line"/>
      <point x="277" y="527" type="line"/>
      <point x="129" y="290" type="line" smooth="yes"/>
      <point x="116" y="270"/>
      <point x="107" y="254"/>
      <point x="96" y="234" type="curve"/>
      <point x="95" y="234" type="line"/>
      <point x="96" y="275"/>
      <point x="97" y="318"/>
      <point x="97" y="354" type="curve" smooth="yes"/>
      <point x="97" y="527" type="line"/>
      <point x="71" y="527" type="line"/>
      <point x="71" y="0" type="line"/>
      <point x="97" y="0" type="line"/>
      <point x="97" y="198" type="line"/>
      <point x="166" y="304" type="line"/>
      <point x="291" y="0" type="line"/>
      <point x="317" y="0" type="line"/>
      <point x="183" y="327" type="line"/>
    </contour>
  </outline>
</glyph>
<glyph name="Lslash" format="2">
  <advance width="343"/>
  <unicode hex="0141"/>
  <anchor x="191" y="0" name="bottom"/>
  <anchor x="172" y="714" name="top"/>
  <outline>
    <contour>
      <point x="79" y="0" type="line"/>
      <point x="322" y="0" type="line"/>
      <point x="322" y="25" type="line"/>
      <point x="105" y="25" type="line"/>
      <point x="105" y="281" type="line"/>
      <point x="258" y="376" type="line"/>
      <point x="246" y="396" type="line"/>
      <point x="105" y="308" type="line"/>
      <point x="105" y="714" type="line"/>
      <point x="79" y="714" type="line"/>
      <point x="79" y="292" type="line"/>
      <point x="2" y="244" type="line"/>
      <point x="13" y="224" type="line"/>
      <point x="79" y="265" type="line"/>
    </contour>
  </outline>
</glyph>
<glyph name="lslash" format="2">
  <advance width="179"/>
  <unicode hex="0142"/>
  <anchor x="90" y="0" name="bottom"/>
  <anchor x="90" y="760" name="top"/>
  <outline>
    <contour>
      <point x="75" y="0" type="line"/>
      <point x="101" y="0" type="line"/>
      <point x="101" y="388" type="line"/>
      <point x="199" y="453" type="line"/>
      <point x="187" y="473" type="line"/>
      <point x="101" y="416" type="line"/>
      <point x="101" y="760" type="line"/>
      <point x="75" y="760" type="line"/>
      <point x="75" y="398" type="line"/>
      <point x="-17" y="337" type="line"/>
      <point x="-6" y="317" type="line"/>
      <point x="75" y="371" type="line"/>
    </contour>
  </outline>
</glyph>
<glyph name="Eng" format="2">
  <advance width="506"/>
  <unicode hex="014A"/>
  <anchor x="253" y="-175" name="bottom"/>
  <anchor x="253" y="714" name="top"/>
  <outline>
    <contour>
      <point x="332" y="-175" type="curve" smooth="yes"/>
      <point x="396" y="-175"/>
      <point x="429" y="-124"/>
      <point x="429" y="-7" type="curve" smooth="yes"/>
      <point x="429" y="714" type="line"/>
      <point x="403" y="714" type="line"/>
      <point x="403" y="179" type="line"/>
      <point x="403" y="149"/>
      <point x="404" y="111"/>
      <point x="404" y="71" type="curve"/>
      <point x="402" y="71" type="line"/>
      <point x="107" y="714" type="line"/>
      <point x="78" y="714" type="line"/>
      <point x="78" y="0" type="line"/>
      <point x="104" y="0" type="line"/>
      <point x="104" y="554" type="line"/>
      <point x="104" y="610"/>
      <point x="103" y="639"/>
      <point x="102" y="665" type="curve"/>
      <point x="104" y="665" type="line"/>
      <point x="405" y="10" type="line"/>
      <point x="405" y="-112"/>
      <point x="381" y="-150"/>
      <point x="331" y="-150" type="curve" smooth="yes"/>
      <point x="313" y="-150"/>
      <point x="288" y="-144"/>
      <point x="274" y="-137" type="curve"/>
      <point x="274" y="-163" type="line"/>
      <point x="287" y="-170"/>
      <point x="312" y="-175"/>
    </contour>
  </outline>
</glyph>
<glyph name="eng" format="2">
  <advance width="408"/>
  <unicode hex="014B"/>
  <anchor x="204" y="-242" name="bottom"/>
  <anchor x="204" y="527" name="top"/>
  <anchor x="388" y="527" name="topright"/>
  <outline>
    <contour>
      <point x="266" y="-242" type="curve" smooth="yes"/>
      <point x="314" y="-242"/>
      <point x="339" y="-202"/>
      <point x="339" y="-112" type="curve" smooth="yes"/>
      <point x="339" y="375" type="line" smooth="yes"/>
      <point x="339" y="488"/>
      <point x="295" y="537"/>
      <point x="227" y="537" type="curve" smooth="yes"/>
      <point x="146" y="537"/>
      <point x="109" y="470"/>
      <point x="95" y="415" type="curve"/>
      <point x="93" y="415" type="line"/>
      <point x="90" y="527" type="line"/>
      <point x="71" y="527" type="line"/>
      <point x="71" y="0" type="line"/>
      <point x="97" y="0" type="line"/>
      <point x="97" y="316" type="line" smooth="yes"/>
      <point x="97" y="449"/>
      <point x="159" y="513"/>
      <point x="224" y="513" type="curve" smooth="yes"/>
      <point x="279" y="513"/>
      <point x="313" y="472"/>
      <point x="313" y="365" type="curve" smooth="yes"/>
      <point x="313" y="-112" type="line" smooth="yes"/>
      <point x="313" y="-178"/>
      <point x="298" y="-217"/>
      <point x="265" y="-217" type="curve" smooth="yes"/>
      <point x="257" y="-217"/>
      <point x="247" y="-215"/>
      <point x="237" y="-210" type="curve"/>
      <point x="237" y="-236" type="line"/>
      <point x="245" y="-239"/>
      <point x="254" y="-242"/>
    </contour>
  </outline>
</glyph>
<glyph name="OE" format="2">
  <advance width="604"/>
  <unicode hex="0152"/>
  <anchor x="302" y="0" name="bottom"/>
  <anchor x="302" y="714" name="top"/>
  <outline>
    <contour>
      <point x="286" y="714" type="curve" smooth="yes"/>
      <point x="97" y="714"/>
      <point x="54" y="571"/>
      <point x="54" y="359" type="curve" smooth="yes"/>
      <point x="54" y="121"/>
      <point x="125" y="-2"/>
      <point x="278" y="-2" type="curve" smooth="yes"/>
      <point x="301" y="-2"/>
      <point x="319" y="0"/>
      <point x="336" y="0" type="curve" smooth="yes"/>
      <point x="557" y="0" type="line"/>
      <point x="557" y="25" type="line"/>
      <point x="307" y="25" type="line"/>
      <point x="307" y="363" type="line"/>
      <point x="544" y="363" type="line"/>
      <point x="544" y="388" type="line"/>
      <point x="307" y="388" type="line"/>
      <point x="307" y="690" type="line"/>
      <point x="557" y="690" type="line"/>
      <point x="557" y="714" type="line"/>
      <point x="341" y="714" type="line" smooth="yes"/>
      <point x="324" y="714"/>
      <point x="314" y="714"/>
    </contour>
    <contour>
      <point x="273" y="690" type="curve"/>
      <point x="276" y="690"/>
      <point x="278" y="690"/>
      <point x="281" y="690" type="curve"/>
      <point x="281" y="23" type="line"/>
      <point x="278" y="23"/>
      <point x="280" y="23"/>
      <point x="277" y="23" type="curve" smooth="yes"/>
      <point x="139" y="23"/>
      <point x="80" y="153"/>
      <point x="80" y="359" type="curve" smooth="yes"/>
      <point x="80" y="545"/>
      <point x="113" y="690"/>
    </contour>
  </outline>
</glyph>
<glyph name="oe" format="2">
  <advance width="682"/>
  <unicode hex="0153"/>
  <anchor x="341" y="0" name="bottom"/>
  <anchor x="341" y="527" name="top"/>
  <outline>
    <contour>
      <point x="495" y="537" type="curve" smooth="yes"/>
      <point x="410" y="537"/>
      <point x="367" y="466"/>
      <point x="352" y="385" type="curve"/>
      <point x="340" y="473"/>
      <point x="296" y="537"/>
      <point x="210" y="537" type="curve" smooth="yes"/>
      <point x="104" y="537"/>
      <point x="46" y="452"/>
      <point x="46" y="264" type="curve" smooth="yes"/>
      <point x="46" y="85"/>
      <point x="99" y="-10"/>
      <point x="202" y="-10" type="curve" smooth="yes"/>
      <point x="290" y="-10"/>
      <point x="339" y="58"/>
      <point x="352" y="146" type="curve"/>
      <point x="369" y="53"/>
      <point x="419" y="-10"/>
      <point x="515" y="-10" type="curve" smooth="yes"/>
      <point x="557" y="-10"/>
      <point x="591" y="2"/>
      <point x="619" y="21" type="curve"/>
      <point x="619" y="49" type="line"/>
      <point x="583" y="24"/>
      <point x="552" y="15"/>
      <point x="519" y="15" type="curve" smooth="yes"/>
      <point x="416" y="15"/>
      <point x="362" y="100"/>
      <point x="364" y="270" type="curve"/>
      <point x="635" y="270" type="line"/>
      <point x="635" y="301" type="line"/>
      <point x="635" y="421"/>
      <point x="604" y="537"/>
    </contour>
    <contour>
      <point x="210" y="512" type="curve" smooth="yes"/>
      <point x="301" y="512"/>
      <point x="338" y="422"/>
      <point x="338" y="265" type="curve" smooth="yes"/>
      <point x="338" y="114"/>
      <point x="300" y="15"/>
      <point x="202" y="15" type="curve" smooth="yes"/>
      <point x="113" y="15"/>
      <point x="72" y="106"/>
      <point x="72" y="264" type="curve" smooth="yes"/>
      <point x="72" y="423"/>
      <point x="113" y="512"/>
    </contour>
    <contour>
      <point x="494" y="512" type="curve" smooth="yes"/>
      <point x="579" y="512"/>
      <point x="610" y="414"/>
      <point x="609" y="296" type="curve"/>
      <point x="364" y="296" type="line"/>
      <point x="372" y="450"/>
      <point x="427" y="512"/>
    </contour>
  </outline>
</glyph>
<glyph name="Tbar" format="2">
  <advance width="336"/>
  <unicode hex="0166"/>
  <anchor x="168" y="0" name="bottom"/>
  <anchor x="168" y="714" name="top"/>
  <outline>
    <contour>
      <point x="154" y="0" type="line"/>
      <point x="180" y="0" type="line"/>
      <point x="180" y="363" type="line"/>
      <point x="306" y="363" type="line"/>
      <point x="306" y="388" type="line"/>
      <point x="180" y="388" type="line"/>
      <point x="180" y="689" type="line"/>
      <point x="328" y="689" type="line"/>
      <point x="328" y="714" type="line"/>
      <point x="7" y="714" type="line"/>
      <point x="7" y="689" type="line"/>
      <point x="154" y="689" type="line"/>
      <point x="154" y="388" type="line"/>
      <point x="30" y="388" type="line"/>
      <point x="30" y="363" type="line"/>
      <point x="154" y="363" type="line"/>
    </contour>
  </outline>
</glyph>
<glyph name="Uogonek" format="2">
  <advance width="486"/>
  <unicode hex="0172"/>
  <anchor x="243" y="-217" name="bottom"/>
  <anchor x="243" y="714" name="top"/>
  <outline>
    <contour>
      <point x="254" y="-139" type="curve" smooth="yes"/>
      <point x="254" y="-82"/>
      <point x="302" y="-21"/>
      <point x="352" y="27" type="curve"/>
      <point x="319" y="14" type="line"/>
      <point x="261" y="-31"/>
      <point x="228" y="-88"/>
      <point x="228" y="-140" type="curve" smooth="yes"/>
      <point x="228" y="-192"/>
      <point x="261" y="-217"/>
      <point x="307" y="-217" type="curve" smooth="yes"/>
      <point x="322" y="-217"/>
      <point x="335" y="-214"/>
      <point x="343" y="-211" type="curve"/>
      <point x="343" y="-188" type="line"/>
      <point x="337" y="-190"/>
      <point x="322" y="-193"/>
      <point x="308" y="-193" type="curve" smooth="yes"/>
      <point x="272" y="-193"/>
      <point x="254" y="-174"/>
    </contour>
    <component base="U"/>
  </outline>
</glyph>
<glyph name="longs" format="2">
  <advance width="170"/>
  <unicode hex="017F"/>
  <anchor x="85" y="0" name="bottom"/>
  <anchor x="135" y="765" name="top"/>
  <outline>
    <contour>
      <point x="177" y="741" type="curve" smooth="yes"/>
      <point x="189" y="741"/>
      <point x="201" y="739"/>
      <point x="214" y="734" type="curve"/>
      <point x="220" y="757" type="line"/>
      <point x="207" y="762"/>
      <point x="194" y="765"/>
      <point x="177" y="765" type="curve" smooth="yes"/>
      <point x="97" y="765"/>
      <point x="71" y="702"/>
      <point x="71" y="584" type="curve" smooth="yes"/>
      <point x="71" y="0" type="line"/>
      <point x="96" y="0" type="line"/>
      <point x="96" y="581" type="line" smooth="yes"/>
      <point x="96" y="705"/>
      <point x="123" y="741"/>
    </contour>
  </outline>
</glyph>
<glyph name="uni0180" format="2">
  <advance width="423"/>
  <unicode hex="0180"/>
  <anchor x="212" y="0" name="bottom"/>
  <anchor x="212" y="760" name="top"/>
  <outline>
    <contour>
      <point x="223" y="-10" type="curve" smooth="yes"/>
      <point x="324" y="-10"/>
      <point x="378" y="83"/>
      <point x="378" y="269" type="curve" smooth="yes"/>
      <point x="378" y="445"/>
      <point x="329" y="537"/>
      <point x="228" y="537" type="curve" smooth="yes"/>
      <point x="157" y="537"/>
      <point x="109" y="489"/>
      <point x="97" y="418" type="curve"/>
      <point x="95" y="418" type="line"/>
      <point x="96" y="435"/>
      <point x="96" y="459"/>
      <point x="96" y="481" type="curve" smooth="yes"/>
      <point x="96" y="630" type="line"/>
      <point x="231" y="630" type="line"/>
      <point x="231" y="655" type="line"/>
      <point x="96" y="655" type="line"/>
      <point x="96" y="760" type="line"/>
      <point x="70" y="760" type="line"/>
      <point x="70" y="655" type="line"/>
      <point x="13" y="655" type="line"/>
      <point x="13" y="630" type="line"/>
      <point x="70" y="630" type="line"/>
      <point x="70" y="0" type="line"/>
      <point x="91" y="0" type="line"/>
      <point x="96" y="97" type="line"/>
      <point x="98" y="97" type="line"/>
      <point x="118" y="34"/>
      <point x="156" y="-10"/>
    </contour>
    <contour>
      <point x="223" y="16" type="curve" smooth="yes"/>
      <point x="148" y="16"/>
      <point x="96" y="83"/>
      <point x="96" y="239" type="curve" smooth="yes"/>
      <point x="96" y="294" type="line" smooth="yes"/>
      <point x="96" y="426"/>
      <point x="138" y="512"/>
      <point x="228" y="512" type="curve" smooth="yes"/>
      <point x="315" y="512"/>
      <point x="352" y="429"/>
      <point x="352" y="269" type="curve" smooth="yes"/>
      <point x="352" y="96"/>
      <point x="305" y="16"/>
    </contour>
  </outline>
</glyph>
<glyph name="uni0181" format="2">
  <advance width="470"/>
  <unicode hex="0181"/>
  <anchor x="235" y="0" name="bottom"/>
  <anchor x="235" y="714" name="top"/>
  <outline>
    <contour>
      <point x="118" y="0" type="line"/>
      <point x="264" y="0" type="line" smooth="yes"/>
      <point x="372" y="0"/>
      <point x="431" y="75"/>
      <point x="431" y="197" type="curve" smooth="yes"/>
      <point x="431" y="293"/>
      <point x="395" y="356"/>
      <point x="314" y="376" type="curve"/>
      <point x="314" y="377" type="line"/>
      <point x="379" y="390"/>
      <point x="416" y="458"/>
      <point x="416" y="550" type="curve" smooth="yes"/>
      <point x="416" y="659"/>
      <point x="364" y="714"/>
      <point x="257" y="714" type="curve" smooth="yes"/>
      <point x="106" y="714" type="line" smooth="yes"/>
      <point x="44" y="714"/>
      <point x="10" y="665"/>
      <point x="10" y="595" type="curve" smooth="yes"/>
      <point x="10" y="579"/>
      <point x="12" y="559"/>
      <point x="16" y="544" type="curve"/>
      <point x="42" y="544" type="line"/>
      <point x="40" y="556"/>
      <point x="36" y="577"/>
      <point x="36" y="596" type="curve" smooth="yes"/>
      <point x="36" y="654"/>
      <point x="64" y="689"/>
      <point x="108" y="689" type="curve" smooth="yes"/>
      <point x="118" y="689" type="line"/>
    </contour>
    <contour>
      <point x="257" y="25" type="curve" smooth="yes"/>
      <point x="144" y="25" type="line"/>
      <point x="144" y="363" type="line"/>
      <point x="253" y="363" type="line" smooth="yes"/>
      <point x="341" y="363"/>
      <point x="404" y="322"/>
      <point x="404" y="198" type="curve" smooth="yes"/>
      <point x="404" y="81"/>
      <point x="348" y="25"/>
    </contour>
    <contour>
      <point x="250" y="388" type="curve" smooth="yes"/>
      <point x="144" y="388" type="line"/>
      <point x="144" y="689" type="line"/>
      <point x="243" y="689" type="line" smooth="yes"/>
      <point x="353" y="689"/>
      <point x="389" y="644"/>
      <point x="389" y="550" type="curve" smooth="yes"/>
      <point x="389" y="441"/>
      <point x="341" y="388"/>
    </contour>
  </outline>
</glyph>
<glyph name="uni0183" format="2">
  <advance width="424"/>
  <unicode hex="0183"/>
  <anchor x="212" y="0" name="bottom"/>
  <anchor x="212" y="760" name="top"/>
  <outline>
    <contour>
      <point x="224" y="-10" type="curve" smooth="yes"/>
      <point x="325" y="-10"/>
      <point x="379" y="83"/>
      <point x="379" y="269" type="curve" smooth="yes"/>
      <point x="379" y="445"/>
      <point x="330" y="537"/>
      <point x="229" y="537" type="curve" smooth="yes"/>
      <point x="158" y="537"/>
      <point x="110" y="489"/>
      <point x="98" y="418" type="curve"/>
      <point x="96" y="418" type="line"/>
      <point x="97" y="435"/>
      <point x="97" y="459"/>
      <point x="97" y="481" type="curve" smooth="yes"/>
      <point x="97" y="735" type="line"/>
      <point x="309" y="735" type="line"/>
      <point x="309" y="760" type="line"/>
      <point x="71" y="760" type="line"/>
      <point x="71" y="0" type="line"/>
      <point x="92" y="0" type="line"/>
      <point x="97" y="97" type="line"/>
      <point x="99" y="97" type="line"/>
      <point x="119" y="34"/>
      <point x="157" y="-10"/>
    </contour>
    <contour>
      <point x="224" y="16" type="curve" smooth="yes"/>
      <point x="149" y="16"/>
      <point x="97" y="83"/>
      <point x="97" y="239" type="curve" smooth="yes"/>
      <point x="97" y="294" type="line" smooth="yes"/>
      <point x="97" y="426"/>
      <point x="139" y="512"/>
      <point x="229" y="512" type="curve" smooth="yes"/>
      <point x="316" y="512"/>
      <point x="353" y="429"/>
      <point x="353" y="269" type="curve" smooth="yes"/>
      <point x="353" y="96"/>
      <point x="306" y="16"/>
    </contour>
  </outline>
</glyph>
<glyph name="uni0184" format="2">
  <advance width="382"/>
  <unicode hex="0184"/>
  <anchor x="191" y="0" name="bottom"/>
  <anchor x="191" y="714" name="top"/>
  <outline>
    <contour>
      <point x="211" y="0" type="curve" smooth="yes"/>
      <point x="301" y="0"/>
      <point x="350" y="71"/>
      <point x="350" y="199" type="curve" smooth="yes"/>
      <point x="350" y="336"/>
      <point x="294" y="388"/>
      <point x="194" y="388" type="curve" smooth="yes"/>
      <point x="98" y="388" type="line"/>
      <point x="98" y="714" type="line"/>
      <point x="72" y="714" type="line"/>
      <point x="72" y="206" type="line" smooth="yes"/>
      <point x="72" y="67"/>
      <point x="123" y="0"/>
    </contour>
    <contour>
      <point x="211" y="25" type="curve" smooth="yes"/>
      <point x="142" y="25"/>
      <point x="98" y="79"/>
      <point x="98" y="213" type="curve" smooth="yes"/>
      <point x="98" y="363" type="line"/>
      <point x="187" y="363" type="line" smooth="yes"/>
      <point x="275" y="363"/>
      <point x="323" y="328"/>
      <point x="323" y="201" type="curve" smooth="yes"/>
      <point x="323" y="82"/>
      <point x="281" y="25"/>
    </contour>
  </outline>
</glyph>
<glyph name="uni0185" format="2">
  <advance width="399"/>
  <unicode hex="0185"/>
  <anchor x="200" y="0" name="bottom"/>
  <anchor x="200" y="760" name="top"/>
  <outline>
    <contour>
      <point x="208" y="-10" type="curve" smooth="yes"/>
      <point x="319" y="-10"/>
      <point x="354" y="112"/>
      <point x="354" y="264" type="curve" smooth="yes"/>
      <point x="354" y="443"/>
      <point x="305" y="537"/>
      <point x="210" y="537" type="curve" smooth="yes"/>
      <point x="157" y="537"/>
      <point x="119" y="507"/>
      <point x="94" y="437" type="curve"/>
      <point x="92" y="437" type="line"/>
      <point x="94" y="497"/>
      <point x="94" y="533"/>
      <point x="94" y="560" type="curve" smooth="yes"/>
      <point x="94" y="760" type="line"/>
      <point x="69" y="760" type="line"/>
      <point x="69" y="257" type="line" smooth="yes"/>
      <point x="69" y="68"/>
      <point x="120" y="-10"/>
    </contour>
    <contour>
      <point x="208" y="15" type="curve" smooth="yes"/>
      <point x="126" y="15"/>
      <point x="94" y="106"/>
      <point x="94" y="256" type="curve" smooth="yes"/>
      <point x="94" y="261" type="line" smooth="yes"/>
      <point x="94" y="422"/>
      <point x="129" y="512"/>
      <point x="210" y="512" type="curve" smooth="yes"/>
      <point x="288" y="512"/>
      <point x="327" y="430"/>
      <point x="327" y="266" type="curve" smooth="yes"/>
      <point x="327" y="108"/>
      <point x="291" y="15"/>
    </contour>
  </outline>
</glyph>
<glyph name="uni0186" format="2">
  <advance width="415"/>
  <unicode hex="0186"/>
  <anchor x="208" y="0" name="bottom"/>
  <anchor x="208" y="714" name="top"/>
  <outline>
    <contour>
      <point x="126" y="-10" type="curve" smooth="yes"/>
      <point x="268" y="-10"/>
      <point x="361" y="131"/>
      <point x="361" y="358" type="curve" smooth="yes"/>
      <point x="361" y="548"/>
      <point x="298" y="724"/>
      <point x="130" y="724" type="curve" smooth="yes"/>
      <point x="92" y="724"/>
      <point x="58" y="715"/>
      <point x="24" y="696" type="curve"/>
      <point x="37" y="673" type="line"/>
      <point x="69" y="693"/>
      <point x="103" y="699"/>
      <point x="130" y="699" type="curve" smooth="yes"/>
      <point x="279" y="699"/>
      <point x="334" y="529"/>
      <point x="334" y="357" type="curve" smooth="yes"/>
      <point x="334" y="154"/>
      <point x="254" y="15"/>
      <point x="126" y="15" type="curve" smooth="yes"/>
      <point x="81" y="15"/>
      <point x="45" y="31"/>
      <point x="25" y="43" type="curve"/>
      <point x="25" y="16" type="line"/>
      <point x="50" y="1"/>
      <point x="88" y="-10"/>
    </contour>
  </outline>
</glyph>
<glyph name="uni0187" format="2">
  <advance width="413"/>
  <unicode hex="0187"/>
  <anchor x="207" y="0" name="bottom"/>
  <anchor x="207" y="714" name="top"/>
  <outline>
    <contour>
      <point x="426" y="851" type="curve" smooth="yes"/>
      <point x="387" y="851"/>
      <point x="366" y="830"/>
      <point x="366" y="767" type="curve" smooth="yes"/>
      <point x="366" y="708" type="line"/>
      <point x="340" y="719"/>
      <point x="314" y="724"/>
      <point x="285" y="724" type="curve" smooth="yes"/>
      <point x="117" y="724"/>
      <point x="54" y="548"/>
      <point x="54" y="358" type="curve" smooth="yes"/>
      <point x="54" y="131"/>
      <point x="147" y="-10"/>
      <point x="289" y="-10" type="curve" smooth="yes"/>
      <point x="327" y="-10"/>
      <point x="365" y="1"/>
      <point x="390" y="16" type="curve"/>
      <point x="390" y="43" type="line"/>
      <point x="370" y="31"/>
      <point x="334" y="15"/>
      <point x="289" y="15" type="curve" smooth="yes"/>
      <point x="161" y="15"/>
      <point x="81" y="154"/>
      <point x="81" y="357" type="curve" smooth="yes"/>
      <point x="81" y="529"/>
      <point x="136" y="699"/>
      <point x="285" y="699" type="curve" smooth="yes"/>
      <point x="312" y="699"/>
      <point x="346" y="693"/>
      <point x="378" y="673" type="curve"/>
      <point x="391" y="696" type="line"/>
      <point x="391" y="769" type="line" smooth="yes"/>
      <point x="391" y="815"/>
      <point x="405" y="827"/>
      <point x="427" y="827" type="curve" smooth="yes"/>
      <point x="444" y="827"/>
      <point x="456" y="820"/>
      <point x="461" y="816" type="curve"/>
      <point x="461" y="842" type="line"/>
      <point x="451" y="848"/>
      <point x="440" y="851"/>
    </contour>
  </outline>
</glyph>
<glyph name="uni0188" format="2">
  <advance width="311"/>
  <unicode hex="0188"/>
  <anchor x="156" y="0" name="bottom"/>
  <anchor x="156" y="769" name="top"/>
  <outline>
    <contour>
      <point x="212" y="-10" type="curve" smooth="yes"/>
      <point x="239" y="-10"/>
      <point x="270" y="-4"/>
      <point x="292" y="6" type="curve"/>
      <point x="292" y="32" type="line"/>
      <point x="267" y="21"/>
      <point x="240" y="15"/>
      <point x="215" y="15" type="curve" smooth="yes"/>
      <point x="114" y="15"/>
      <point x="73" y="114"/>
      <point x="73" y="257" type="curve" smooth="yes"/>
      <point x="73" y="427"/>
      <point x="130" y="512"/>
      <point x="222" y="512" type="curve" smooth="yes"/>
      <point x="244" y="512"/>
      <point x="265" y="507"/>
      <point x="283" y="496" type="curve"/>
      <point x="293" y="519" type="line"/>
      <point x="293" y="685" type="line" smooth="yes"/>
      <point x="293" y="734"/>
      <point x="307" y="746"/>
      <point x="332" y="746" type="curve" smooth="yes"/>
      <point x="343" y="746"/>
      <point x="351" y="744"/>
      <point x="363" y="737" type="curve"/>
      <point x="363" y="761" type="line"/>
      <point x="354" y="766"/>
      <point x="343" y="769"/>
      <point x="329" y="769" type="curve" smooth="yes"/>
      <point x="286" y="769"/>
      <point x="268" y="742"/>
      <point x="268" y="680" type="curve" smooth="yes"/>
      <point x="268" y="530" type="line"/>
      <point x="253" y="535"/>
      <point x="238" y="537"/>
      <point x="221" y="537" type="curve" smooth="yes"/>
      <point x="113" y="537"/>
      <point x="47" y="440"/>
      <point x="47" y="256" type="curve" smooth="yes"/>
      <point x="47" y="93"/>
      <point x="99" y="-10"/>
    </contour>
  </outline>
</glyph>
<glyph name="uni018A" format="2">
  <advance width="512"/>
  <unicode hex="018A"/>
  <anchor x="256" y="0" name="bottom"/>
  <anchor x="256" y="714" name="top"/>
  <outline>
    <contour>
      <point x="118" y="0" type="line"/>
      <point x="229" y="0" type="line" smooth="yes"/>
      <point x="389" y="0"/>
      <point x="458" y="124"/>
      <point x="458" y="364" type="curve" smooth="yes"/>
      <point x="458" y="596"/>
      <point x="389" y="714"/>
      <point x="230" y="714" type="curve" smooth="yes"/>
      <point x="108" y="714" type="line" smooth="yes"/>
      <point x="44" y="714"/>
      <point x="10" y="665"/>
      <point x="10" y="595" type="curve" smooth="yes"/>
      <point x="10" y="579"/>
      <point x="12" y="559"/>
      <point x="16" y="544" type="curve"/>
      <point x="42" y="544" type="line"/>
      <point x="40" y="556"/>
      <point x="36" y="577"/>
      <point x="36" y="596" type="curve" smooth="yes"/>
      <point x="36" y="654"/>
      <point x="64" y="689"/>
      <point x="108" y="689" type="curve" smooth="yes"/>
      <point x="118" y="689" type="line"/>
    </contour>
    <contour>
      <point x="227" y="25" type="curve" smooth="yes"/>
      <point x="144" y="25" type="line"/>
      <point x="144" y="689" type="line"/>
      <point x="228" y="689" type="line" smooth="yes"/>
      <point x="379" y="689"/>
      <point x="431" y="570"/>
      <point x="431" y="362" type="curve" smooth="yes"/>
      <point x="431" y="141"/>
      <point x="371" y="25"/>
    </contour>
  </outline>
</glyph>
<glyph name="uni018B" format="2">
  <advance width="401"/>
  <unicode hex="018B"/>
  <anchor x="201" y="0" name="bottom"/>
  <anchor x="201" y="714" name="top"/>
  <outline>
    <contour>
      <point x="203" y="0" type="curve" smooth="yes"/>
      <point x="323" y="0" type="line"/>
      <point x="323" y="714" type="line"/>
      <point x="61" y="714" type="line"/>
      <point x="61" y="689" type="line"/>
      <point x="297" y="689" type="line"/>
      <point x="297" y="388" type="line"/>
      <point x="208" y="388" type="line" smooth="yes"/>
      <point x="90" y="388"/>
      <point x="33" y="326"/>
      <point x="33" y="203" type="curve" smooth="yes"/>
      <point x="33" y="69"/>
      <point x="101" y="0"/>
    </contour>
    <contour>
      <point x="207" y="25" type="line"/>
      <point x="115" y="25"/>
      <point x="60" y="84"/>
      <point x="60" y="202" type="curve" smooth="yes"/>
      <point x="60" y="311"/>
      <point x="107" y="363"/>
      <point x="212" y="363" type="curve" smooth="yes"/>
      <point x="297" y="363" type="line"/>
      <point x="297" y="25" type="line"/>
    </contour>
  </outline>
</glyph>
<glyph name="uni018E" format="2">
  <advance width="381"/>
  <unicode hex="018E"/>
  <anchor x="171" y="0" name="bottom"/>
  <anchor x="186" y="714" name="top"/>
  <anchor x="331" y="714" name="topright"/>
  <outline>
    <contour>
      <point x="48" y="0" type="line"/>
      <point x="303" y="0" type="line"/>
      <point x="303" y="714" type="line"/>
      <point x="48" y="714" type="line"/>
      <point x="48" y="689" type="line"/>
      <point x="277" y="689" type="line"/>
      <point x="277" y="388" type="line"/>
      <point x="61" y="388" type="line"/>
      <point x="61" y="363" type="line"/>
      <point x="277" y="363" type="line"/>
      <point x="277" y="25" type="line"/>
      <point x="48" y="25" type="line"/>
    </contour>
  </outline>
</glyph>
<glyph name="uni0190" format="2">
  <advance width="371"/>
  <unicode hex="0190"/>
  <anchor x="186" y="0" name="bottom"/>
  <anchor x="186" y="714" name="top"/>
  <outline>
    <contour>
      <point x="217" y="724" type="curve" smooth="yes"/>
      <point x="127" y="724"/>
      <point x="74" y="659"/>
      <point x="74" y="556" type="curve" smooth="yes"/>
      <point x="74" y="461"/>
      <point x="119" y="396"/>
      <point x="194" y="376" type="curve"/>
      <point x="194" y="373" type="line"/>
      <point x="109" y="362"/>
      <point x="62" y="295"/>
      <point x="62" y="187" type="curve" smooth="yes"/>
      <point x="62" y="61"/>
      <point x="127" y="-10"/>
      <point x="233" y="-10" type="curve" smooth="yes"/>
      <point x="269" y="-10"/>
      <point x="309" y="-2"/>
      <point x="343" y="15" type="curve"/>
      <point x="343" y="45" type="line"/>
      <point x="311" y="25"/>
      <point x="269" y="15"/>
      <point x="233" y="15" type="curve" smooth="yes"/>
      <point x="150" y="15"/>
      <point x="89" y="69"/>
      <point x="89" y="189" type="curve" smooth="yes"/>
      <point x="89" y="304"/>
      <point x="146" y="361"/>
      <point x="252" y="361" type="curve" smooth="yes"/>
      <point x="298" y="361" type="line"/>
      <point x="298" y="388" type="line"/>
      <point x="252" y="388" type="line" smooth="yes"/>
      <point x="163" y="388"/>
      <point x="101" y="451"/>
      <point x="101" y="556" type="curve" smooth="yes"/>
      <point x="101" y="646"/>
      <point x="147" y="699"/>
      <point x="218" y="699" type="curve" smooth="yes"/>
      <point x="261" y="699"/>
      <point x="291" y="680"/>
      <point x="314" y="655" type="curve"/>
      <point x="332" y="672" type="line"/>
      <point x="303" y="705"/>
      <point x="265" y="724"/>
    </contour>
  </outline>
</glyph>
<glyph name="uni0191" format="2">
  <advance width="458"/>
  <unicode hex="0191"/>
  <anchor x="112" y="0" name="bottom"/>
  <anchor x="322" y="714" name="top"/>
  <anchor x="456" y="714" name="topright"/>
  <outline>
    <contour>
      <point x="112" y="-234" type="curve" smooth="yes"/>
      <point x="193" y="-234"/>
      <point x="230" y="-168"/>
      <point x="230" y="-73" type="curve" smooth="yes"/>
      <point x="230" y="362" type="line"/>
      <point x="428" y="362" type="line"/>
      <point x="428" y="387" type="line"/>
      <point x="230" y="387" type="line"/>
      <point x="230" y="689" type="line"/>
      <point x="440" y="689" type="line"/>
      <point x="440" y="714" type="line"/>
      <point x="204" y="714" type="line"/>
      <point x="204" y="-74" type="line" smooth="yes"/>
      <point x="204" y="-160"/>
      <point x="173" y="-209"/>
      <point x="111" y="-209" type="curve" smooth="yes"/>
      <point x="53" y="-209"/>
      <point x="20" y="-168"/>
      <point x="20" y="-103" type="curve" smooth="yes"/>
      <point x="20" y="-79"/>
      <point x="24" y="-59"/>
      <point x="26" y="-49" type="curve"/>
      <point x="1" y="-42" type="line"/>
      <point x="-4" y="-60"/>
      <point x="-7" y="-80"/>
      <point x="-7" y="-102" type="curve" smooth="yes"/>
      <point x="-7" y="-186"/>
      <point x="41" y="-234"/>
    </contour>
  </outline>
</glyph>
<glyph name="florin" format="2">
  <advance width="342"/>
  <unicode hex="0192"/>
  <anchor x="120" y="0" name="bottom"/>
  <anchor x="287" y="765" name="top"/>
  <anchor x="389" y="752" name="topright"/>
  <outline>
    <contour>
      <point x="121" y="-233" type="curve" smooth="yes"/>
      <point x="200" y="-233"/>
      <point x="237" y="-168"/>
      <point x="237" y="-87" type="curve" smooth="yes"/>
      <point x="237" y="502" type="line"/>
      <point x="314" y="502" type="line"/>
      <point x="314" y="527" type="line"/>
      <point x="237" y="527" type="line"/>
      <point x="237" y="598" type="line" smooth="yes"/>
      <point x="237" y="701"/>
      <point x="254" y="741"/>
      <point x="308" y="741" type="curve" smooth="yes"/>
      <point x="324" y="741"/>
      <point x="342" y="738"/>
      <point x="357" y="730" type="curve"/>
      <point x="367" y="752" type="line"/>
      <point x="353" y="759"/>
      <point x="333" y="765"/>
      <point x="309" y="765" type="curve" smooth="yes"/>
      <point x="236" y="765"/>
      <point x="211" y="715"/>
      <point x="211" y="605" type="curve" smooth="yes"/>
      <point x="211" y="528" type="line"/>
      <point x="141" y="523" type="line"/>
      <point x="141" y="502" type="line"/>
      <point x="211" y="502" type="line"/>
      <point x="211" y="-88" type="line" smooth="yes"/>
      <point x="211" y="-160"/>
      <point x="180" y="-208"/>
      <point x="120" y="-208" type="curve" smooth="yes"/>
      <point x="64" y="-208"/>
      <point x="32" y="-168"/>
      <point x="32" y="-106" type="curve" smooth="yes"/>
      <point x="32" y="-89"/>
      <point x="34" y="-74"/>
      <point x="36" y="-67" type="curve"/>
      <point x="11" y="-61" type="line"/>
      <point x="7" y="-74"/>
      <point x="5" y="-89"/>
      <point x="5" y="-105" type="curve" smooth="yes"/>
      <point x="5" y="-186"/>
      <point x="52" y="-233"/>
    </contour>
  </outline>
</glyph>
<glyph name="uni0193" format="2">
  <advance width="518"/>
  <unicode hex="0193"/>
  <anchor x="259" y="0" name="bottom"/>
  <anchor x="259" y="714" name="top"/>
  <outline>
    <contour>
      <point x="492" y="852" type="curve" smooth="yes"/>
      <point x="453" y="852"/>
      <point x="432" y="831"/>
      <point x="432" y="768" type="curve" smooth="yes"/>
      <point x="432" y="695" type="line"/>
      <point x="392" y="716"/>
      <point x="354" y="724"/>
      <point x="314" y="724" type="curve" smooth="yes"/>
      <point x="138" y="724"/>
      <point x="54" y="574"/>
      <point x="54" y="354" type="curve" smooth="yes"/>
      <point x="54" y="143"/>
      <point x="132" y="-10"/>
      <point x="308" y="-10" type="curve" smooth="yes"/>
      <point x="355" y="-10"/>
      <point x="415" y="1"/>
      <point x="464" y="24" type="curve"/>
      <point x="464" y="351" type="line"/>
      <point x="298" y="351" type="line"/>
      <point x="298" y="326" type="line"/>
      <point x="439" y="326" type="line"/>
      <point x="439" y="40" type="line"/>
      <point x="402" y="26"/>
      <point x="354" y="15"/>
      <point x="309" y="15" type="curve" smooth="yes"/>
      <point x="149" y="15"/>
      <point x="80" y="157"/>
      <point x="80" y="354" type="curve" smooth="yes"/>
      <point x="80" y="556"/>
      <point x="152" y="699"/>
      <point x="314" y="699" type="curve" smooth="yes"/>
      <point x="355" y="699"/>
      <point x="398" y="690"/>
      <point x="443" y="658" type="curve"/>
      <point x="457" y="680" type="line"/>
      <point x="457" y="770" type="line" smooth="yes"/>
      <point x="457" y="816"/>
      <point x="471" y="828"/>
      <point x="493" y="828" type="curve" smooth="yes"/>
      <point x="510" y="828"/>
      <point x="522" y="821"/>
      <point x="527" y="817" type="curve"/>
      <point x="527" y="843" type="line"/>
      <point x="517" y="849"/>
      <point x="506" y="852"/>
    </contour>
  </outline>
</glyph>
<glyph name="uni0194" format="2">
  <advance width="359"/>
  <unicode hex="0194"/>
  <anchor x="180" y="-242" name="bottom"/>
  <anchor x="180" y="714" name="top"/>
  <outline>
    <contour>
      <point x="182" y="-242" type="curve" smooth="yes"/>
      <point x="230" y="-242"/>
      <point x="249" y="-193"/>
      <point x="249" y="-130" type="curve" smooth="yes"/>
      <point x="249" y="-59"/>
      <point x="228" y="5"/>
      <point x="191" y="120" type="curve"/>
      <point x="359" y="714" type="line"/>
      <point x="334" y="714" type="line"/>
      <point x="195" y="223" type="line" smooth="yes"/>
      <point x="189" y="203"/>
      <point x="184" y="179"/>
      <point x="179" y="159" type="curve"/>
      <point x="175" y="179"/>
      <point x="169" y="203"/>
      <point x="163" y="223" type="curve" smooth="yes"/>
      <point x="25" y="714" type="line"/>
      <point x="0" y="714" type="line"/>
      <point x="168" y="119" type="line"/>
      <point x="145" y="54"/>
      <point x="112" y="-41"/>
      <point x="112" y="-129" type="curve" smooth="yes"/>
      <point x="112" y="-190"/>
      <point x="129" y="-242"/>
    </contour>
    <contour>
      <point x="182" y="-221" type="curve" smooth="yes"/>
      <point x="145" y="-221"/>
      <point x="136" y="-176"/>
      <point x="136" y="-127" type="curve" smooth="yes"/>
      <point x="136" y="-53"/>
      <point x="153" y="3"/>
      <point x="179" y="85" type="curve"/>
      <point x="210" y="-10"/>
      <point x="225" y="-64"/>
      <point x="225" y="-126" type="curve" smooth="yes"/>
      <point x="225" y="-176"/>
      <point x="217" y="-221"/>
    </contour>
  </outline>
</glyph>
<glyph name="uni0195" format="2">
  <advance width="647"/>
  <unicode hex="0195"/>
  <anchor x="324" y="0" name="bottom"/>
  <anchor x="324" y="527" name="top"/>
  <outline>
    <contour>
      <point x="446" y="-9" type="curve" smooth="yes"/>
      <point x="530" y="-9"/>
      <point x="579" y="37"/>
      <point x="579" y="160" type="curve" smooth="yes"/>
      <point x="579" y="525" type="line"/>
      <point x="553" y="525" type="line"/>
      <point x="553" y="163" type="line" smooth="yes"/>
      <point x="553" y="52"/>
      <point x="513" y="16"/>
      <point x="446" y="16" type="curve" smooth="yes"/>
      <point x="374" y="16"/>
      <point x="339" y="57"/>
      <point x="339" y="169" type="curve"/>
      <point x="339" y="366" type="line" smooth="yes"/>
      <point x="339" y="481"/>
      <point x="298" y="537"/>
      <point x="224" y="537" type="curve" smooth="yes"/>
      <point x="147" y="537"/>
      <point x="113" y="475"/>
      <point x="97" y="424" type="curve"/>
      <point x="95" y="424" type="line"/>
      <point x="97" y="446"/>
      <point x="97" y="461"/>
      <point x="97" y="492" type="curve" smooth="yes"/>
      <point x="97" y="760" type="line"/>
      <point x="71" y="760" type="line"/>
      <point x="71" y="0" type="line"/>
      <point x="97" y="0" type="line"/>
      <point x="97" y="298" type="line" smooth="yes"/>
      <point x="97" y="447"/>
      <point x="158" y="512"/>
      <point x="223" y="512" type="curve" smooth="yes"/>
      <point x="275" y="512"/>
      <point x="313" y="472"/>
      <point x="313" y="360" type="curve" smooth="yes"/>
      <point x="313" y="165" type="line" smooth="yes"/>
      <point x="313" y="25"/>
      <point x="375" y="-9"/>
    </contour>
  </outline>
</glyph>
<glyph name="uni0196" format="2">
  <advance width="196"/>
  <unicode hex="0196"/>
  <anchor x="98" y="0" name="bottom"/>
  <anchor x="98" y="714" name="top"/>
  <outline>
    <contour>
      <point x="146" y="-10" type="curve" smooth="yes"/>
      <point x="158" y="-10"/>
      <point x="170" y="-8"/>
      <point x="184" y="-4" type="curve"/>
      <point x="184" y="21" type="line"/>
      <point x="168" y="17"/>
      <point x="157" y="15"/>
      <point x="146" y="15" type="curve" smooth="yes"/>
      <point x="113" y="15"/>
      <point x="101" y="35"/>
      <point x="101" y="96" type="curve" smooth="yes"/>
      <point x="101" y="714" type="line"/>
      <point x="75" y="714" type="line"/>
      <point x="75" y="92" type="line" smooth="yes"/>
      <point x="75" y="21"/>
      <point x="96" y="-10"/>
    </contour>
  </outline>
</glyph>
<glyph name="uni0197" format="2">
  <advance width="234"/>
  <unicode hex="0197"/>
  <anchor x="117" y="0" name="bottom"/>
  <anchor x="117" y="714" name="top"/>
  <outline>
    <contour>
      <point x="188" y="714" type="line"/>
      <point x="46" y="714" type="line"/>
      <point x="46" y="695" type="line"/>
      <point x="105" y="691" type="line"/>
      <point x="105" y="388" type="line"/>
      <point x="20" y="388" type="line"/>
      <point x="20" y="363" type="line"/>
      <point x="105" y="363" type="line"/>
      <point x="105" y="22" type="line"/>
      <point x="46" y="19" type="line"/>
      <point x="46" y="0" type="line"/>
      <point x="188" y="0" type="line"/>
      <point x="188" y="19" type="line"/>
      <point x="130" y="22" type="line"/>
      <point x="130" y="363" type="line"/>
      <point x="214" y="363" type="line"/>
      <point x="214" y="388" type="line"/>
      <point x="130" y="388" type="line"/>
      <point x="130" y="691" type="line"/>
      <point x="188" y="695" type="line"/>
    </contour>
  </outline>
</glyph>
<glyph name="uni0198" format="2">
  <advance width="416"/>
  <unicode hex="0198"/>
  <anchor x="193" y="0" name="bottom"/>
  <anchor x="193" y="714" name="top"/>
  <outline>
    <contour>
      <point x="381" y="720" type="curve" smooth="yes"/>
      <point x="357" y="720"/>
      <point x="338" y="711"/>
      <point x="303" y="652" type="curve" smooth="yes"/>
      <point x="160" y="414" type="line" smooth="yes"/>
      <point x="132" y="368"/>
      <point x="112" y="336"/>
      <point x="104" y="318" type="curve"/>
      <point x="104" y="714" type="line"/>
      <point x="78" y="714" type="line"/>
      <point x="78" y="0" type="line"/>
      <point x="104" y="0" type="line"/>
      <point x="104" y="282" type="line"/>
      <point x="165" y="376" type="line"/>
      <point x="352" y="0" type="line"/>
      <point x="380" y="0" type="line"/>
      <point x="182" y="401" type="line"/>
      <point x="324" y="639" type="line" smooth="yes"/>
      <point x="351" y="684"/>
      <point x="362" y="696"/>
      <point x="381" y="696" type="curve" smooth="yes"/>
      <point x="389" y="696"/>
      <point x="397" y="694"/>
      <point x="402" y="691" type="curve"/>
      <point x="402" y="716" type="line"/>
      <point x="395" y="719"/>
      <point x="389" y="720"/>
    </contour>
  </outline>
</glyph>
<glyph name="uni0199" format="2">
  <advance width="324"/>
  <unicode hex="0199"/>
  <anchor x="162" y="0" name="bottom"/>
  <anchor x="162" y="765" name="top"/>
  <outline>
    <contour>
      <point x="140" y="765" type="curve" smooth="yes"/>
      <point x="98" y="765"/>
      <point x="71" y="740"/>
      <point x="71" y="668" type="curve" smooth="yes"/>
      <point x="71" y="0" type="line"/>
      <point x="97" y="0" type="line"/>
      <point x="97" y="197" type="line"/>
      <point x="167" y="304" type="line"/>
      <point x="291" y="0" type="line"/>
      <point x="317" y="0" type="line"/>
      <point x="184" y="329" type="line"/>
      <point x="304" y="527" type="line"/>
      <point x="277" y="527" type="line"/>
      <point x="129" y="285" type="line" smooth="yes"/>
      <point x="117" y="266"/>
      <point x="110" y="255"/>
      <point x="97" y="233" type="curve"/>
      <point x="96" y="233" type="line"/>
      <point x="97" y="278"/>
      <point x="97" y="314"/>
      <point x="97" y="361" type="curve" smooth="yes"/>
      <point x="97" y="665" type="line" smooth="yes"/>
      <point x="97" y="716"/>
      <point x="110" y="740"/>
      <point x="142" y="740" type="curve" smooth="yes"/>
      <point x="153" y="740"/>
      <point x="162" y="738"/>
      <point x="173" y="733" type="curve"/>
      <point x="173" y="759" type="line"/>
      <point x="165" y="762"/>
      <point x="155" y="765"/>
    </contour>
  </outline>
</glyph>
<glyph name="uni019A" format="2">
  <advance width="168"/>
  <unicode hex="019A"/>
  <anchor x="84" y="0" name="bottom"/>
  <anchor x="84" y="760" name="top"/>
  <outline>
    <contour>
      <point x="71" y="0" type="line"/>
      <point x="97" y="0" type="line"/>
      <point x="97" y="363" type="line"/>
      <point x="158" y="363" type="line"/>
      <point x="158" y="388" type="line"/>
      <point x="97" y="388" type="line"/>
      <point x="97" y="760" type="line"/>
      <point x="71" y="760" type="line"/>
      <point x="71" y="388" type="line"/>
      <point x="10" y="388" type="line"/>
      <point x="10" y="363" type="line"/>
      <point x="71" y="363" type="line"/>
    </contour>
  </outline>
</glyph>
<glyph name="uni019B" format="2">
  <advance width="336"/>
  <unicode hex="019B"/>
  <anchor x="168" y="0" name="bottom"/>
  <anchor x="168" y="765" name="top"/>
  <outline>
    <contour>
      <point x="10" y="0" type="line"/>
      <point x="37" y="0" type="line"/>
      <point x="145" y="423" type="line" smooth="yes"/>
      <point x="150" y="442"/>
      <point x="153" y="458"/>
      <point x="156" y="475" type="curve"/>
      <point x="160" y="475" type="line"/>
      <point x="164" y="453"/>
      <point x="161" y="466"/>
      <point x="178" y="385" type="curve" smooth="yes"/>
      <point x="239" y="94" type="line" smooth="yes"/>
      <point x="255" y="16"/>
      <point x="275" y="-10"/>
      <point x="322" y="-10" type="curve" smooth="yes"/>
      <point x="335" y="-10"/>
      <point x="340" y="-8"/>
      <point x="346" y="-6" type="curve"/>
      <point x="346" y="19" type="line"/>
      <point x="342" y="17"/>
      <point x="333" y="15"/>
      <point x="323" y="15" type="curve" smooth="yes"/>
      <point x="295" y="15"/>
      <point x="279" y="32"/>
      <point x="266" y="94" type="curve" smooth="yes"/>
      <point x="154" y="635" type="line"/>
      <point x="217" y="657" type="line"/>
      <point x="209" y="681" type="line"/>
      <point x="149" y="660" type="line"/>
      <point x="133" y="735"/>
      <point x="110" y="765"/>
      <point x="67" y="765" type="curve" smooth="yes"/>
      <point x="51" y="765"/>
      <point x="39" y="761"/>
      <point x="33" y="757" type="curve"/>
      <point x="33" y="732" type="line"/>
      <point x="41" y="736"/>
      <point x="52" y="740"/>
      <point x="64" y="740" type="curve" smooth="yes"/>
      <point x="96" y="740"/>
      <point x="110" y="716"/>
      <point x="123" y="651" type="curve"/>
      <point x="62" y="630" type="line"/>
      <point x="70" y="606" type="line"/>
      <point x="128" y="626" type="line"/>
      <point x="147" y="533" type="line"/>
    </contour>
  </outline>
</glyph>
<glyph name="uni019C" format="2">
  <advance width="764"/>
  <unicode hex="019C"/>
  <anchor x="382" y="0" name="bottom"/>
  <anchor x="382" y="714" name="top"/>
  <outline>
    <contour>
      <point x="216" y="-10" type="curve" smooth="yes"/>
      <point x="274" y="-10"/>
      <point x="324" y="10"/>
      <point x="372" y="87" type="curve"/>
      <point x="377" y="87" type="line"/>
      <point x="395" y="24"/>
      <point x="438" y="-10"/>
      <point x="510" y="-10" type="curve" smooth="yes"/>
      <point x="563" y="-10"/>
      <point x="613" y="9"/>
      <point x="660" y="76" type="curve"/>
      <point x="664" y="76" type="line"/>
      <point x="671" y="0" type="line"/>
      <point x="686" y="0" type="line"/>
      <point x="686" y="714" type="line"/>
      <point x="660" y="714" type="line"/>
      <point x="660" y="161" type="line" smooth="yes"/>
      <point x="660" y="61"/>
      <point x="582" y="15"/>
      <point x="510" y="15" type="curve" smooth="yes"/>
      <point x="439" y="15"/>
      <point x="392" y="60"/>
      <point x="392" y="155" type="curve" smooth="yes"/>
      <point x="392" y="714" type="line"/>
      <point x="366" y="714" type="line"/>
      <point x="366" y="163" type="line" smooth="yes"/>
      <point x="366" y="64"/>
      <point x="293" y="15"/>
      <point x="216" y="15" type="curve" smooth="yes"/>
      <point x="144" y="15"/>
      <point x="98" y="58"/>
      <point x="98" y="162" type="curve" smooth="yes"/>
      <point x="98" y="714" type="line"/>
      <point x="72" y="714" type="line"/>
      <point x="72" y="167" type="line" smooth="yes"/>
      <point x="72" y="40"/>
      <point x="125" y="-10"/>
    </contour>
  </outline>
</glyph>
<glyph name="uni019D" format="2">
  <advance width="504"/>
  <unicode hex="019D"/>
  <anchor x="252" y="-172" name="bottom"/>
  <anchor x="252" y="714" name="top"/>
  <outline>
    <contour>
      <point x="14" y="-172" type="curve" smooth="yes"/>
      <point x="74" y="-172"/>
      <point x="103" y="-127"/>
      <point x="103" y="-31" type="curve" smooth="yes"/>
      <point x="103" y="548" type="line" smooth="yes"/>
      <point x="103" y="604"/>
      <point x="103" y="637"/>
      <point x="102" y="664" type="curve"/>
      <point x="104" y="664" type="line"/>
      <point x="396" y="0" type="line"/>
      <point x="426" y="0" type="line"/>
      <point x="426" y="714" type="line"/>
      <point x="400" y="714" type="line"/>
      <point x="400" y="181" type="line" smooth="yes"/>
      <point x="400" y="152"/>
      <point x="401" y="99"/>
      <point x="401" y="54" type="curve"/>
      <point x="399" y="54" type="line"/>
      <point x="108" y="714" type="line"/>
      <point x="77" y="714" type="line"/>
      <point x="77" y="-23" type="line" smooth="yes"/>
      <point x="77" y="-108"/>
      <point x="55" y="-145"/>
      <point x="12" y="-145" type="curve" smooth="yes"/>
      <point x="-6" y="-145"/>
      <point x="-24" y="-139"/>
      <point x="-40" y="-131" type="curve"/>
      <point x="-40" y="-159" type="line"/>
      <point x="-26" y="-167"/>
      <point x="-6" y="-172"/>
    </contour>
  </outline>
</glyph>
<glyph name="Ohorn" format="2">
  <advance width="488"/>
  <unicode hex="01A0"/>
  <anchor x="244" y="0" name="bottom"/>
  <anchor x="244" y="714" name="top"/>
  <outline>
    <contour>
      <point x="457" y="358" type="curve" smooth="yes"/>
      <point x="457" y="446"/>
      <point x="448" y="524"/>
      <point x="427" y="585" type="curve"/>
      <point x="485" y="615"/>
      <point x="508" y="677"/>
      <point x="513" y="746" type="curve"/>
      <point x="504" y="760" type="line"/>
      <point x="485" y="760" type="line"/>
      <point x="482" y="685"/>
      <point x="464" y="629"/>
      <point x="418" y="606" type="curve"/>
      <point x="387" y="680"/>
      <point x="336" y="724"/>
      <point x="257" y="724" type="curve" smooth="yes"/>
      <point x="126" y="724"/>
      <point x="54" y="602"/>
      <point x="54" y="358" type="curve" smooth="yes"/>
      <point x="54" y="173"/>
      <point x="97" y="-10"/>
      <point x="257" y="-10" type="curve" smooth="yes"/>
      <point x="416" y="-10"/>
      <point x="457" y="165"/>
    </contour>
    <contour>
      <point x="80" y="358" type="curve" smooth="yes"/>
      <point x="80" y="574"/>
      <point x="137" y="699"/>
      <point x="257" y="699" type="curve" smooth="yes"/>
      <point x="374" y="699"/>
      <point x="431" y="577"/>
      <point x="431" y="358" type="curve" smooth="yes"/>
      <point x="431" y="135"/>
      <point x="374" y="15"/>
      <point x="257" y="15" type="curve" smooth="yes"/>
      <point x="143" y="15"/>
      <point x="80" y="141"/>
    </contour>
  </outline>
</glyph>
<glyph name="ohorn" format="2">
  <advance width="400"/>
  <unicode hex="01A1"/>
  <anchor x="200" y="0" name="bottom"/>
  <anchor x="200" y="527" name="top"/>
  <outline>
    <contour>
      <point x="357" y="264" type="curve" smooth="yes"/>
      <point x="357" y="338"/>
      <point x="349" y="399"/>
      <point x="330" y="445" type="curve"/>
      <point x="390" y="475"/>
      <point x="413" y="537"/>
      <point x="418" y="607" type="curve"/>
      <point x="409" y="621" type="line"/>
      <point x="390" y="621" type="line"/>
      <point x="387" y="544"/>
      <point x="368" y="488"/>
      <point x="321" y="466" type="curve"/>
      <point x="296" y="512"/>
      <point x="258" y="537"/>
      <point x="202" y="537" type="curve" smooth="yes"/>
      <point x="96" y="537"/>
      <point x="46" y="444"/>
      <point x="46" y="266" type="curve" smooth="yes"/>
      <point x="46" y="80"/>
      <point x="100" y="-10"/>
      <point x="204" y="-10" type="curve" smooth="yes"/>
      <point x="306" y="-10"/>
      <point x="357" y="77"/>
    </contour>
    <contour>
      <point x="72" y="266" type="curve" smooth="yes"/>
      <point x="72" y="424"/>
      <point x="110" y="512"/>
      <point x="202" y="512" type="curve" smooth="yes"/>
      <point x="298" y="512"/>
      <point x="331" y="418"/>
      <point x="331" y="265" type="curve" smooth="yes"/>
      <point x="331" y="94"/>
      <point x="291" y="15"/>
      <point x="203" y="15" type="curve" smooth="yes"/>
      <point x="113" y="15"/>
      <point x="72" y="102"/>
    </contour>
  </outline>
</glyph>
<glyph name="uni01A2" format="2">
  <advance width="769"/>
  <unicode hex="01A2"/>
  <anchor x="385" y="0" name="bottom"/>
  <anchor x="385" y="714" name="top"/>
  <outline>
    <contour>
      <point x="457" y="356" type="curve" smooth="yes"/>
      <point x="457" y="448"/>
      <point x="447" y="529"/>
      <point x="425" y="591" type="curve"/>
      <point x="467" y="663"/>
      <point x="504" y="699"/>
      <point x="567" y="699" type="curve" smooth="yes"/>
      <point x="636" y="699"/>
      <point x="672" y="656"/>
      <point x="672" y="542" type="curve" smooth="yes"/>
      <point x="672" y="0" type="line"/>
      <point x="698" y="0" type="line"/>
      <point x="698" y="547" type="line" smooth="yes"/>
      <point x="698" y="667"/>
      <point x="658" y="724"/>
      <point x="570" y="724" type="curve" smooth="yes"/>
      <point x="494" y="724"/>
      <point x="454" y="682"/>
      <point x="414" y="617" type="curve"/>
      <point x="382" y="684"/>
      <point x="332" y="724"/>
      <point x="257" y="724" type="curve" smooth="yes"/>
      <point x="126" y="724"/>
      <point x="54" y="602"/>
      <point x="54" y="359" type="curve" smooth="yes"/>
      <point x="54" y="174"/>
      <point x="96" y="-10"/>
      <point x="258" y="-10" type="curve" smooth="yes"/>
      <point x="415" y="-10"/>
      <point x="457" y="164"/>
    </contour>
    <contour>
      <point x="80" y="361" type="curve" smooth="yes"/>
      <point x="80" y="572"/>
      <point x="137" y="699"/>
      <point x="257" y="699" type="curve" smooth="yes"/>
      <point x="374" y="699"/>
      <point x="431" y="578"/>
      <point x="431" y="357" type="curve" smooth="yes"/>
      <point x="431" y="135"/>
      <point x="373" y="15"/>
      <point x="259" y="15" type="curve" smooth="yes"/>
      <point x="141" y="15"/>
      <point x="80" y="142"/>
    </contour>
  </outline>
</glyph>
<glyph name="uni01A3" format="2">
  <advance width="615"/>
  <unicode hex="01A3"/>
  <anchor x="308" y="-232" name="bottom"/>
  <anchor x="308" y="527" name="top"/>
  <outline>
    <contour>
      <point x="357" y="264" type="curve" smooth="yes"/>
      <point x="357" y="333"/>
      <point x="350" y="392"/>
      <point x="334" y="436" type="curve"/>
      <point x="353" y="471"/>
      <point x="393" y="512"/>
      <point x="445" y="512" type="curve" smooth="yes"/>
      <point x="493" y="512"/>
      <point x="520" y="463"/>
      <point x="520" y="358" type="curve" smooth="yes"/>
      <point x="520" y="-232" type="line"/>
      <point x="546" y="-232" type="line"/>
      <point x="546" y="367" type="line" smooth="yes"/>
      <point x="546" y="484"/>
      <point x="513" y="537"/>
      <point x="445" y="537" type="curve" smooth="yes"/>
      <point x="389" y="537"/>
      <point x="347" y="502"/>
      <point x="324" y="461" type="curve"/>
      <point x="299" y="510"/>
      <point x="260" y="537"/>
      <point x="202" y="537" type="curve" smooth="yes"/>
      <point x="96" y="537"/>
      <point x="46" y="444"/>
      <point x="46" y="266" type="curve" smooth="yes"/>
      <point x="46" y="80"/>
      <point x="100" y="-10"/>
      <point x="204" y="-10" type="curve" smooth="yes"/>
      <point x="306" y="-10"/>
      <point x="357" y="77"/>
    </contour>
    <contour>
      <point x="72" y="266" type="curve" smooth="yes"/>
      <point x="72" y="424"/>
      <point x="110" y="512"/>
      <point x="202" y="512" type="curve" smooth="yes"/>
      <point x="298" y="512"/>
      <point x="331" y="418"/>
      <point x="331" y="265" type="curve" smooth="yes"/>
      <point x="331" y="94"/>
      <point x="291" y="15"/>
      <point x="203" y="15" type="curve" smooth="yes"/>
      <point x="113" y="15"/>
      <point x="72" y="102"/>
    </contour>
  </outline>
</glyph>
<glyph name="uni01A4" format="2">
  <advance width="435"/>
  <unicode hex="01A4"/>
  <anchor x="218" y="0" name="bottom"/>
  <anchor x="218" y="714" name="top"/>
  <outline>
    <contour>
      <point x="118" y="0" type="line"/>
      <point x="144" y="0" type="line"/>
      <point x="144" y="306" type="line"/>
      <point x="212" y="306" type="line" smooth="yes"/>
      <point x="343" y="306"/>
      <point x="402" y="366"/>
      <point x="402" y="519" type="curve" smooth="yes"/>
      <point x="402" y="663"/>
      <point x="340" y="714"/>
      <point x="212" y="714" type="curve" smooth="yes"/>
      <point x="108" y="714" type="line" smooth="yes"/>
      <point x="44" y="714"/>
      <point x="10" y="665"/>
      <point x="10" y="595" type="curve" smooth="yes"/>
      <point x="10" y="579"/>
      <point x="12" y="559"/>
      <point x="16" y="544" type="curve"/>
      <point x="42" y="544" type="line"/>
      <point x="40" y="556"/>
      <point x="36" y="577"/>
      <point x="36" y="596" type="curve" smooth="yes"/>
      <point x="36" y="654"/>
      <point x="64" y="689"/>
      <point x="108" y="689" type="curve" smooth="yes"/>
      <point x="118" y="689" type="line"/>
    </contour>
    <contour>
      <point x="218" y="331" type="curve" smooth="yes"/>
      <point x="144" y="331" type="line"/>
      <point x="144" y="689" type="line"/>
      <point x="211" y="689" type="line" smooth="yes"/>
      <point x="322" y="689"/>
      <point x="375" y="645"/>
      <point x="375" y="520" type="curve" smooth="yes"/>
      <point x="375" y="385"/>
      <point x="325" y="331"/>
    </contour>
  </outline>
</glyph>
